SplineFontDB: 2.0
FontName: DejaVuSerif-Bold
FullName: DejaVu Serif Bold
FamilyName: DejaVu Serif
Weight: Bold
Copyright: Copyright (c) 2003 by Bitstream, Inc. All Rights Reserved.\nDejaVu changes are in public domain\n
Version: 2.21
ItalicAngle: 0
UnderlinePosition: -85
UnderlineWidth: 90
Ascent: 1556
Descent: 492
Order2: 1
NeedsXUIDChange: 1
FSType: 0
OS2Version: 0
OS2_WeightWidthSlopeOnly: 0
OS2_UseTypoMetrics: 0
PfmFamily: 17
TTFWeight: 700
TTFWidth: 5
LineGap: 0
VLineGap: 0
Panose: 2 6 8 3 5 6 5 2 2 4
OS2TypoAscent: 1556
OS2TypoAOffset: 0
OS2TypoDescent: -492
OS2TypoDOffset: 0
OS2TypoLinegap: 410
OS2WinAscent: 1923
OS2WinAOffset: 0
OS2WinDescent: 483
OS2WinDOffset: 0
HheadAscent: 1923
HheadAOffset: 0
HheadDescent: -483
HheadDOffset: 0
OS2Vendor: 'PfEd'
Lookup: 6 0 0 "'ccmp' Contextual Chaining Substitution"  {"'ccmp' Contextual Chaining Substitution"  } ['ccmp' ('DFLT' <'dflt' > 'cyrl' <'MKD ' 'SRB ' 'dflt' > 'grek' <'dflt' > 'latn' <'AZE ' 'CRT ' 'GAG ' 'ISM ' 'KAZ ' 'KRK ' 'KSM ' 'LSM ' 'NSM ' 'SKS ' 'SSM ' 'TAT ' 'TRK ' 'dflt' > ) ]
Lookup: 1 0 0 "'locl' Localized Forms in Cyrillic - Serbian"  {"'locl' Localized Forms in Cyrillic - Serbian"  } ['locl' ('cyrl' <'MKD ' 'SRB ' > ) ]
Lookup: 1 0 0 "'locl' Localized Forms in Latin - Sami"  {"'locl' Localized Forms in Latin - Sami"  } ['locl' ('latn' <'ISM ' 'KSM ' 'LSM ' 'NSM ' 'SKS ' 'SSM ' > ) ]
Lookup: 4 0 1 "'liga' Standard Ligatures"  {"'liga' Standard Ligatures"  } ['liga' ('DFLT' <'dflt' > 'cyrl' <'MKD ' 'SRB ' 'dflt' > 'grek' <'dflt' > 'latn' <'AZE ' 'CRT ' 'GAG ' 'ISM ' 'KAZ ' 'KRK ' 'KSM ' 'LSM ' 'NSM ' 'SKS ' 'SSM ' 'TAT ' 'TRK ' 'dflt' > ) ]
Lookup: 4 0 1 "'liga' Standard Ligatures - Without dotless i"  {"'liga' Standard Ligatures - Without dotless i"  } ['liga' ('DFLT' <'dflt' > 'cyrl' <'MKD ' 'SRB ' 'dflt' > 'grek' <'dflt' > 'latn' <'ISM ' 'KSM ' 'LSM ' 'NSM ' 'SKS ' 'SSM ' 'dflt' > ) ]

StartChar: .notdef
Encoding: 0 -1 0
AltUni: 0
Width: 1229
Flags: W
Fore
102 -362 m 1,0,-1
 102 1444 l 1,1,-1
 1126 1444 l 1,2,-1
 1126 -362 l 1,3,-1
 102 -362 l 1,0,-1
217 -248 m 1,4,-1
 1012 -248 l 1,5,-1
 1012 1329 l 1,6,-1
 217 1329 l 1,7,-1
 217 -248 l 1,4,-1
EndSplineSet
EndChar
StartChar: exclam
Encoding: 33 33 33
Width: 899
Flags: W
Fore
260 162 m 0,0,1
 260 240 260 240 315.5 296 c 128,-1,2
 371 352 371 352 449 352 c 0,3,4
 527 352 527 352 583 296 c 128,-1,5
 639 240 639 240 639 162 c 0,6,7
 639 83 639 83 583 27 c 128,-1,8
 527 -29 527 -29 449 -29 c 0,9,10
 371 -29 371 -29 315.5 27 c 128,-1,11
 260 83 260 83 260 162 c 0,0,1
262 1493 m 1,12,-1
 637 1493 l 1,13,-1
 518 651 l 1,14,-1
 518 461 l 1,15,-1
 379 461 l 1,16,-1
 379 651 l 1,17,-1
 262 1493 l 1,12,-1
EndSplineSet
EndChar
StartChar: quotedbl
Encoding: 34 34 34
Width: 1067
Flags: W
Fore
432 1493 m 1,0,-1
 432 938 l 1,1,-1
 195 938 l 1,2,-1
 195 1493 l 1,3,-1
 432 1493 l 1,0,-1
872 1493 m 1,4,-1
 872 938 l 1,5,-1
 635 938 l 1,6,-1
 635 1493 l 1,7,-1
 872 1493 l 1,4,-1
EndSplineSet
EndChar
StartChar: numbersign
Encoding: 35 35 35
Width: 1716
Flags: W
Fore
1024 872 m 1,0,-1
 760 872 l 1,1,-1
 690 598 l 1,2,-1
 954 598 l 1,3,-1
 1024 872 l 1,0,-1
911 1470 m 1,4,-1
 815 1085 l 1,5,-1
 1079 1085 l 1,6,-1
 1176 1470 l 1,7,-1
 1397 1470 l 1,8,-1
 1300 1085 l 1,9,-1
 1577 1085 l 1,10,-1
 1577 872 l 1,11,-1
 1247 872 l 1,12,-1
 1178 598 l 1,13,-1
 1462 598 l 1,14,-1
 1462 383 l 1,15,-1
 1126 383 l 1,16,-1
 1030 0 l 1,17,-1
 809 0 l 1,18,-1
 905 383 l 1,19,-1
 641 383 l 1,20,-1
 545 0 l 1,21,-1
 322 0 l 1,22,-1
 418 383 l 1,23,-1
 139 383 l 1,24,-1
 139 598 l 1,25,-1
 467 598 l 1,26,-1
 537 872 l 1,27,-1
 254 872 l 1,28,-1
 254 1085 l 1,29,-1
 592 1085 l 1,30,-1
 688 1470 l 1,31,-1
 911 1470 l 1,4,-1
EndSplineSet
EndChar
StartChar: dollar
Encoding: 36 36 36
Width: 1425
Flags: W
Fore
195 59 m 1,0,-1
 195 350 l 1,1,-1
 315 350 l 1,2,3
 332 216 332 216 410.5 150 c 128,-1,4
 489 84 489 84 633 84 c 2,5,-1
 647 84 l 1,6,-1
 647 489 l 1,7,8
 398 544 398 544 290 639 c 128,-1,9
 182 734 182 734 182 897 c 0,10,11
 182 1077 182 1077 304.5 1180.5 c 128,-1,12
 427 1284 427 1284 647 1290 c 1,13,-1
 647 1559 l 1,14,-1
 768 1559 l 1,15,-1
 768 1290 l 1,16,17
 880 1284 880 1284 982.5 1262.5 c 128,-1,18
 1085 1241 1085 1241 1182 1202 c 1,19,-1
 1182 930 l 1,20,-1
 1061 930 l 1,21,22
 1045 1046 1045 1046 968.5 1110.5 c 128,-1,23
 892 1175 892 1175 768 1177 c 1,24,-1
 768 805 l 1,25,26
 1037 746 1037 746 1146 646.5 c 128,-1,27
 1255 547 1255 547 1255 367 c 0,28,29
 1255 182 1255 182 1128.5 79.5 c 128,-1,30
 1002 -23 1002 -23 768 -29 c 1,31,-1
 768 -299 l 1,32,-1
 647 -299 l 1,33,-1
 647 -29 l 1,34,35
 537 -27 537 -27 424 -5 c 128,-1,36
 311 17 311 17 195 59 c 1,0,-1
647 1178 m 1,37,38
 562 1167 562 1167 512.5 1125 c 128,-1,39
 463 1083 463 1083 463 1022 c 0,40,41
 463 952 463 952 505.5 909 c 128,-1,42
 548 866 548 866 647 838 c 1,43,-1
 647 1178 l 1,37,38
768 84 m 1,44,45
 869 95 869 95 921 138.5 c 128,-1,46
 973 182 973 182 973 256 c 0,47,48
 973 330 973 330 924.5 378 c 128,-1,49
 876 426 876 426 768 457 c 1,50,-1
 768 84 l 1,44,45
EndSplineSet
EndChar
StartChar: percent
Encoding: 37 37 37
Width: 1946
Flags: W
Fore
442 1419 m 0,0,1
 378 1419 378 1419 350 1349.5 c 128,-1,2
 322 1280 322 1280 322 1114 c 0,3,4
 322 947 322 947 350 877 c 128,-1,5
 378 807 378 807 442 807 c 0,6,7
 507 807 507 807 535 877 c 128,-1,8
 563 947 563 947 563 1114 c 0,9,10
 563 1280 563 1280 535 1349.5 c 128,-1,11
 507 1419 507 1419 442 1419 c 0,0,1
442 1520 m 0,12,13
 633 1520 633 1520 734.5 1415.5 c 128,-1,14
 836 1311 836 1311 836 1114 c 0,15,16
 836 917 836 917 734.5 812 c 128,-1,17
 633 707 633 707 442 707 c 0,18,19
 252 707 252 707 150.5 812 c 128,-1,20
 49 917 49 917 49 1114 c 0,21,22
 49 1311 49 1311 150.5 1415.5 c 128,-1,23
 252 1520 252 1520 442 1520 c 0,12,13
1354 1520 m 1,24,-1
 1526 1520 l 1,25,-1
 592 -29 l 1,26,-1
 420 -29 l 1,27,-1
 1354 1520 l 1,24,-1
1503 784 m 0,28,29
 1694 784 1694 784 1795 679.5 c 128,-1,30
 1896 575 1896 575 1896 379 c 0,31,32
 1896 182 1896 182 1795 76.5 c 128,-1,33
 1694 -29 1694 -29 1503 -29 c 0,34,35
 1313 -29 1313 -29 1211.5 76.5 c 128,-1,36
 1110 182 1110 182 1110 379 c 0,37,38
 1110 575 1110 575 1211.5 679.5 c 128,-1,39
 1313 784 1313 784 1503 784 c 0,28,29
1503 684 m 0,40,41
 1438 684 1438 684 1410 614.5 c 128,-1,42
 1382 545 1382 545 1382 379 c 0,43,44
 1382 212 1382 212 1410.5 142 c 128,-1,45
 1439 72 1439 72 1503 72 c 0,46,47
 1568 72 1568 72 1596 142 c 128,-1,48
 1624 212 1624 212 1624 379 c 0,49,50
 1624 545 1624 545 1596 614.5 c 128,-1,51
 1568 684 1568 684 1503 684 c 0,40,41
EndSplineSet
EndChar
StartChar: ampersand
Encoding: 38 38 38
Width: 1849
Flags: W
Fore
1812 0 m 1,0,-1
 1333 0 l 1,1,-1
 1206 131 l 1,2,3
 1106 51 1106 51 985 11 c 128,-1,4
 864 -29 864 -29 721 -29 c 0,5,6
 421 -29 421 -29 251.5 99 c 128,-1,7
 82 227 82 227 82 451 c 0,8,9
 82 614 82 614 168.5 729.5 c 128,-1,10
 255 845 255 845 440 928 c 1,11,12
 389 995 389 995 363.5 1056 c 128,-1,13
 338 1117 338 1117 338 1174 c 0,14,15
 338 1338 338 1338 475.5 1429 c 128,-1,16
 613 1520 613 1520 862 1520 c 0,17,18
 936 1520 936 1520 1034.5 1508 c 128,-1,19
 1133 1496 1133 1496 1257 1473 c 1,20,-1
 1257 1161 l 1,21,-1
 1128 1161 l 1,22,23
 1110 1285 1110 1285 1052 1342 c 128,-1,24
 994 1399 994 1399 887 1399 c 0,25,26
 786 1399 786 1399 728 1351 c 128,-1,27
 670 1303 670 1303 670 1221 c 0,28,29
 670 1129 670 1129 849 947 c 0,30,31
 869 927 869 927 879 918 c 1,32,-1
 1339 436 l 1,33,34
 1399 504 1399 504 1433 593 c 128,-1,35
 1467 682 1467 682 1476 795 c 1,36,-1
 1294 795 l 1,37,-1
 1294 915 l 1,38,-1
 1794 915 l 1,39,-1
 1794 795 l 1,40,-1
 1618 795 l 1,41,42
 1601 649 1601 649 1555.5 536 c 128,-1,43
 1510 423 1510 423 1436 336 c 1,44,-1
 1642 121 l 1,45,-1
 1812 121 l 1,46,-1
 1812 0 l 1,0,-1
1112 229 m 1,47,-1
 547 817 l 1,48,49
 492 750 492 750 464 674.5 c 128,-1,50
 436 599 436 599 436 516 c 0,51,52
 436 347 436 347 542.5 238 c 128,-1,53
 649 129 649 129 813 129 c 0,54,55
 891 129 891 129 964.5 153.5 c 128,-1,56
 1038 178 1038 178 1112 229 c 1,47,-1
EndSplineSet
EndChar
StartChar: quotesingle
Encoding: 39 39 39
Width: 627
Flags: W
Fore
432 1493 m 1,0,-1
 432 938 l 1,1,-1
 195 938 l 1,2,-1
 195 1493 l 1,3,-1
 432 1493 l 1,0,-1
EndSplineSet
EndChar
StartChar: parenleft
Encoding: 40 40 40
Width: 969
Flags: W
Fore
862 -319 m 1,0,1
 525 -194 525 -194 359 39 c 128,-1,2
 193 272 193 272 193 618 c 0,3,4
 193 964 193 964 357 1194 c 128,-1,5
 521 1424 521 1424 862 1556 c 1,6,-1
 862 1436 l 1,7,8
 704 1340 704 1340 634.5 1151.5 c 128,-1,9
 565 963 565 963 565 618 c 0,10,11
 565 274 565 274 634.5 85.5 c 128,-1,12
 704 -103 704 -103 862 -199 c 1,13,-1
 862 -319 l 1,0,1
EndSplineSet
EndChar
StartChar: parenright
Encoding: 41 41 41
Width: 969
Flags: W
Fore
104 -319 m 1,0,-1
 104 -199 l 1,1,2
 262 -103 262 -103 331.5 85.5 c 128,-1,3
 401 274 401 274 401 618 c 0,4,5
 401 963 401 963 331.5 1151.5 c 128,-1,6
 262 1340 262 1340 104 1436 c 1,7,-1
 104 1556 l 1,8,9
 445 1424 445 1424 609.5 1194 c 128,-1,10
 774 964 774 964 774 618 c 0,11,12
 774 272 774 272 607.5 39 c 128,-1,13
 441 -194 441 -194 104 -319 c 1,0,-1
EndSplineSet
EndChar
StartChar: asterisk
Encoding: 42 42 42
Width: 1071
Flags: W
Fore
1026 1212 m 1,0,-1
 666 1044 l 1,1,-1
 1026 874 l 1,2,-1
 928 719 l 1,3,-1
 600 958 l 1,4,-1
 627 569 l 1,5,-1
 444 569 l 1,6,-1
 471 958 l 1,7,-1
 143 719 l 1,8,-1
 45 874 l 1,9,-1
 406 1044 l 1,10,-1
 45 1212 l 1,11,-1
 143 1370 l 1,12,-1
 471 1128 l 1,13,-1
 444 1520 l 1,14,-1
 627 1520 l 1,15,-1
 600 1128 l 1,16,-1
 928 1370 l 1,17,-1
 1026 1212 l 1,0,-1
EndSplineSet
EndChar
StartChar: plus
Encoding: 43 43 43
Width: 1716
Flags: W
Fore
973 1284 m 1,0,-1
 973 758 l 1,1,-1
 1499 758 l 1,2,-1
 1499 528 l 1,3,-1
 973 528 l 1,4,-1
 973 2 l 1,5,-1
 743 2 l 1,6,-1
 743 528 l 1,7,-1
 217 528 l 1,8,-1
 217 758 l 1,9,-1
 743 758 l 1,10,-1
 743 1284 l 1,11,-1
 973 1284 l 1,0,-1
EndSplineSet
EndChar
StartChar: comma
Encoding: 44 44 44
Width: 713
Flags: W
Fore
27 -197 m 1,0,1
 131 -113 131 -113 180 -9 c 128,-1,2
 229 95 229 95 229 233 c 2,3,-1
 229 319 l 1,4,-1
 514 319 l 1,5,-1
 514 311 l 2,6,7
 514 90 514 90 421.5 -69.5 c 128,-1,8
 329 -229 329 -229 137 -338 c 1,9,-1
 27 -197 l 1,0,1
EndSplineSet
EndChar
StartChar: hyphen
Encoding: 45 45 45
Width: 850
Flags: W
Fore
111 684 m 1,0,-1
 739 684 l 1,1,-1
 739 414 l 1,2,-1
 111 414 l 1,3,-1
 111 684 l 1,0,-1
EndSplineSet
EndChar
StartChar: period
Encoding: 46 46 46
Width: 713
Flags: W
Fore
166 162 m 0,0,1
 166 240 166 240 222 296 c 128,-1,2
 278 352 278 352 356 352 c 0,3,4
 435 352 435 352 491 296 c 128,-1,5
 547 240 547 240 547 162 c 0,6,7
 547 83 547 83 491 27 c 128,-1,8
 435 -29 435 -29 356 -29 c 0,9,10
 278 -29 278 -29 222 27 c 128,-1,11
 166 83 166 83 166 162 c 0,0,1
EndSplineSet
EndChar
StartChar: slash
Encoding: 47 47 47
Width: 748
Flags: W
Fore
526 1493 m 1,0,-1
 748 1493 l 1,1,-1
 221 -190 l 1,2,-1
 0 -190 l 1,3,-1
 526 1493 l 1,0,-1
EndSplineSet
EndChar
StartChar: zero
Encoding: 48 48 48
Width: 1425
Flags: W
Fore
713 88 m 0,0,1
 833 88 833 88 877.5 197 c 128,-1,2
 922 306 922 306 922 745 c 0,3,4
 922 1181 922 1181 877.5 1292 c 128,-1,5
 833 1403 833 1403 713 1403 c 0,6,7
 593 1403 593 1403 548.5 1294 c 128,-1,8
 504 1185 504 1185 504 745 c 0,9,10
 504 306 504 306 548.5 197 c 128,-1,11
 593 88 593 88 713 88 c 0,0,1
713 -29 m 0,12,13
 414 -29 414 -29 255 170.5 c 128,-1,14
 96 370 96 370 96 745 c 0,15,16
 96 1120 96 1120 255 1320 c 128,-1,17
 414 1520 414 1520 713 1520 c 0,18,19
 1011 1520 1011 1520 1170 1320 c 128,-1,20
 1329 1120 1329 1120 1329 745 c 0,21,22
 1329 370 1329 370 1170 170.5 c 128,-1,23
 1011 -29 1011 -29 713 -29 c 0,12,13
EndSplineSet
EndChar
StartChar: one
Encoding: 49 49 49
Width: 1425
Flags: W
Fore
281 0 m 1,0,-1
 281 121 l 1,1,-1
 561 121 l 1,2,-1
 561 1329 l 1,3,-1
 250 1145 l 1,4,-1
 250 1294 l 1,5,-1
 625 1520 l 1,6,-1
 940 1520 l 1,7,-1
 940 121 l 1,8,-1
 1221 121 l 1,9,-1
 1221 0 l 1,10,-1
 281 0 l 1,0,-1
EndSplineSet
EndChar
StartChar: two
Encoding: 50 50 50
Width: 1425
Flags: W
Fore
270 1124 m 1,0,-1
 150 1124 l 1,1,-1
 150 1446 l 1,2,3
 272 1483 272 1483 391.5 1501.5 c 128,-1,4
 511 1520 511 1520 633 1520 c 0,5,6
 918 1520 918 1520 1077.5 1403.5 c 128,-1,7
 1237 1287 1237 1287 1237 1079 c 0,8,9
 1237 931 1237 931 1149 813.5 c 128,-1,10
 1061 696 1061 696 813 535 c 1,11,-1
 397 262 l 1,12,-1
 1104 262 l 1,13,-1
 1104 438 l 1,14,-1
 1241 438 l 1,15,-1
 1241 0 l 1,16,-1
 137 0 l 1,17,-1
 137 244 l 1,18,-1
 358 397 l 2,19,20
 641 592 641 592 735 729 c 128,-1,21
 829 866 829 866 829 1049 c 0,22,23
 829 1222 829 1222 757.5 1312.5 c 128,-1,24
 686 1403 686 1403 549 1403 c 0,25,26
 431 1403 431 1403 360 1331.5 c 128,-1,27
 289 1260 289 1260 270 1124 c 1,0,-1
EndSplineSet
EndChar
StartChar: three
Encoding: 51 51 51
Width: 1425
Flags: W
Fore
176 1450 m 1,0,1
 308 1485 308 1485 432 1502.5 c 128,-1,2
 556 1520 556 1520 674 1520 c 0,3,4
 944 1520 944 1520 1088.5 1423.5 c 128,-1,5
 1233 1327 1233 1327 1233 1147 c 0,6,7
 1233 1012 1233 1012 1150 928 c 128,-1,8
 1067 844 1067 844 907 815 c 1,9,10
 1102 784 1102 784 1198 682 c 128,-1,11
 1294 580 1294 580 1294 403 c 0,12,13
 1294 194 1294 194 1128.5 82.5 c 128,-1,14
 963 -29 963 -29 649 -29 c 0,15,16
 531 -29 531 -29 405.5 -9 c 128,-1,17
 280 11 280 11 143 51 c 1,18,-1
 143 379 l 1,19,-1
 264 379 l 1,20,21
 275 237 275 237 353 162.5 c 128,-1,22
 431 88 431 88 569 88 c 0,23,24
 721 88 721 88 804 172.5 c 128,-1,25
 887 257 887 257 887 412 c 0,26,27
 887 574 887 574 800.5 662 c 128,-1,28
 714 750 714 750 555 750 c 2,29,-1
 489 750 l 1,30,-1
 489 870 l 1,31,-1
 541 870 l 2,32,33
 688 870 688 870 762 938 c 128,-1,34
 836 1006 836 1006 836 1141 c 0,35,36
 836 1268 836 1268 766.5 1335.5 c 128,-1,37
 697 1403 697 1403 567 1403 c 0,38,39
 449 1403 449 1403 380 1338.5 c 128,-1,40
 311 1274 311 1274 297 1151 c 1,41,-1
 176 1151 l 1,42,-1
 176 1450 l 1,0,1
EndSplineSet
EndChar
StartChar: four
Encoding: 52 52 52
Width: 1425
Flags: W
Fore
1307 0 m 1,0,-1
 485 0 l 1,1,-1
 485 121 l 1,2,-1
 707 121 l 1,3,-1
 707 393 l 1,4,-1
 84 393 l 1,5,-1
 84 508 l 1,6,-1
 709 1520 l 1,7,-1
 1085 1520 l 1,8,-1
 1085 522 l 1,9,-1
 1341 522 l 1,10,-1
 1341 393 l 1,11,-1
 1085 393 l 1,12,-1
 1085 121 l 1,13,-1
 1307 121 l 1,14,-1
 1307 0 l 1,0,-1
707 522 m 1,15,-1
 707 1247 l 1,16,-1
 262 522 l 1,17,-1
 707 522 l 1,15,-1
EndSplineSet
EndChar
StartChar: five
Encoding: 53 53 53
Width: 1425
Flags: W
Fore
1155 1493 m 1,0,-1
 1155 1231 l 1,1,-1
 356 1231 l 1,2,-1
 356 903 l 1,3,4
 422 954 422 954 503 980 c 128,-1,5
 584 1006 584 1006 674 1006 c 0,6,7
 950 1006 950 1006 1110 866.5 c 128,-1,8
 1270 727 1270 727 1270 487 c 0,9,10
 1270 243 1270 243 1110 107 c 128,-1,11
 950 -29 950 -29 662 -29 c 0,12,13
 540 -29 540 -29 419.5 -9 c 128,-1,14
 299 11 299 11 168 53 c 1,15,-1
 168 379 l 1,16,-1
 288 379 l 1,17,18
 294 232 294 232 364.5 160 c 128,-1,19
 435 88 435 88 573 88 c 0,20,21
 720 88 720 88 791 186.5 c 128,-1,22
 862 285 862 285 862 487 c 0,23,24
 862 686 862 686 792.5 784.5 c 128,-1,25
 723 883 723 883 582 883 c 0,26,27
 506 883 506 883 446.5 851.5 c 128,-1,28
 387 820 387 820 336 754 c 1,29,-1
 236 754 l 1,30,-1
 236 1493 l 1,31,-1
 1155 1493 l 1,0,-1
EndSplineSet
EndChar
StartChar: six
Encoding: 54 54 54
Width: 1425
Flags: W
Fore
504 885 m 1,0,1
 569 937 569 937 649.5 963 c 128,-1,2
 730 989 730 989 825 989 c 0,3,4
 1054 989 1054 989 1184.5 855 c 128,-1,5
 1315 721 1315 721 1315 487 c 0,6,7
 1315 240 1315 240 1168 105.5 c 128,-1,8
 1021 -29 1021 -29 750 -29 c 0,9,10
 444 -29 444 -29 286.5 155.5 c 128,-1,11
 129 340 129 340 129 698 c 0,12,13
 129 1105 129 1105 304 1312.5 c 128,-1,14
 479 1520 479 1520 823 1520 c 0,15,16
 913 1520 913 1520 1016 1505 c 128,-1,17
 1119 1490 1119 1490 1237 1460 c 1,18,-1
 1237 1196 l 1,19,-1
 1116 1196 l 1,20,21
 1091 1298 1091 1298 1021.5 1350.5 c 128,-1,22
 952 1403 952 1403 842 1403 c 0,23,24
 664 1403 664 1403 584.5 1281 c 128,-1,25
 505 1159 505 1159 504 885 c 1,0,1
727 88 m 0,26,27
 830 88 830 88 874 175.5 c 128,-1,28
 918 263 918 263 918 479 c 0,29,30
 918 695 918 695 874 782.5 c 128,-1,31
 830 870 830 870 727 870 c 0,32,33
 624 870 624 870 580.5 782.5 c 128,-1,34
 537 695 537 695 537 479 c 0,35,36
 537 263 537 263 580.5 175.5 c 128,-1,37
 624 88 624 88 727 88 c 0,26,27
EndSplineSet
EndChar
StartChar: seven
Encoding: 55 55 55
Width: 1425
Flags: W
Fore
1255 1239 m 1,0,-1
 639 0 l 1,1,-1
 436 0 l 1,2,-1
 1036 1210 l 1,3,-1
 299 1210 l 1,4,-1
 299 1008 l 1,5,-1
 162 1008 l 1,6,-1
 162 1493 l 1,7,-1
 1255 1493 l 1,8,-1
 1255 1239 l 1,0,-1
EndSplineSet
EndChar
StartChar: eight
Encoding: 56 56 56
Width: 1425
Flags: W
Fore
952 795 m 1,0,1
 1130 766 1130 766 1222.5 664 c 128,-1,2
 1315 562 1315 562 1315 397 c 0,3,4
 1315 191 1315 191 1159.5 81 c 128,-1,5
 1004 -29 1004 -29 711 -29 c 0,6,7
 418 -29 418 -29 262 81 c 128,-1,8
 106 191 106 191 106 397 c 0,9,10
 106 562 106 562 199 664 c 128,-1,11
 292 766 292 766 469 795 c 1,12,13
 312 831 312 831 234 915.5 c 128,-1,14
 156 1000 156 1000 156 1130 c 0,15,16
 156 1320 156 1320 298 1420 c 128,-1,17
 440 1520 440 1520 711 1520 c 0,18,19
 981 1520 981 1520 1123.5 1420 c 128,-1,20
 1266 1320 1266 1320 1266 1130 c 0,21,22
 1266 1000 1266 1000 1187.5 915.5 c 128,-1,23
 1109 831 1109 831 952 795 c 1,0,1
879 1126 m 0,24,25
 879 1284 879 1284 841 1343.5 c 128,-1,26
 803 1403 803 1403 711 1403 c 0,27,28
 618 1403 618 1403 580.5 1343.5 c 128,-1,29
 543 1284 543 1284 543 1126 c 0,30,31
 543 969 543 969 580.5 910.5 c 128,-1,32
 618 852 618 852 711 852 c 0,33,34
 804 852 804 852 841.5 910.5 c 128,-1,35
 879 969 879 969 879 1126 c 0,24,25
918 414 m 0,36,37
 918 597 918 597 871.5 666 c 128,-1,38
 825 735 825 735 711 735 c 0,39,40
 596 735 596 735 550 666 c 128,-1,41
 504 597 504 597 504 414 c 0,42,43
 504 229 504 229 550.5 158.5 c 128,-1,44
 597 88 597 88 711 88 c 0,45,46
 824 88 824 88 871 158.5 c 128,-1,47
 918 229 918 229 918 414 c 0,36,37
EndSplineSet
EndChar
StartChar: nine
Encoding: 57 57 57
Width: 1425
Flags: W
Fore
698 1403 m 0,0,1
 595 1403 595 1403 551.5 1315.5 c 128,-1,2
 508 1228 508 1228 508 1012 c 0,3,4
 508 796 508 796 551.5 708.5 c 128,-1,5
 595 621 595 621 698 621 c 0,6,7
 801 621 801 621 845 708.5 c 128,-1,8
 889 796 889 796 889 1012 c 0,9,10
 889 1228 889 1228 845 1315.5 c 128,-1,11
 801 1403 801 1403 698 1403 c 0,0,1
921 608 m 1,12,13
 855 555 855 555 774.5 528.5 c 128,-1,14
 694 502 694 502 600 502 c 0,15,16
 372 502 372 502 241.5 635.5 c 128,-1,17
 111 769 111 769 111 1004 c 0,18,19
 111 1252 111 1252 257 1386 c 128,-1,20
 403 1520 403 1520 674 1520 c 0,21,22
 980 1520 980 1520 1138 1335 c 128,-1,23
 1296 1150 1296 1150 1296 793 c 0,24,25
 1296 386 1296 386 1121 178.5 c 128,-1,26
 946 -29 946 -29 602 -29 c 0,27,28
 512 -29 512 -29 409 -14 c 128,-1,29
 306 1 306 1 188 31 c 1,30,-1
 188 295 l 1,31,-1
 309 295 l 1,32,33
 334 193 334 193 403.5 140.5 c 128,-1,34
 473 88 473 88 584 88 c 0,35,36
 760 88 760 88 840 210.5 c 128,-1,37
 920 333 920 333 921 608 c 1,12,13
EndSplineSet
EndChar
StartChar: colon
Encoding: 58 58 58
Width: 756
Flags: W
Fore
188 813 m 0,0,1
 188 892 188 892 243.5 948 c 128,-1,2
 299 1004 299 1004 377 1004 c 0,3,4
 455 1004 455 1004 511 947.5 c 128,-1,5
 567 891 567 891 567 813 c 0,6,7
 567 735 567 735 511.5 680 c 128,-1,8
 456 625 456 625 377 625 c 0,9,10
 298 625 298 625 243 680 c 128,-1,11
 188 735 188 735 188 813 c 0,0,1
188 162 m 0,12,13
 188 240 188 240 243.5 296 c 128,-1,14
 299 352 299 352 377 352 c 0,15,16
 455 352 455 352 511 296 c 128,-1,17
 567 240 567 240 567 162 c 0,18,19
 567 83 567 83 511 27 c 128,-1,20
 455 -29 455 -29 377 -29 c 0,21,22
 299 -29 299 -29 243.5 27 c 128,-1,23
 188 83 188 83 188 162 c 0,12,13
EndSplineSet
EndChar
StartChar: semicolon
Encoding: 59 59 59
Width: 756
Flags: W
Fore
188 813 m 0,0,1
 188 892 188 892 243.5 948 c 128,-1,2
 299 1004 299 1004 377 1004 c 0,3,4
 455 1004 455 1004 511 947.5 c 128,-1,5
 567 891 567 891 567 813 c 0,6,7
 567 735 567 735 511.5 680 c 128,-1,8
 456 625 456 625 377 625 c 0,9,10
 298 625 298 625 243 680 c 128,-1,11
 188 735 188 735 188 813 c 0,0,1
53 -188 m 1,12,13
 158 -105 158 -105 207 -1.5 c 128,-1,14
 256 102 256 102 256 240 c 2,15,-1
 256 328 l 1,16,-1
 541 328 l 1,17,18
 541 103 541 103 448 -59 c 128,-1,19
 355 -221 355 -221 164 -330 c 1,20,-1
 53 -188 l 1,12,13
EndSplineSet
EndChar
StartChar: less
Encoding: 60 60 60
Width: 1716
Flags: W
Fore
1499 979 m 1,0,-1
 520 641 l 1,1,-1
 1499 305 l 1,2,-1
 1499 66 l 1,3,-1
 217 530 l 1,4,-1
 217 756 l 1,5,-1
 1499 1219 l 1,6,-1
 1499 979 l 1,0,-1
EndSplineSet
EndChar
StartChar: equal
Encoding: 61 61 61
Width: 1716
Flags: W
Fore
217 528 m 1,0,-1
 1499 528 l 1,1,-1
 1499 301 l 1,2,-1
 217 301 l 1,3,-1
 217 528 l 1,0,-1
217 983 m 1,4,-1
 1499 983 l 1,5,-1
 1499 756 l 1,6,-1
 217 756 l 1,7,-1
 217 983 l 1,4,-1
EndSplineSet
EndChar
StartChar: greater
Encoding: 62 62 62
Width: 1716
Flags: W
Fore
217 979 m 1,0,-1
 217 1219 l 1,1,-1
 1499 756 l 1,2,-1
 1499 530 l 1,3,-1
 217 66 l 1,4,-1
 217 305 l 1,5,-1
 1196 641 l 1,6,-1
 217 979 l 1,0,-1
EndSplineSet
EndChar
StartChar: question
Encoding: 63 63 63
Width: 1200
Flags: W
Fore
342 162 m 0,0,1
 342 240 342 240 398 296 c 128,-1,2
 454 352 454 352 532 352 c 0,3,4
 611 352 611 352 667 296 c 128,-1,5
 723 240 723 240 723 162 c 0,6,7
 723 83 723 83 667 27 c 128,-1,8
 611 -29 611 -29 532 -29 c 0,9,10
 454 -29 454 -29 398 27 c 128,-1,11
 342 83 342 83 342 162 c 0,0,1
133 1452 m 1,12,13
 257 1486 257 1486 369 1503 c 128,-1,14
 481 1520 481 1520 586 1520 c 0,15,16
 838 1520 838 1520 973 1409.5 c 128,-1,17
 1108 1299 1108 1299 1108 1094 c 0,18,19
 1108 892 1108 892 977.5 775.5 c 128,-1,20
 847 659 847 659 602 641 c 1,21,-1
 602 436 l 1,22,-1
 463 436 l 1,23,-1
 463 735 l 1,24,25
 603 778 603 778 668 870 c 128,-1,26
 733 962 733 962 733 1116 c 0,27,28
 733 1260 733 1260 672 1333.5 c 128,-1,29
 611 1407 611 1407 492 1407 c 0,30,31
 382 1407 382 1407 322.5 1341 c 128,-1,32
 263 1275 263 1275 254 1145 c 1,33,-1
 133 1145 l 1,34,-1
 133 1452 l 1,12,13
EndSplineSet
EndChar
StartChar: at
Encoding: 64 64 64
Width: 2048
Flags: W
Fore
1272 504 m 2,0,-1
 1272 580 l 2,1,2
 1272 709 1272 709 1210 787.5 c 128,-1,3
 1148 866 1148 866 1047 866 c 0,4,5
 948 866 948 866 887.5 778.5 c 128,-1,6
 827 691 827 691 827 543 c 0,7,8
 827 395 827 395 887.5 307 c 128,-1,9
 948 219 948 219 1047 219 c 0,10,11
 1148 219 1148 219 1210 296.5 c 128,-1,12
 1272 374 1272 374 1272 504 c 2,0,-1
1272 240 m 1,13,14
 1228 168 1228 168 1156.5 130 c 128,-1,15
 1085 92 1085 92 995 92 c 0,16,17
 804 92 804 92 695 212 c 128,-1,18
 586 332 586 332 586 543 c 0,19,20
 586 754 586 754 695 873.5 c 128,-1,21
 804 993 804 993 995 993 c 0,22,23
 1085 993 1085 993 1156.5 955 c 128,-1,24
 1228 917 1228 917 1272 846 c 1,25,-1
 1272 971 l 1,26,-1
 1491 971 l 1,27,-1
 1491 229 l 1,28,29
 1634 268 1634 268 1712 385 c 128,-1,30
 1790 502 1790 502 1790 678 c 0,31,32
 1790 821 1790 821 1735 938 c 128,-1,33
 1680 1055 1680 1055 1567 1151 c 0,34,35
 1475 1229 1475 1229 1351 1271 c 128,-1,36
 1227 1313 1227 1313 1087 1313 c 0,37,38
 957 1313 957 1313 844 1278 c 128,-1,39
 731 1243 731 1243 637 1174 c 0,40,41
 495 1068 495 1068 418.5 904 c 128,-1,42
 342 740 342 740 342 543 c 0,43,44
 342 388 342 388 390.5 250.5 c 128,-1,45
 439 113 439 113 528 12 c 0,46,47
 635 -107 635 -107 774.5 -168 c 128,-1,48
 914 -229 914 -229 1077 -229 c 0,49,50
 1199 -229 1199 -229 1313 -195 c 128,-1,51
 1427 -161 1427 -161 1530 -94 c 1,52,-1
 1587 -188 l 1,53,54
 1459 -272 1459 -272 1320.5 -314 c 128,-1,55
 1182 -356 1182 -356 1038 -356 c 0,56,57
 844 -356 844 -356 682 -293 c 128,-1,58
 520 -230 520 -230 393 -104 c 0,59,60
 267 20 267 20 201 185.5 c 128,-1,61
 135 351 135 351 135 543 c 0,62,63
 135 735 135 735 201 900 c 128,-1,64
 267 1065 267 1065 393 1190 c 0,65,66
 521 1316 521 1316 684.5 1378 c 128,-1,67
 848 1440 848 1440 1053 1440 c 0,68,69
 1231 1440 1231 1440 1377 1391.5 c 128,-1,70
 1523 1343 1523 1343 1638 1245 c 1,71,72
 1771 1134 1771 1134 1837 992 c 128,-1,73
 1903 850 1903 850 1903 676 c 0,74,75
 1903 400 1903 400 1745 246 c 128,-1,76
 1587 92 1587 92 1303 92 c 2,77,-1
 1272 92 l 1,78,-1
 1272 240 l 1,13,14
EndSplineSet
EndChar
StartChar: A
Encoding: 65 65 65
Width: 1589
Flags: W
AnchorPoint: "below" 772 0 basechar 0
AnchorPoint: "above" 772 1465 basechar 0
Fore
-16 0 m 1,0,-1
 -16 121 l 1,1,-1
 106 121 l 1,2,-1
 668 1493 l 1,3,-1
 907 1493 l 1,4,-1
 1470 121 l 1,5,-1
 1612 121 l 1,6,-1
 1612 0 l 1,7,-1
 913 0 l 1,8,-1
 913 121 l 1,9,-1
 1059 121 l 1,10,-1
 936 426 l 1,11,-1
 375 426 l 1,12,-1
 250 121 l 1,13,-1
 428 121 l 1,14,-1
 428 0 l 1,15,-1
 -16 0 l 1,0,-1
424 547 m 1,16,-1
 887 547 l 1,17,-1
 657 1118 l 1,18,-1
 424 547 l 1,16,-1
EndSplineSet
EndChar
StartChar: B
Encoding: 66 66 66
Width: 1731
Flags: W
AnchorPoint: "below" 865 0 basechar 0
AnchorPoint: "above" 865 1465 basechar 0
Fore
96 0 m 1,0,-1
 96 121 l 1,1,-1
 287 121 l 1,2,-1
 287 1372 l 1,3,-1
 96 1372 l 1,4,-1
 96 1493 l 1,5,-1
 981 1493 l 2,6,7
 1254 1493 1254 1493 1391 1401 c 128,-1,8
 1528 1309 1528 1309 1528 1124 c 0,9,10
 1528 991 1528 991 1433.5 913 c 128,-1,11
 1339 835 1339 835 1153 815 c 1,12,13
 1378 794 1378 794 1498 695 c 128,-1,14
 1618 596 1618 596 1618 432 c 0,15,16
 1618 210 1618 210 1450.5 105 c 128,-1,17
 1283 0 1283 0 926 0 c 2,18,-1
 96 0 l 1,0,-1
672 870 m 1,19,-1
 803 870 l 2,20,21
 975 870 975 870 1058 932.5 c 128,-1,22
 1141 995 1141 995 1141 1124 c 0,23,24
 1141 1254 1141 1254 1060.5 1313 c 128,-1,25
 980 1372 980 1372 803 1372 c 2,26,-1
 672 1372 l 1,27,-1
 672 870 l 1,19,-1
672 121 m 1,28,-1
 815 121 l 2,29,30
 1006 121 1006 121 1098 197 c 128,-1,31
 1190 273 1190 273 1190 432 c 0,32,33
 1190 592 1190 592 1097 671 c 128,-1,34
 1004 750 1004 750 815 750 c 2,35,-1
 672 750 l 1,36,-1
 672 121 l 1,28,-1
EndSplineSet
EndChar
StartChar: C
Encoding: 67 67 67
Width: 1630
Flags: W
AnchorPoint: "below" 889 0 basechar 0
AnchorPoint: "above" 889 1465 basechar 0
Fore
1526 426 m 1,0,1
 1467 195 1467 195 1314 83 c 128,-1,2
 1161 -29 1161 -29 903 -29 c 0,3,4
 525 -29 525 -29 305.5 179.5 c 128,-1,5
 86 388 86 388 86 745 c 0,6,7
 86 1103 86 1103 305.5 1311.5 c 128,-1,8
 525 1520 525 1520 903 1520 c 0,9,10
 1036 1520 1036 1520 1180 1488 c 128,-1,11
 1324 1456 1324 1456 1485 1391 c 1,12,-1
 1485 1024 l 1,13,-1
 1358 1024 l 1,14,15
 1319 1212 1319 1212 1216 1305.5 c 128,-1,16
 1113 1399 1113 1399 944 1399 c 0,17,18
 726 1399 726 1399 620 1238.5 c 128,-1,19
 514 1078 514 1078 514 745 c 0,20,21
 514 412 514 412 620 252 c 128,-1,22
 726 92 726 92 946 92 c 0,23,24
 1095 92 1095 92 1189.5 175 c 128,-1,25
 1284 258 1284 258 1327 426 c 1,26,-1
 1526 426 l 1,0,1
EndSplineSet
EndChar
StartChar: D
Encoding: 68 68 68
Width: 1776
Flags: W
AnchorPoint: "below" 865 0 basechar 0
AnchorPoint: "above" 865 1465 basechar 0
Fore
672 121 m 1,0,-1
 811 121 l 2,1,2
 1045 121 1045 121 1153.5 271 c 128,-1,3
 1262 421 1262 421 1262 748 c 0,4,5
 1262 1073 1262 1073 1154 1222.5 c 128,-1,6
 1046 1372 1046 1372 811 1372 c 2,7,-1
 672 1372 l 1,8,-1
 672 121 l 1,0,-1
96 0 m 1,9,-1
 96 121 l 1,10,-1
 287 121 l 1,11,-1
 287 1372 l 1,12,-1
 96 1372 l 1,13,-1
 96 1493 l 1,14,-1
 862 1493 l 2,15,16
 1264 1493 1264 1493 1477 1301 c 128,-1,17
 1690 1109 1690 1109 1690 748 c 0,18,19
 1690 385 1690 385 1476.5 192.5 c 128,-1,20
 1263 0 1263 0 862 0 c 2,21,-1
 96 0 l 1,9,-1
EndSplineSet
EndChar
StartChar: E
Encoding: 69 69 69
Width: 1561
Flags: W
AnchorPoint: "below" 815 0 basechar 0
AnchorPoint: "above" 815 1465 basechar 0
Fore
96 0 m 1,0,-1
 96 121 l 1,1,-1
 287 121 l 1,2,-1
 287 1372 l 1,3,-1
 96 1372 l 1,4,-1
 96 1493 l 1,5,-1
 1438 1493 l 1,6,-1
 1438 1141 l 1,7,-1
 1300 1141 l 1,8,-1
 1300 1356 l 1,9,-1
 672 1356 l 1,10,-1
 672 877 l 1,11,-1
 1063 877 l 1,12,-1
 1063 1067 l 1,13,-1
 1200 1067 l 1,14,-1
 1200 551 l 1,15,-1
 1063 551 l 1,16,-1
 1063 741 l 1,17,-1
 672 741 l 1,18,-1
 672 137 l 1,19,-1
 1319 137 l 1,20,-1
 1319 352 l 1,21,-1
 1456 352 l 1,22,-1
 1456 0 l 1,23,-1
 96 0 l 1,0,-1
EndSplineSet
EndChar
StartChar: F
Encoding: 70 70 70
Width: 1454
Flags: W
AnchorPoint: "below" 479 0 basechar 0
AnchorPoint: "above" 805 1465 basechar 0
Fore
96 0 m 1,0,-1
 96 121 l 1,1,-1
 287 121 l 1,2,-1
 287 1372 l 1,3,-1
 96 1372 l 1,4,-1
 96 1493 l 1,5,-1
 1427 1493 l 1,6,-1
 1427 1141 l 1,7,-1
 1290 1141 l 1,8,-1
 1290 1356 l 1,9,-1
 674 1356 l 1,10,-1
 674 877 l 1,11,-1
 1053 877 l 1,12,-1
 1053 1067 l 1,13,-1
 1190 1067 l 1,14,-1
 1190 551 l 1,15,-1
 1053 551 l 1,16,-1
 1053 741 l 1,17,-1
 674 741 l 1,18,-1
 674 121 l 1,19,-1
 909 121 l 1,20,-1
 909 0 l 1,21,-1
 96 0 l 1,0,-1
EndSplineSet
EndChar
StartChar: G
Encoding: 71 71 71
Width: 1749
Flags: W
AnchorPoint: "below" 909 0 basechar 0
AnchorPoint: "above" 909 1465 basechar 0
Fore
1409 1024 m 1,0,1
 1364 1222 1364 1222 1259 1310.5 c 128,-1,2
 1154 1399 1154 1399 963 1399 c 0,3,4
 731 1399 731 1399 622.5 1241.5 c 128,-1,5
 514 1084 514 1084 514 745 c 0,6,7
 514 409 514 409 618 250.5 c 128,-1,8
 722 92 722 92 942 92 c 0,9,10
 1026 92 1026 92 1098 111 c 128,-1,11
 1170 130 1170 130 1229 168 c 1,12,-1
 1229 578 l 1,13,-1
 1049 578 l 1,14,-1
 1049 698 l 1,15,-1
 1587 698 l 1,16,-1
 1587 125 l 1,17,18
 1419 47 1419 47 1251.5 9 c 128,-1,19
 1084 -29 1084 -29 909 -29 c 0,20,21
 525 -29 525 -29 305.5 178 c 128,-1,22
 86 385 86 385 86 745 c 0,23,24
 86 1106 86 1106 305.5 1313 c 128,-1,25
 525 1520 525 1520 909 1520 c 0,26,27
 1069 1520 1069 1520 1224 1488 c 128,-1,28
 1379 1456 1379 1456 1536 1391 c 1,29,-1
 1536 1024 l 1,30,-1
 1409 1024 l 1,0,1
EndSplineSet
EndChar
StartChar: H
Encoding: 72 72 72
Width: 1935
Flags: W
AnchorPoint: "below" 970 0 basechar 0
AnchorPoint: "above" 970 1465 basechar 0
Fore
96 0 m 1,0,-1
 96 121 l 1,1,-1
 287 121 l 1,2,-1
 287 1372 l 1,3,-1
 96 1372 l 1,4,-1
 96 1493 l 1,5,-1
 864 1493 l 1,6,-1
 864 1372 l 1,7,-1
 672 1372 l 1,8,-1
 672 870 l 1,9,-1
 1266 870 l 1,10,-1
 1266 1372 l 1,11,-1
 1075 1372 l 1,12,-1
 1075 1493 l 1,13,-1
 1843 1493 l 1,14,-1
 1843 1372 l 1,15,-1
 1651 1372 l 1,16,-1
 1651 121 l 1,17,-1
 1843 121 l 1,18,-1
 1843 0 l 1,19,-1
 1075 0 l 1,20,-1
 1075 121 l 1,21,-1
 1266 121 l 1,22,-1
 1266 733 l 1,23,-1
 672 733 l 1,24,-1
 672 121 l 1,25,-1
 864 121 l 1,26,-1
 864 0 l 1,27,-1
 96 0 l 1,0,-1
EndSplineSet
EndChar
StartChar: I
Encoding: 73 73 73
Width: 958
Flags: W
AnchorPoint: "below" 479 0 basechar 0
AnchorPoint: "above" 479 1465 basechar 0
Fore
96 0 m 1,0,-1
 96 121 l 1,1,-1
 287 121 l 1,2,-1
 287 1372 l 1,3,-1
 96 1372 l 1,4,-1
 96 1493 l 1,5,-1
 864 1493 l 1,6,-1
 864 1372 l 1,7,-1
 672 1372 l 1,8,-1
 672 121 l 1,9,-1
 864 121 l 1,10,-1
 864 0 l 1,11,-1
 96 0 l 1,0,-1
EndSplineSet
EndChar
StartChar: J
Encoding: 74 74 74
Width: 969
Flags: W
AnchorPoint: "below" 313 -430 basechar 0
AnchorPoint: "above" 493 1465 basechar 0
Fore
-150 -358 m 1,0,-1
 -150 -123 l 1,1,-1
 -20 -123 l 1,2,3
 -14 -217 -14 -217 24.5 -261 c 128,-1,4
 63 -305 63 -305 139 -305 c 0,5,6
 236 -305 236 -305 274.5 -230.5 c 128,-1,7
 313 -156 313 -156 313 49 c 2,8,-1
 313 1372 l 1,9,-1
 96 1372 l 1,10,-1
 96 1493 l 1,11,-1
 891 1493 l 1,12,-1
 891 1372 l 1,13,-1
 700 1372 l 1,14,-1
 700 41 l 2,15,16
 700 -202 700 -202 577.5 -314 c 128,-1,17
 455 -426 455 -426 188 -426 c 0,18,19
 105 -426 105 -426 21 -409 c 128,-1,20
 -63 -392 -63 -392 -150 -358 c 1,0,-1
EndSplineSet
EndChar
StartChar: K
Encoding: 75 75 75
Width: 1780
Flags: W
AnchorPoint: "below" 1024 0 basechar 0
AnchorPoint: "above" 1024 1460 basechar 0
Fore
96 0 m 1,0,-1
 96 121 l 1,1,-1
 287 121 l 1,2,-1
 287 1372 l 1,3,-1
 96 1372 l 1,4,-1
 96 1493 l 1,5,-1
 864 1493 l 1,6,-1
 864 1372 l 1,7,-1
 672 1372 l 1,8,-1
 672 827 l 1,9,-1
 1305 1372 l 1,10,-1
 1145 1372 l 1,11,-1
 1145 1493 l 1,12,-1
 1702 1493 l 1,13,-1
 1702 1372 l 1,14,-1
 1503 1372 l 1,15,-1
 967 911 l 1,16,-1
 1696 121 l 1,17,-1
 1843 121 l 1,18,-1
 1843 0 l 1,19,-1
 1337 0 l 1,20,-1
 672 725 l 1,21,-1
 672 121 l 1,22,-1
 864 121 l 1,23,-1
 864 0 l 1,24,-1
 96 0 l 1,0,-1
EndSplineSet
EndChar
StartChar: L
Encoding: 76 76 76
Width: 1440
Flags: W
AnchorPoint: "above" 479 1465 basechar 0
AnchorPoint: "below" 805 0 basechar 0
Fore
96 0 m 1,0,-1
 96 121 l 1,1,-1
 287 121 l 1,2,-1
 287 1372 l 1,3,-1
 96 1372 l 1,4,-1
 96 1493 l 1,5,-1
 864 1493 l 1,6,-1
 864 1372 l 1,7,-1
 672 1372 l 1,8,-1
 672 137 l 1,9,-1
 1260 137 l 1,10,-1
 1260 373 l 1,11,-1
 1395 373 l 1,12,-1
 1395 0 l 1,13,-1
 96 0 l 1,0,-1
EndSplineSet
EndChar
StartChar: M
Encoding: 77 77 77
Width: 2267
Flags: W
AnchorPoint: "above" 1084 1460 basechar 0
AnchorPoint: "below" 1084 0 basechar 0
Fore
86 0 m 1,0,-1
 86 121 l 1,1,-1
 276 121 l 1,2,-1
 276 1372 l 1,3,-1
 86 1372 l 1,4,-1
 86 1493 l 1,5,-1
 702 1493 l 1,6,-1
 1128 535 l 1,7,-1
 1556 1493 l 1,8,-1
 2171 1493 l 1,9,-1
 2171 1372 l 1,10,-1
 1980 1372 l 1,11,-1
 1980 121 l 1,12,-1
 2171 121 l 1,13,-1
 2171 0 l 1,14,-1
 1403 0 l 1,15,-1
 1403 121 l 1,16,-1
 1593 121 l 1,17,-1
 1593 1260 l 1,18,-1
 1130 219 l 1,19,-1
 877 219 l 1,20,-1
 416 1260 l 1,21,-1
 416 121 l 1,22,-1
 606 121 l 1,23,-1
 606 0 l 1,24,-1
 86 0 l 1,0,-1
EndSplineSet
EndChar
StartChar: N
Encoding: 78 78 78
Width: 1872
Flags: W
AnchorPoint: "below" 919 0 basechar 0
AnchorPoint: "above" 919 1465 basechar 0
Fore
90 0 m 1,0,-1
 90 121 l 1,1,-1
 281 121 l 1,2,-1
 281 1372 l 1,3,-1
 90 1372 l 1,4,-1
 90 1493 l 1,5,-1
 557 1493 l 1,6,-1
 1458 436 l 1,7,-1
 1458 1372 l 1,8,-1
 1268 1372 l 1,9,-1
 1268 1493 l 1,10,-1
 1790 1493 l 1,11,-1
 1790 1372 l 1,12,-1
 1599 1372 l 1,13,-1
 1599 0 l 1,14,-1
 1337 0 l 1,15,-1
 422 1079 l 1,16,-1
 422 121 l 1,17,-1
 612 121 l 1,18,-1
 612 0 l 1,19,-1
 90 0 l 1,0,-1
EndSplineSet
EndChar
StartChar: O
Encoding: 79 79 79
Width: 1784
Flags: W
AnchorPoint: "below" 893 0 basechar 0
AnchorPoint: "above" 893 1465 basechar 0
Fore
891 92 m 0,0,1
 1082 92 1082 92 1175 253 c 128,-1,2
 1268 414 1268 414 1268 745 c 0,3,4
 1268 1077 1268 1077 1175 1238 c 128,-1,5
 1082 1399 1082 1399 891 1399 c 0,6,7
 701 1399 701 1399 607.5 1236.5 c 128,-1,8
 514 1074 514 1074 514 745 c 0,9,10
 514 417 514 417 607.5 254.5 c 128,-1,11
 701 92 701 92 891 92 c 0,0,1
891 -29 m 0,12,13
 514 -29 514 -29 300 177 c 128,-1,14
 86 383 86 383 86 745 c 0,15,16
 86 1107 86 1107 300.5 1313.5 c 128,-1,17
 515 1520 515 1520 891 1520 c 0,18,19
 1268 1520 1268 1520 1482 1314 c 128,-1,20
 1696 1108 1696 1108 1696 745 c 0,21,22
 1696 383 1696 383 1481.5 177 c 128,-1,23
 1267 -29 1267 -29 891 -29 c 0,12,13
EndSplineSet
EndChar
StartChar: P
Encoding: 80 80 80
Width: 1540
Flags: W
AnchorPoint: "below" 479 0 basechar 0
AnchorPoint: "above" 865 1465 basechar 0
Fore
96 0 m 1,0,-1
 96 121 l 1,1,-1
 287 121 l 1,2,-1
 287 1372 l 1,3,-1
 96 1372 l 1,4,-1
 96 1493 l 1,5,-1
 946 1493 l 2,6,7
 1195 1493 1195 1493 1342 1374.5 c 128,-1,8
 1489 1256 1489 1256 1489 1057 c 0,9,10
 1489 857 1489 857 1341.5 737.5 c 128,-1,11
 1194 618 1194 618 946 618 c 2,12,-1
 672 618 l 1,13,-1
 672 121 l 1,14,-1
 913 121 l 1,15,-1
 913 0 l 1,16,-1
 96 0 l 1,0,-1
672 739 m 1,17,-1
 784 739 l 2,18,19
 914 739 914 739 991.5 825.5 c 128,-1,20
 1069 912 1069 912 1069 1057 c 0,21,22
 1069 1201 1069 1201 992 1286.5 c 128,-1,23
 915 1372 915 1372 784 1372 c 2,24,-1
 672 1372 l 1,25,-1
 672 739 l 1,17,-1
EndSplineSet
EndChar
StartChar: Q
Encoding: 81 81 81
Width: 1784
Flags: W
AnchorPoint: "above" 893 1465 basechar 0
AnchorPoint: "below" 893 -369 basechar 0
Fore
885 -29 m 1,0,1
 507 -23 507 -23 296.5 181 c 128,-1,2
 86 385 86 385 86 745 c 0,3,4
 86 1107 86 1107 300.5 1313.5 c 128,-1,5
 515 1520 515 1520 891 1520 c 0,6,7
 1268 1520 1268 1520 1482 1314 c 128,-1,8
 1696 1108 1696 1108 1696 745 c 0,9,10
 1696 427 1696 427 1531.5 229 c 128,-1,11
 1367 31 1367 31 1063 -16 c 1,12,13
 1116 -73 1116 -73 1192 -98 c 128,-1,14
 1268 -123 1268 -123 1389 -123 c 2,15,-1
 1440 -123 l 1,16,-1
 1440 -369 l 1,17,-1
 1411 -369 l 2,18,19
 1221 -369 1221 -369 1094 -287 c 128,-1,20
 967 -205 967 -205 885 -29 c 1,0,1
891 92 m 0,21,22
 1082 92 1082 92 1175 253 c 128,-1,23
 1268 414 1268 414 1268 745 c 0,24,25
 1268 1077 1268 1077 1175 1238 c 128,-1,26
 1082 1399 1082 1399 891 1399 c 0,27,28
 701 1399 701 1399 607.5 1236.5 c 128,-1,29
 514 1074 514 1074 514 745 c 0,30,31
 514 417 514 417 607.5 254.5 c 128,-1,32
 701 92 701 92 891 92 c 0,21,22
EndSplineSet
EndChar
StartChar: R
Encoding: 82 82 82
Width: 1702
Flags: W
AnchorPoint: "below" 865 0 basechar 0
AnchorPoint: "above" 865 1465 basechar 0
Fore
1087 729 m 1,0,1
 1176 716 1176 716 1237 670 c 128,-1,2
 1298 624 1298 624 1343 537 c 2,3,-1
 1561 121 l 1,4,-1
 1714 121 l 1,5,-1
 1714 0 l 1,6,-1
 1223 0 l 1,7,-1
 985 451 l 1,8,9
 916 591 916 591 867.5 629.5 c 128,-1,10
 819 668 819 668 733 668 c 2,11,-1
 672 668 l 1,12,-1
 672 121 l 1,13,-1
 864 121 l 1,14,-1
 864 0 l 1,15,-1
 96 0 l 1,16,-1
 96 121 l 1,17,-1
 287 121 l 1,18,-1
 287 1372 l 1,19,-1
 96 1372 l 1,20,-1
 96 1493 l 1,21,-1
 948 1493 l 2,22,23
 1208 1493 1208 1493 1349.5 1388.5 c 128,-1,24
 1491 1284 1491 1284 1491 1092 c 0,25,26
 1491 936 1491 936 1390.5 845.5 c 128,-1,27
 1290 755 1290 755 1087 729 c 1,0,1
672 788 m 1,28,-1
 803 788 l 2,29,30
 943 788 943 788 1018.5 864 c 128,-1,31
 1094 940 1094 940 1094 1081 c 0,32,33
 1094 1222 1094 1222 1018.5 1297 c 128,-1,34
 943 1372 943 1372 803 1372 c 2,35,-1
 672 1372 l 1,36,-1
 672 788 l 1,28,-1
EndSplineSet
EndChar
StartChar: S
Encoding: 83 83 83
Width: 1479
Flags: W
AnchorPoint: "below" 729 0 basechar 0
AnchorPoint: "above" 729 1465 basechar 0
Fore
158 72 m 1,0,-1
 158 426 l 1,1,-1
 285 426 l 1,2,3
 314 258 314 258 422 175 c 128,-1,4
 530 92 530 92 721 92 c 0,5,6
 876 92 876 92 957 151 c 128,-1,7
 1038 210 1038 210 1038 324 c 0,8,9
 1038 414 1038 414 983 464 c 128,-1,10
 928 514 928 514 756 557 c 2,11,-1
 532 612 l 1,12,13
 313 668 313 668 224 767.5 c 128,-1,14
 135 867 135 867 135 1051 c 0,15,16
 135 1273 135 1273 282.5 1396.5 c 128,-1,17
 430 1520 430 1520 696 1520 c 0,18,19
 827 1520 827 1520 968.5 1498 c 128,-1,20
 1110 1476 1110 1476 1262 1432 c 1,21,-1
 1262 1102 l 1,22,-1
 1135 1102 l 1,23,24
 1106 1256 1106 1256 1008 1327.5 c 128,-1,25
 910 1399 910 1399 729 1399 c 0,26,27
 581 1399 581 1399 505.5 1347.5 c 128,-1,28
 430 1296 430 1296 430 1194 c 0,29,30
 430 1101 430 1101 482 1052.5 c 128,-1,31
 534 1004 534 1004 737 952 c 1,32,-1
 961 897 l 2,33,34
 1169 845 1169 845 1262.5 735 c 128,-1,35
 1356 625 1356 625 1356 432 c 0,36,37
 1356 206 1356 206 1200 88.5 c 128,-1,38
 1044 -29 1044 -29 741 -29 c 0,39,40
 595 -29 595 -29 451 -4 c 128,-1,41
 307 21 307 21 158 72 c 1,0,-1
EndSplineSet
EndChar
StartChar: T
Encoding: 84 84 84
Width: 1524
Flags: W
AnchorPoint: "below" 769 0 basechar 0
AnchorPoint: "above" 769 1465 basechar 0
Fore
371 0 m 1,0,-1
 371 121 l 1,1,-1
 569 121 l 1,2,-1
 569 1356 l 1,3,-1
 160 1356 l 1,4,-1
 160 1120 l 1,5,-1
 23 1120 l 1,6,-1
 23 1493 l 1,7,-1
 1503 1493 l 1,8,-1
 1503 1120 l 1,9,-1
 1368 1120 l 1,10,-1
 1368 1356 l 1,11,-1
 956 1356 l 1,12,-1
 956 121 l 1,13,-1
 1155 121 l 1,14,-1
 1155 0 l 1,15,-1
 371 0 l 1,0,-1
EndSplineSet
EndChar
StartChar: U
Encoding: 85 85 85
Width: 1786
Flags: W
AnchorPoint: "below" 944 0 basechar 0
AnchorPoint: "above" 944 1465 basechar 0
Fore
260 1372 m 1,0,-1
 70 1372 l 1,1,-1
 70 1493 l 1,2,-1
 838 1493 l 1,3,-1
 838 1372 l 1,4,-1
 647 1372 l 1,5,-1
 647 625 l 2,6,7
 647 346 647 346 734 234.5 c 128,-1,8
 821 123 821 123 1032 123 c 0,9,10
 1238 123 1238 123 1324.5 235.5 c 128,-1,11
 1411 348 1411 348 1411 625 c 2,12,-1
 1411 1372 l 1,13,-1
 1221 1372 l 1,14,-1
 1221 1493 l 1,15,-1
 1741 1493 l 1,16,-1
 1741 1372 l 1,17,-1
 1550 1372 l 1,18,-1
 1550 604 l 2,19,20
 1550 262 1550 262 1402 116.5 c 128,-1,21
 1254 -29 1254 -29 905 -29 c 0,22,23
 558 -29 558 -29 409 118 c 128,-1,24
 260 265 260 265 260 606 c 2,25,-1
 260 1372 l 1,0,-1
EndSplineSet
EndChar
StartChar: V
Encoding: 86 86 86
Width: 1589
Flags: W
AnchorPoint: "above" 794 1465 basechar 0
AnchorPoint: "below" 794 0 basechar 0
Fore
1618 1493 m 1,0,-1
 1618 1372 l 1,1,-1
 1493 1372 l 1,2,-1
 930 0 l 1,3,-1
 692 0 l 1,4,-1
 129 1372 l 1,5,-1
 -12 1372 l 1,6,-1
 -12 1493 l 1,7,-1
 688 1493 l 1,8,-1
 688 1372 l 1,9,-1
 543 1372 l 1,10,-1
 946 383 l 1,11,-1
 1352 1372 l 1,12,-1
 1174 1372 l 1,13,-1
 1174 1493 l 1,14,-1
 1618 1493 l 1,0,-1
EndSplineSet
EndChar
StartChar: W
Encoding: 87 87 87
Width: 2300
Flags: W
AnchorPoint: "below" 1153 5 basechar 0
AnchorPoint: "above" 1153 1465 basechar 0
Fore
1745 0 m 1,0,-1
 1487 0 l 1,1,-1
 1149 1087 l 1,2,-1
 811 0 l 1,3,-1
 553 0 l 1,4,-1
 127 1372 l 1,5,-1
 -18 1372 l 1,6,-1
 -18 1493 l 1,7,-1
 690 1493 l 1,8,-1
 690 1372 l 1,9,-1
 530 1372 l 1,10,-1
 815 455 l 1,11,-1
 1137 1493 l 1,12,-1
 1421 1493 l 1,13,-1
 1749 438 l 1,14,-1
 2040 1372 l 1,15,-1
 1862 1372 l 1,16,-1
 1862 1493 l 1,17,-1
 2324 1493 l 1,18,-1
 2324 1372 l 1,19,-1
 2171 1372 l 1,20,-1
 1745 0 l 1,0,-1
EndSplineSet
EndChar
StartChar: X
Encoding: 88 88 88
Width: 1589
Flags: W
AnchorPoint: "below" 794 0 basechar 0
AnchorPoint: "above" 794 1465 basechar 0
Fore
694 575 m 1,0,-1
 383 121 l 1,1,-1
 567 121 l 1,2,-1
 567 0 l 1,3,-1
 37 0 l 1,4,-1
 37 121 l 1,5,-1
 221 121 l 1,6,-1
 614 692 l 1,7,-1
 147 1372 l 1,8,-1
 10 1372 l 1,9,-1
 10 1493 l 1,10,-1
 752 1493 l 1,11,-1
 752 1372 l 1,12,-1
 588 1372 l 1,13,-1
 877 952 l 1,14,-1
 1163 1372 l 1,15,-1
 989 1372 l 1,16,-1
 989 1493 l 1,17,-1
 1509 1493 l 1,18,-1
 1509 1372 l 1,19,-1
 1325 1372 l 1,20,-1
 956 836 l 1,21,-1
 1446 121 l 1,22,-1
 1587 121 l 1,23,-1
 1587 0 l 1,24,-1
 842 0 l 1,25,-1
 842 121 l 1,26,-1
 1008 121 l 1,27,-1
 694 575 l 1,0,-1
EndSplineSet
EndChar
StartChar: Y
Encoding: 89 89 89
Width: 1462
Flags: W
AnchorPoint: "below" 731 0 basechar 0
AnchorPoint: "above" 731 1465 basechar 0
Fore
352 0 m 1,0,-1
 352 121 l 1,1,-1
 553 121 l 1,2,-1
 553 618 l 1,3,-1
 109 1372 l 1,4,-1
 -18 1372 l 1,5,-1
 -18 1493 l 1,6,-1
 698 1493 l 1,7,-1
 698 1372 l 1,8,-1
 532 1372 l 1,9,-1
 868 803 l 1,10,-1
 1202 1372 l 1,11,-1
 1053 1372 l 1,12,-1
 1053 1493 l 1,13,-1
 1481 1493 l 1,14,-1
 1481 1372 l 1,15,-1
 1354 1372 l 1,16,-1
 940 670 l 1,17,-1
 940 121 l 1,18,-1
 1141 121 l 1,19,-1
 1141 0 l 1,20,-1
 352 0 l 1,0,-1
EndSplineSet
EndChar
StartChar: Z
Encoding: 90 90 90
Width: 1495
Flags: W
AnchorPoint: "below" 748 0 basechar 0
AnchorPoint: "above" 748 1465 basechar 0
Fore
76 0 m 1,0,-1
 76 141 l 1,1,-1
 967 1356 l 1,2,-1
 252 1356 l 1,3,-1
 252 1133 l 1,4,-1
 115 1133 l 1,5,-1
 115 1493 l 1,6,-1
 1411 1493 l 1,7,-1
 1411 1352 l 1,8,-1
 530 137 l 1,9,-1
 1284 137 l 1,10,-1
 1284 346 l 1,11,-1
 1421 346 l 1,12,-1
 1421 0 l 1,13,-1
 76 0 l 1,0,-1
EndSplineSet
EndChar
StartChar: bracketleft
Encoding: 91 91 91
Width: 969
Flags: W
Fore
256 1556 m 1,0,-1
 823 1556 l 1,1,-1
 823 1436 l 1,2,-1
 610 1436 l 1,3,-1
 610 -150 l 1,4,-1
 823 -150 l 1,5,-1
 823 -270 l 1,6,-1
 256 -270 l 1,7,-1
 256 1556 l 1,0,-1
EndSplineSet
EndChar
StartChar: backslash
Encoding: 92 92 92
Width: 748
Flags: W
Fore
221 1493 m 1,0,-1
 748 -190 l 1,1,-1
 526 -190 l 1,2,-1
 0 1493 l 1,3,-1
 221 1493 l 1,0,-1
EndSplineSet
EndChar
StartChar: bracketright
Encoding: 93 93 93
Width: 969
Flags: W
Fore
713 1556 m 1,0,-1
 713 -270 l 1,1,-1
 145 -270 l 1,2,-1
 145 -150 l 1,3,-1
 358 -150 l 1,4,-1
 358 1436 l 1,5,-1
 145 1436 l 1,6,-1
 145 1556 l 1,7,-1
 713 1556 l 1,0,-1
EndSplineSet
EndChar
StartChar: asciicircum
Encoding: 94 94 94
Width: 1716
Flags: W
Fore
973 1493 m 1,0,-1
 1509 936 l 1,1,-1
 1296 936 l 1,2,-1
 858 1251 l 1,3,-1
 420 936 l 1,4,-1
 207 936 l 1,5,-1
 750 1493 l 1,6,-1
 973 1493 l 1,0,-1
EndSplineSet
EndChar
StartChar: underscore
Encoding: 95 95 95
Width: 1024
Flags: W
Fore
1024 -293 m 1,0,-1
 1024 -483 l 1,1,-1
 0 -483 l 1,2,-1
 0 -293 l 1,3,-1
 1024 -293 l 1,0,-1
EndSplineSet
EndChar
StartChar: grave
Encoding: 96 96 96
Width: 1024
Flags: W
Fore
420 1638 m 1,0,-1
 678 1262 l 1,1,-1
 514 1262 l 1,2,-1
 141 1638 l 1,3,-1
 420 1638 l 1,0,-1
EndSplineSet
EndChar
StartChar: a
Encoding: 97 97 97
Width: 1327
Flags: W
AnchorPoint: "below" 600 0 basechar 0
AnchorPoint: "above" 600 1092 basechar 0
Fore
1128 653 m 2,0,-1
 1128 121 l 1,1,-1
 1280 121 l 1,2,-1
 1280 0 l 1,3,-1
 774 0 l 1,4,-1
 774 135 l 1,5,6
 704 51 704 51 618 11 c 128,-1,7
 532 -29 532 -29 422 -29 c 0,8,9
 259 -29 259 -29 171.5 58.5 c 128,-1,10
 84 146 84 146 84 309 c 0,11,12
 84 488 84 488 209.5 577 c 128,-1,13
 335 666 335 666 588 666 c 2,14,-1
 774 666 l 1,15,-1
 774 729 l 2,16,17
 774 858 774 858 713 919.5 c 128,-1,18
 652 981 652 981 524 981 c 0,19,20
 418 981 418 981 360.5 937.5 c 128,-1,21
 303 894 303 894 279 795 c 1,22,-1
 166 795 l 1,23,-1
 166 1024 l 1,24,25
 261 1058 261 1058 363 1075 c 128,-1,26
 465 1092 465 1092 578 1092 c 0,27,28
 863 1092 863 1092 995.5 986 c 128,-1,29
 1128 880 1128 880 1128 653 c 2,0,-1
774 334 m 2,30,-1
 774 547 l 1,31,-1
 641 547 l 2,32,33
 542 547 542 547 489 493 c 128,-1,34
 436 439 436 439 436 338 c 0,35,36
 436 237 436 237 474.5 187 c 128,-1,37
 513 137 513 137 592 137 c 0,38,39
 674 137 674 137 724 191 c 128,-1,40
 774 245 774 245 774 334 c 2,30,-1
EndSplineSet
EndChar
StartChar: b
Encoding: 98 98 98
Width: 1432
Flags: W
AnchorPoint: "below" 673 0 basechar 0
AnchorPoint: "above" 324 1465 basechar 0
Fore
199 121 m 1,0,-1
 199 1436 l 1,1,-1
 47 1436 l 1,2,-1
 47 1556 l 1,3,-1
 553 1556 l 1,4,-1
 553 928 l 1,5,6
 598 1011 598 1011 674 1051.5 c 128,-1,7
 750 1092 750 1092 862 1092 c 0,8,9
 1089 1092 1089 1092 1219.5 942.5 c 128,-1,10
 1350 793 1350 793 1350 532 c 0,11,12
 1350 271 1350 271 1219.5 121 c 128,-1,13
 1089 -29 1089 -29 862 -29 c 0,14,15
 750 -29 750 -29 674 11.5 c 128,-1,16
 598 52 598 52 553 135 c 1,17,-1
 553 0 l 1,18,-1
 47 0 l 1,19,-1
 47 121 l 1,20,-1
 199 121 l 1,0,-1
553 479 m 2,21,22
 553 293 553 293 600.5 210 c 128,-1,23
 648 127 648 127 754 127 c 0,24,25
 863 127 863 127 907.5 215 c 128,-1,26
 952 303 952 303 952 532 c 0,27,28
 952 761 952 761 907.5 848.5 c 128,-1,29
 863 936 863 936 754 936 c 0,30,31
 648 936 648 936 600.5 853 c 128,-1,32
 553 770 553 770 553 584 c 2,33,-1
 553 479 l 2,21,22
EndSplineSet
EndChar
StartChar: c
Encoding: 99 99 99
Width: 1247
Flags: W
AnchorPoint: "below" 664 0 basechar 0
AnchorPoint: "above" 664 1092 basechar 0
Fore
1155 332 m 1,0,1
 1117 150 1117 150 999.5 60.5 c 128,-1,2
 882 -29 882 -29 680 -29 c 0,3,4
 396 -29 396 -29 240 118 c 128,-1,5
 84 265 84 265 84 532 c 0,6,7
 84 796 84 796 238 944 c 128,-1,8
 392 1092 392 1092 666 1092 c 0,9,10
 777 1092 777 1092 890 1071 c 128,-1,11
 1003 1050 1003 1050 1120 1008 c 1,12,-1
 1120 713 l 1,13,-1
 1008 713 l 1,14,15
 992 848 992 848 929 913.5 c 128,-1,16
 866 979 866 979 752 979 c 0,17,18
 604 979 604 979 541.5 879 c 128,-1,19
 479 779 479 779 479 532 c 0,20,21
 479 291 479 291 540 187.5 c 128,-1,22
 601 84 601 84 739 84 c 0,23,24
 846 84 846 84 910.5 148 c 128,-1,25
 975 212 975 212 989 332 c 1,26,-1
 1155 332 l 1,0,1
EndSplineSet
EndChar
StartChar: d
Encoding: 100 100 100
Width: 1432
Flags: W
AnchorPoint: "below" 681 0 basechar 0
AnchorPoint: "above" 979 1465 basechar 0
Fore
879 479 m 2,0,-1
 879 584 l 2,1,2
 879 770 879 770 831 853 c 128,-1,3
 783 936 783 936 678 936 c 0,4,5
 568 936 568 936 523.5 848.5 c 128,-1,6
 479 761 479 761 479 532 c 0,7,8
 479 303 479 303 524 215 c 128,-1,9
 569 127 569 127 678 127 c 0,10,11
 783 127 783 127 831 210 c 128,-1,12
 879 293 879 293 879 479 c 2,0,-1
1233 121 m 1,13,-1
 1384 121 l 1,14,-1
 1384 0 l 1,15,-1
 879 0 l 1,16,-1
 879 135 l 1,17,18
 834 52 834 52 757.5 11.5 c 128,-1,19
 681 -29 681 -29 569 -29 c 0,20,21
 343 -29 343 -29 213.5 121 c 128,-1,22
 84 271 84 271 84 532 c 0,23,24
 84 794 84 794 213.5 943 c 128,-1,25
 343 1092 343 1092 569 1092 c 0,26,27
 681 1092 681 1092 757.5 1051.5 c 128,-1,28
 834 1011 834 1011 879 928 c 1,29,-1
 879 1436 l 1,30,-1
 727 1436 l 1,31,-1
 727 1556 l 1,32,-1
 1233 1556 l 1,33,-1
 1233 121 l 1,13,-1
EndSplineSet
EndChar
StartChar: e
Encoding: 101 101 101
Width: 1303
Flags: W
AnchorPoint: "below" 651 0 basechar 0
AnchorPoint: "above" 651 1092 basechar 0
Fore
821 600 m 1,0,1
 821 810 821 810 782 894.5 c 128,-1,2
 743 979 743 979 649 979 c 0,3,4
 558 979 558 979 518.5 896 c 128,-1,5
 479 813 479 813 479 618 c 2,6,-1
 479 600 l 1,7,-1
 821 600 l 1,0,1
1210 481 m 1,8,-1
 479 481 l 1,9,-1
 479 473 l 2,10,11
 479 267 479 267 541 175.5 c 128,-1,12
 603 84 603 84 741 84 c 0,13,14
 856 84 856 84 927 145 c 128,-1,15
 998 206 998 206 1018 322 c 1,16,-1
 1184 322 l 1,17,18
 1141 141 1141 141 1013 56 c 128,-1,19
 885 -29 885 -29 655 -29 c 0,20,21
 379 -29 379 -29 231.5 116.5 c 128,-1,22
 84 262 84 262 84 532 c 0,23,24
 84 796 84 796 235 944 c 128,-1,25
 386 1092 386 1092 655 1092 c 0,26,27
 919 1092 919 1092 1060 936.5 c 128,-1,28
 1201 781 1201 781 1210 481 c 1,8,-1
EndSplineSet
EndChar
StartChar: f
Encoding: 102 102 102
Width: 881
Flags: W
AnchorPoint: "below" 381 0 basechar 0
AnchorPoint: "above" 579 1465 basechar 0
Fore
991 1290 m 1,0,-1
 879 1290 l 1,1,2
 871 1368 871 1368 833.5 1406 c 128,-1,3
 796 1444 796 1444 727 1444 c 0,4,5
 647 1444 647 1444 611 1386.5 c 128,-1,6
 575 1329 575 1329 575 1200 c 2,7,-1
 575 1063 l 1,8,-1
 842 1063 l 1,9,-1
 842 942 l 1,10,-1
 575 942 l 1,11,-1
 575 121 l 1,12,-1
 780 121 l 1,13,-1
 780 0 l 1,14,-1
 70 0 l 1,15,-1
 70 121 l 1,16,-1
 221 121 l 1,17,-1
 221 942 l 1,18,-1
 63 942 l 1,19,-1
 63 1063 l 1,20,-1
 221 1063 l 1,21,-1
 221 1196 l 2,22,23
 221 1373 221 1373 334 1464.5 c 128,-1,24
 447 1556 447 1556 666 1556 c 0,25,26
 751 1556 751 1556 832 1546.5 c 128,-1,27
 913 1537 913 1537 991 1518 c 1,28,-1
 991 1290 l 1,0,-1
EndSplineSet
EndChar
StartChar: g
Encoding: 103 103 103
Width: 1432
Flags: W
AnchorPoint: "below" 678 -430 basechar 0
AnchorPoint: "above" 678 1092 basechar 0
Fore
1233 942 m 1,0,-1
 1233 14 l 2,1,2
 1233 -210 1233 -210 1073.5 -332.5 c 128,-1,3
 914 -455 914 -455 623 -455 c 0,4,5
 517 -455 517 -455 408 -438.5 c 128,-1,6
 299 -422 299 -422 184 -389 c 1,7,-1
 184 -135 l 1,8,-1
 297 -135 l 1,9,10
 312 -240 312 -240 381.5 -291 c 128,-1,11
 451 -342 451 -342 580 -342 c 0,12,13
 744 -342 744 -342 811.5 -263.5 c 128,-1,14
 879 -185 879 -185 879 14 c 2,15,-1
 879 135 l 1,16,17
 834 52 834 52 757.5 11.5 c 128,-1,18
 681 -29 681 -29 569 -29 c 0,19,20
 343 -29 343 -29 213.5 121 c 128,-1,21
 84 271 84 271 84 532 c 0,22,23
 84 794 84 794 213.5 943 c 128,-1,24
 343 1092 343 1092 569 1092 c 0,25,26
 681 1092 681 1092 757.5 1051.5 c 128,-1,27
 834 1011 834 1011 879 928 c 1,28,-1
 879 1063 l 1,29,-1
 1384 1063 l 1,30,-1
 1384 942 l 1,31,-1
 1233 942 l 1,0,-1
879 584 m 2,32,33
 879 770 879 770 831 853 c 128,-1,34
 783 936 783 936 678 936 c 0,35,36
 568 936 568 936 523.5 848.5 c 128,-1,37
 479 761 479 761 479 532 c 0,38,39
 479 303 479 303 524 215 c 128,-1,40
 569 127 569 127 678 127 c 0,41,42
 783 127 783 127 831 210 c 128,-1,43
 879 293 879 293 879 479 c 2,44,-1
 879 584 l 2,32,33
EndSplineSet
EndChar
StartChar: h
Encoding: 104 104 104
Width: 1489
Flags: W
AnchorPoint: "below" 755 0 basechar 0
AnchorPoint: "above" 324 1465 basechar 0
Fore
70 0 m 1,0,-1
 70 121 l 1,1,-1
 221 121 l 1,2,-1
 221 1436 l 1,3,-1
 63 1436 l 1,4,-1
 63 1556 l 1,5,-1
 575 1556 l 1,6,-1
 575 913 l 1,7,8
 639 1008 639 1008 721 1050 c 128,-1,9
 803 1092 803 1092 928 1092 c 0,10,11
 1107 1092 1107 1092 1198.5 986.5 c 128,-1,12
 1290 881 1290 881 1290 676 c 2,13,-1
 1290 121 l 1,14,-1
 1442 121 l 1,15,-1
 1442 0 l 1,16,-1
 807 0 l 1,17,-1
 807 121 l 1,18,-1
 936 121 l 1,19,-1
 936 686 l 2,20,21
 936 821 936 821 901.5 873.5 c 128,-1,22
 867 926 867 926 782 926 c 0,23,24
 675 926 675 926 625 847.5 c 128,-1,25
 575 769 575 769 575 598 c 2,26,-1
 575 121 l 1,27,-1
 705 121 l 1,28,-1
 705 0 l 1,29,-1
 70 0 l 1,0,-1
EndSplineSet
EndChar
StartChar: i
Encoding: 105 105 105
Width: 778
Flags: W
AnchorPoint: "below" 381 0 basechar 0
AnchorPoint: "above" 381 1585 basechar 0
Fore
188 1364 m 0,0,1
 188 1445 188 1445 244 1500.5 c 128,-1,2
 300 1556 300 1556 381 1556 c 0,3,4
 460 1556 460 1556 515.5 1500.5 c 128,-1,5
 571 1445 571 1445 571 1364 c 0,6,7
 571 1285 571 1285 515.5 1229.5 c 128,-1,8
 460 1174 460 1174 381 1174 c 0,9,10
 300 1174 300 1174 244 1229 c 128,-1,11
 188 1284 188 1284 188 1364 c 0,0,1
575 121 m 1,12,-1
 727 121 l 1,13,-1
 727 0 l 1,14,-1
 70 0 l 1,15,-1
 70 121 l 1,16,-1
 221 121 l 1,17,-1
 221 942 l 1,18,-1
 70 942 l 1,19,-1
 70 1063 l 1,20,-1
 575 1063 l 1,21,-1
 575 121 l 1,12,-1
EndSplineSet
Substitution2: "Single Substitution - Dotless Form" dotlessi
EndChar
StartChar: j
Encoding: 106 106 106
Width: 741
Flags: W
AnchorPoint: "below" 219 -430 basechar 0
AnchorPoint: "above" 371 1585 basechar 0
Fore
178 1364 m 0,0,1
 178 1445 178 1445 233.5 1500.5 c 128,-1,2
 289 1556 289 1556 371 1556 c 0,3,4
 449 1556 449 1556 505 1500 c 128,-1,5
 561 1444 561 1444 561 1364 c 0,6,7
 561 1285 561 1285 505.5 1229.5 c 128,-1,8
 450 1174 450 1174 371 1174 c 0,9,10
 290 1174 290 1174 234 1229 c 128,-1,11
 178 1284 178 1284 178 1364 c 0,0,1
219 942 m 1,12,-1
 68 942 l 1,13,-1
 68 1063 l 1,14,-1
 573 1063 l 1,15,-1
 573 -125 l 2,16,17
 573 -288 573 -288 457.5 -371.5 c 128,-1,18
 342 -455 342 -455 117 -455 c 0,19,20
 57 -455 57 -455 -11 -445 c 128,-1,21
 -79 -435 -79 -435 -152 -416 c 1,22,-1
 -152 -190 l 1,23,-1
 -39 -191 l 1,24,25
 -37 -271 -37 -271 -7.5 -306.5 c 128,-1,26
 22 -342 22 -342 88 -342 c 0,27,28
 161 -342 161 -342 190 -295 c 128,-1,29
 219 -248 219 -248 219 -125 c 2,30,-1
 219 942 l 1,12,-1
EndSplineSet
Substitution2: "Single Substitution - Dotless Form" dotlessj
EndChar
StartChar: k
Encoding: 107 107 107
Width: 1419
Flags: W
AnchorPoint: "below" 755 0 basechar 0
AnchorPoint: "above" 324 1465 basechar 0
Fore
709 0 m 1,0,-1
 70 0 l 1,1,-1
 70 121 l 1,2,-1
 221 121 l 1,3,-1
 221 1436 l 1,4,-1
 70 1436 l 1,5,-1
 70 1556 l 1,6,-1
 575 1556 l 1,7,-1
 575 557 l 1,8,-1
 1004 942 l 1,9,-1
 877 942 l 1,10,-1
 877 1063 l 1,11,-1
 1362 1063 l 1,12,-1
 1362 942 l 1,13,-1
 1165 942 l 1,14,-1
 891 696 l 1,15,-1
 1339 121 l 1,16,-1
 1454 121 l 1,17,-1
 1454 0 l 1,18,-1
 844 0 l 1,19,-1
 844 121 l 1,20,-1
 969 121 l 1,21,-1
 674 500 l 1,22,-1
 575 412 l 1,23,-1
 575 121 l 1,24,-1
 709 121 l 1,25,-1
 709 0 l 1,0,-1
EndSplineSet
EndChar
StartChar: l
Encoding: 108 108 108
Width: 778
Flags: W
AnchorPoint: "below" 381 0 basechar 0
AnchorPoint: "above" 324 1465 basechar 0
Fore
575 121 m 1,0,-1
 727 121 l 1,1,-1
 727 0 l 1,2,-1
 70 0 l 1,3,-1
 70 121 l 1,4,-1
 221 121 l 1,5,-1
 221 1436 l 1,6,-1
 70 1436 l 1,7,-1
 70 1556 l 1,8,-1
 575 1556 l 1,9,-1
 575 121 l 1,0,-1
EndSplineSet
EndChar
StartChar: m
Encoding: 109 109 109
Width: 2167
Flags: W
AnchorPoint: "above" 1095 1092 basechar 0
AnchorPoint: "below" 1095 0 basechar 0
Fore
1243 889 m 1,0,1
 1317 995 1317 995 1403 1043.5 c 128,-1,2
 1489 1092 1489 1092 1604 1092 c 0,3,4
 1787 1092 1787 1092 1877.5 988.5 c 128,-1,5
 1968 885 1968 885 1968 676 c 2,6,-1
 1968 121 l 1,7,-1
 2120 121 l 1,8,-1
 2120 0 l 1,9,-1
 1487 0 l 1,10,-1
 1487 121 l 1,11,-1
 1614 121 l 1,12,-1
 1614 623 l 2,13,14
 1614 822 1614 822 1583.5 874 c 128,-1,15
 1553 926 1553 926 1470 926 c 0,16,17
 1376 926 1376 926 1324 853.5 c 128,-1,18
 1272 781 1272 781 1272 647 c 2,19,-1
 1272 121 l 1,20,-1
 1399 121 l 1,21,-1
 1399 0 l 1,22,-1
 791 0 l 1,23,-1
 791 121 l 1,24,-1
 918 121 l 1,25,-1
 918 623 l 2,26,27
 918 822 918 822 887 874 c 128,-1,28
 856 926 856 926 774 926 c 0,29,30
 679 926 679 926 627 853.5 c 128,-1,31
 575 781 575 781 575 647 c 2,32,-1
 575 121 l 1,33,-1
 702 121 l 1,34,-1
 702 0 l 1,35,-1
 70 0 l 1,36,-1
 70 121 l 1,37,-1
 221 121 l 1,38,-1
 221 942 l 1,39,-1
 70 942 l 1,40,-1
 70 1063 l 1,41,-1
 575 1063 l 1,42,-1
 575 913 l 1,43,44
 637 1006 637 1006 717 1049 c 128,-1,45
 797 1092 797 1092 907 1092 c 0,46,47
 1037 1092 1037 1092 1118 1042.5 c 128,-1,48
 1199 993 1199 993 1243 889 c 1,0,1
EndSplineSet
EndChar
StartChar: n
Encoding: 110 110 110
Width: 1489
Flags: W
AnchorPoint: "below" 755 0 basechar 0
AnchorPoint: "above" 664 1092 basechar 0
Fore
70 0 m 1,0,-1
 70 121 l 1,1,-1
 221 121 l 1,2,-1
 221 942 l 1,3,-1
 70 942 l 1,4,-1
 70 1063 l 1,5,-1
 575 1063 l 1,6,-1
 575 913 l 1,7,8
 639 1008 639 1008 721 1050 c 128,-1,9
 803 1092 803 1092 928 1092 c 0,10,11
 1107 1092 1107 1092 1198.5 986.5 c 128,-1,12
 1290 881 1290 881 1290 676 c 2,13,-1
 1290 121 l 1,14,-1
 1442 121 l 1,15,-1
 1442 0 l 1,16,-1
 807 0 l 1,17,-1
 807 121 l 1,18,-1
 936 121 l 1,19,-1
 936 686 l 2,20,21
 936 821 936 821 901.5 873.5 c 128,-1,22
 867 926 867 926 782 926 c 0,23,24
 675 926 675 926 625 847.5 c 128,-1,25
 575 769 575 769 575 598 c 2,26,-1
 575 121 l 1,27,-1
 705 121 l 1,28,-1
 705 0 l 1,29,-1
 70 0 l 1,0,-1
EndSplineSet
EndChar
StartChar: o
Encoding: 111 111 111
Width: 1366
Flags: W
AnchorPoint: "below" 684 0 basechar 0
AnchorPoint: "above" 684 1092 basechar 0
Fore
684 84 m 0,0,1
 796 84 796 84 841.5 180 c 128,-1,2
 887 276 887 276 887 532 c 0,3,4
 887 788 887 788 842 883.5 c 128,-1,5
 797 979 797 979 684 979 c 0,6,7
 571 979 571 979 525 882.5 c 128,-1,8
 479 786 479 786 479 532 c 0,9,10
 479 278 479 278 525 181 c 128,-1,11
 571 84 571 84 684 84 c 0,0,1
684 -29 m 0,12,13
 403 -29 403 -29 243.5 120.5 c 128,-1,14
 84 270 84 270 84 532 c 0,15,16
 84 795 84 795 243.5 943.5 c 128,-1,17
 403 1092 403 1092 684 1092 c 0,18,19
 966 1092 966 1092 1125 943.5 c 128,-1,20
 1284 795 1284 795 1284 532 c 0,21,22
 1284 270 1284 270 1124.5 120.5 c 128,-1,23
 965 -29 965 -29 684 -29 c 0,12,13
EndSplineSet
EndChar
StartChar: p
Encoding: 112 112 112
Width: 1432
Flags: W
AnchorPoint: "above" 754 1092 basechar 0
AnchorPoint: "below" 381 -430 basechar 0
Fore
553 584 m 2,0,-1
 553 479 l 2,1,2
 553 293 553 293 600.5 210 c 128,-1,3
 648 127 648 127 754 127 c 0,4,5
 863 127 863 127 907.5 215 c 128,-1,6
 952 303 952 303 952 532 c 0,7,8
 952 761 952 761 907.5 848.5 c 128,-1,9
 863 936 863 936 754 936 c 0,10,11
 648 936 648 936 600.5 853 c 128,-1,12
 553 770 553 770 553 584 c 2,0,-1
199 942 m 1,13,-1
 47 942 l 1,14,-1
 47 1063 l 1,15,-1
 553 1063 l 1,16,-1
 553 928 l 1,17,18
 598 1011 598 1011 674 1051.5 c 128,-1,19
 750 1092 750 1092 862 1092 c 0,20,21
 1089 1092 1089 1092 1219.5 942.5 c 128,-1,22
 1350 793 1350 793 1350 532 c 0,23,24
 1350 271 1350 271 1219.5 121 c 128,-1,25
 1089 -29 1089 -29 862 -29 c 0,26,27
 750 -29 750 -29 674 11.5 c 128,-1,28
 598 52 598 52 553 135 c 1,29,-1
 553 -305 l 1,30,-1
 717 -305 l 1,31,-1
 717 -426 l 1,32,-1
 47 -426 l 1,33,-1
 47 -305 l 1,34,-1
 199 -305 l 1,35,-1
 199 942 l 1,13,-1
EndSplineSet
EndChar
StartChar: q
Encoding: 113 113 113
Width: 1432
Flags: W
AnchorPoint: "above" 673 1092 basechar 0
AnchorPoint: "below" 1056 -430 basechar 0
Fore
1233 942 m 1,0,-1
 1233 -305 l 1,1,-1
 1384 -305 l 1,2,-1
 1384 -426 l 1,3,-1
 715 -426 l 1,4,-1
 715 -305 l 1,5,-1
 879 -305 l 1,6,-1
 879 135 l 1,7,8
 834 52 834 52 757.5 11.5 c 128,-1,9
 681 -29 681 -29 569 -29 c 0,10,11
 343 -29 343 -29 213.5 121 c 128,-1,12
 84 271 84 271 84 532 c 0,13,14
 84 794 84 794 213.5 943 c 128,-1,15
 343 1092 343 1092 569 1092 c 0,16,17
 681 1092 681 1092 757.5 1051.5 c 128,-1,18
 834 1011 834 1011 879 928 c 1,19,-1
 879 1063 l 1,20,-1
 1384 1063 l 1,21,-1
 1384 942 l 1,22,-1
 1233 942 l 1,0,-1
879 584 m 2,23,24
 879 770 879 770 831 853 c 128,-1,25
 783 936 783 936 678 936 c 0,26,27
 568 936 568 936 523.5 848.5 c 128,-1,28
 479 761 479 761 479 532 c 0,29,30
 479 303 479 303 524 215 c 128,-1,31
 569 127 569 127 678 127 c 0,32,33
 783 127 783 127 831 210 c 128,-1,34
 879 293 879 293 879 479 c 2,35,-1
 879 584 l 2,23,24
EndSplineSet
EndChar
StartChar: r
Encoding: 114 114 114
Width: 1079
Flags: W
AnchorPoint: "below" 381 0 basechar 0
AnchorPoint: "above" 664 1092 basechar 0
Fore
1100 1075 m 1,0,-1
 1100 758 l 1,1,-1
 987 758 l 1,2,3
 981 843 981 843 941 884.5 c 128,-1,4
 901 926 901 926 825 926 c 0,5,6
 709 926 709 926 642 824 c 128,-1,7
 575 722 575 722 575 541 c 2,8,-1
 575 121 l 1,9,-1
 768 121 l 1,10,-1
 768 0 l 1,11,-1
 70 0 l 1,12,-1
 70 121 l 1,13,-1
 221 121 l 1,14,-1
 221 942 l 1,15,-1
 59 942 l 1,16,-1
 59 1063 l 1,17,-1
 575 1063 l 1,18,-1
 575 874 l 1,19,20
 627 985 627 985 712.5 1038.5 c 128,-1,21
 798 1092 798 1092 922 1092 c 0,22,23
 953 1092 953 1092 997.5 1087.5 c 128,-1,24
 1042 1083 1042 1083 1100 1075 c 1,0,-1
EndSplineSet
EndChar
StartChar: s
Encoding: 115 115 115
Width: 1153
Flags: W
AnchorPoint: "below" 578 0 basechar 0
AnchorPoint: "above" 578 1092 basechar 0
Fore
96 31 m 1,0,-1
 96 328 l 1,1,-1
 209 328 l 1,2,3
 223 209 223 209 298 146.5 c 128,-1,4
 373 84 373 84 502 84 c 0,5,6
 610 84 610 84 667.5 121.5 c 128,-1,7
 725 159 725 159 725 229 c 0,8,9
 725 293 725 293 688.5 328 c 128,-1,10
 652 363 652 363 547 389 c 2,11,-1
 401 426 l 2,12,13
 236 467 236 467 162 543.5 c 128,-1,14
 88 620 88 620 88 750 c 0,15,16
 88 923 88 923 208 1007.5 c 128,-1,17
 328 1092 328 1092 578 1092 c 0,18,19
 672 1092 672 1092 778.5 1076.5 c 128,-1,20
 885 1061 885 1061 1014 1028 c 1,21,-1
 1014 760 l 1,22,-1
 901 760 l 1,23,24
 892 869 892 869 823.5 924 c 128,-1,25
 755 979 755 979 627 979 c 0,26,27
 519 979 519 979 463.5 944.5 c 128,-1,28
 408 910 408 910 408 844 c 0,29,30
 408 790 408 790 440 759 c 128,-1,31
 472 728 472 728 555 707 c 2,32,-1
 700 670 l 2,33,34
 909 617 909 617 989 539 c 128,-1,35
 1069 461 1069 461 1069 322 c 0,36,37
 1069 142 1069 142 940.5 56.5 c 128,-1,38
 812 -29 812 -29 541 -29 c 0,39,40
 442 -29 442 -29 331 -14 c 128,-1,41
 220 1 220 1 96 31 c 1,0,-1
EndSplineSet
EndChar
StartChar: t
Encoding: 116 116 116
Width: 946
Flags: W
AnchorPoint: "below" 557 0 basechar 0
AnchorPoint: "above" 380 1465 basechar 0
Fore
203 942 m 1,0,-1
 49 942 l 1,1,-1
 49 1063 l 1,2,-1
 203 1063 l 1,3,-1
 203 1393 l 1,4,-1
 557 1393 l 1,5,-1
 557 1063 l 1,6,-1
 852 1063 l 1,7,-1
 852 942 l 1,8,-1
 557 942 l 1,9,-1
 557 291 l 2,10,11
 557 152 557 152 579 118 c 128,-1,12
 601 84 601 84 659 84 c 0,13,14
 723 84 723 84 754 127 c 128,-1,15
 785 170 785 170 787 260 c 1,16,-1
 936 260 l 1,17,18
 927 100 927 100 848.5 35.5 c 128,-1,19
 770 -29 770 -29 578 -29 c 0,20,21
 359 -29 359 -29 281 39.5 c 128,-1,22
 203 108 203 108 203 291 c 2,23,-1
 203 942 l 1,0,-1
EndSplineSet
EndChar
StartChar: u
Encoding: 117 117 117
Width: 1489
Flags: W
AnchorPoint: "below" 707 0 basechar 0
AnchorPoint: "above" 707 1092 basechar 0
Fore
1268 1063 m 1,0,-1
 1268 121 l 1,1,-1
 1419 121 l 1,2,-1
 1419 0 l 1,3,-1
 913 0 l 1,4,-1
 913 150 l 1,5,6
 850 55 850 55 768 13 c 128,-1,7
 686 -29 686 -29 561 -29 c 0,8,9
 382 -29 382 -29 290.5 76.5 c 128,-1,10
 199 182 199 182 199 387 c 2,11,-1
 199 942 l 1,12,-1
 47 942 l 1,13,-1
 47 1063 l 1,14,-1
 553 1063 l 1,15,-1
 553 442 l 2,16,17
 553 244 553 244 586 190.5 c 128,-1,18
 619 137 619 137 707 137 c 0,19,20
 814 137 814 137 863.5 216 c 128,-1,21
 913 295 913 295 913 467 c 2,22,-1
 913 942 l 1,23,-1
 784 942 l 1,24,-1
 784 1063 l 1,25,-1
 1268 1063 l 1,0,-1
EndSplineSet
EndChar
StartChar: v
Encoding: 118 118 118
Width: 1190
Flags: W
AnchorPoint: "below" 606 -5 basechar 0
AnchorPoint: "above" 606 1092 basechar 0
Fore
457 0 m 1,0,-1
 80 942 l 1,1,-1
 -37 942 l 1,2,-1
 -37 1063 l 1,3,-1
 573 1063 l 1,4,-1
 573 942 l 1,5,-1
 444 942 l 1,6,-1
 713 270 l 1,7,-1
 981 942 l 1,8,-1
 842 942 l 1,9,-1
 842 1063 l 1,10,-1
 1241 1063 l 1,11,-1
 1241 942 l 1,12,-1
 1118 942 l 1,13,-1
 741 0 l 1,14,-1
 457 0 l 1,0,-1
EndSplineSet
EndChar
StartChar: w
Encoding: 119 119 119
Width: 1763
Flags: W
AnchorPoint: "below" 893 0 basechar 0
AnchorPoint: "above" 893 1092 basechar 0
Fore
1104 1063 m 1,0,-1
 1346 354 l 1,1,-1
 1546 942 l 1,2,-1
 1407 942 l 1,3,-1
 1407 1063 l 1,4,-1
 1804 1063 l 1,5,-1
 1804 942 l 1,6,-1
 1679 942 l 1,7,-1
 1358 0 l 1,8,-1
 1114 0 l 1,9,-1
 889 666 l 1,10,-1
 662 0 l 1,11,-1
 420 0 l 1,12,-1
 98 942 l 1,13,-1
 -18 942 l 1,14,-1
 -18 1063 l 1,15,-1
 584 1063 l 1,16,-1
 584 942 l 1,17,-1
 459 942 l 1,18,-1
 655 367 l 1,19,-1
 893 1063 l 1,20,-1
 1104 1063 l 1,0,-1
EndSplineSet
EndChar
StartChar: x
Encoding: 120 120 120
Width: 1221
Flags: W
AnchorPoint: "below" 606 0 basechar 0
AnchorPoint: "above" 606 1092 basechar 0
Fore
719 678 m 1,0,-1
 907 942 l 1,1,-1
 776 942 l 1,2,-1
 776 1063 l 1,3,-1
 1190 1063 l 1,4,-1
 1190 942 l 1,5,-1
 1049 942 l 1,6,-1
 778 563 l 1,7,-1
 1094 121 l 1,8,-1
 1235 121 l 1,9,-1
 1235 0 l 1,10,-1
 559 0 l 1,11,-1
 559 121 l 1,12,-1
 696 121 l 1,13,-1
 496 401 l 1,14,-1
 295 121 l 1,15,-1
 438 121 l 1,16,-1
 438 0 l 1,17,-1
 0 0 l 1,18,-1
 0 121 l 1,19,-1
 152 121 l 1,20,-1
 434 518 l 1,21,-1
 129 942 l 1,22,-1
 10 942 l 1,23,-1
 10 1063 l 1,24,-1
 659 1063 l 1,25,-1
 659 942 l 1,26,-1
 530 942 l 1,27,-1
 719 678 l 1,0,-1
EndSplineSet
EndChar
StartChar: y
Encoding: 121 121 121
Width: 1190
Flags: W
AnchorPoint: "below" 606 -430 basechar 0
AnchorPoint: "above" 606 1092 basechar 0
Fore
639 -240 m 1,0,1
 591 -357 591 -357 523 -406 c 128,-1,2
 455 -455 455 -455 340 -455 c 0,3,4
 291 -455 291 -455 231 -444 c 128,-1,5
 171 -433 171 -433 100 -412 c 1,6,-1
 100 -190 l 1,7,-1
 213 -191 l 1,8,9
 216 -268 216 -268 249.5 -305 c 128,-1,10
 283 -342 283 -342 350 -342 c 0,11,12
 415 -342 415 -342 455 -306.5 c 128,-1,13
 495 -271 495 -271 535 -172 c 1,14,-1
 551 -135 l 1,15,-1
 88 942 l 1,16,-1
 -27 942 l 1,17,-1
 -27 1063 l 1,18,-1
 586 1063 l 1,19,-1
 586 942 l 1,20,-1
 459 942 l 1,21,-1
 729 313 l 1,22,-1
 981 942 l 1,23,-1
 840 942 l 1,24,-1
 840 1063 l 1,25,-1
 1239 1063 l 1,26,-1
 1239 942 l 1,27,-1
 1110 942 l 1,28,-1
 639 -240 l 1,0,1
EndSplineSet
EndChar
StartChar: z
Encoding: 122 122 122
Width: 1163
Flags: W
AnchorPoint: "below" 582 0 basechar 0
AnchorPoint: "above" 582 1092 basechar 0
Fore
72 0 m 1,0,-1
 72 121 l 1,1,-1
 682 946 l 1,2,-1
 223 946 l 1,3,-1
 223 764 l 1,4,-1
 104 764 l 1,5,-1
 104 1063 l 1,6,-1
 1094 1063 l 1,7,-1
 1094 944 l 1,8,-1
 483 119 l 1,9,-1
 975 119 l 1,10,-1
 975 311 l 1,11,-1
 1094 311 l 1,12,-1
 1094 0 l 1,13,-1
 72 0 l 1,0,-1
EndSplineSet
EndChar
StartChar: braceleft
Encoding: 123 123 123
Width: 1317
Flags: W
Fore
1133 -213 m 1,0,-1
 1133 -334 l 1,1,-1
 985 -334 l 2,2,3
 749 -334 749 -334 667 -309.5 c 128,-1,4
 585 -285 585 -285 535 -223 c 0,5,6
 506 -187 506 -187 493.5 -132 c 128,-1,7
 481 -77 481 -77 481 35 c 2,8,-1
 481 285 l 2,9,10
 481 436 481 436 427.5 493.5 c 128,-1,11
 374 551 374 551 233 551 c 2,12,-1
 172 551 l 1,13,-1
 172 672 l 1,14,-1
 233 672 l 2,15,16
 374 672 374 672 427.5 729.5 c 128,-1,17
 481 787 481 787 481 938 c 2,18,-1
 481 1188 l 2,19,20
 481 1300 481 1300 493.5 1354.5 c 128,-1,21
 506 1409 506 1409 535 1446 c 0,22,23
 585 1507 585 1507 667 1531.5 c 128,-1,24
 749 1556 749 1556 985 1556 c 2,25,-1
 1133 1556 l 1,26,-1
 1133 1436 l 1,27,-1
 1030 1436 l 2,28,29
 918 1436 918 1436 877 1389 c 128,-1,30
 836 1342 836 1342 836 1206 c 2,31,-1
 836 936 l 2,32,33
 836 777 836 777 786.5 709.5 c 128,-1,34
 737 642 737 642 608 612 c 1,35,36
 739 578 739 578 787.5 512 c 128,-1,37
 836 446 836 446 836 287 c 2,38,-1
 836 16 l 2,39,40
 836 -119 836 -119 877 -166 c 128,-1,41
 918 -213 918 -213 1030 -213 c 2,42,-1
 1133 -213 l 1,0,-1
EndSplineSet
EndChar
StartChar: bar
Encoding: 124 124 124
Width: 745
Flags: W
Fore
479 1565 m 1,0,-1
 479 -483 l 1,1,-1
 264 -483 l 1,2,-1
 264 1565 l 1,3,-1
 479 1565 l 1,0,-1
EndSplineSet
EndChar
StartChar: braceright
Encoding: 125 125 125
Width: 1317
Flags: W
Fore
186 -213 m 1,0,-1
 287 -213 l 2,1,2
 398 -213 398 -213 439.5 -166 c 128,-1,3
 481 -119 481 -119 481 16 c 2,4,-1
 481 287 l 2,5,6
 481 444 481 444 530 511 c 128,-1,7
 579 578 579 578 711 612 c 1,8,9
 581 642 581 642 531 710 c 128,-1,10
 481 778 481 778 481 936 c 2,11,-1
 481 1206 l 2,12,13
 481 1342 481 1342 439.5 1389 c 128,-1,14
 398 1436 398 1436 287 1436 c 2,15,-1
 186 1436 l 1,16,-1
 186 1556 l 1,17,-1
 332 1556 l 2,18,19
 568 1556 568 1556 650 1531.5 c 128,-1,20
 732 1507 732 1507 782 1446 c 0,21,22
 811 1409 811 1409 823.5 1354.5 c 128,-1,23
 836 1300 836 1300 836 1188 c 2,24,-1
 836 938 l 2,25,26
 836 787 836 787 889.5 729.5 c 128,-1,27
 943 672 943 672 1083 672 c 2,28,-1
 1145 672 l 1,29,-1
 1145 551 l 1,30,-1
 1083 551 l 2,31,32
 943 551 943 551 889.5 493.5 c 128,-1,33
 836 436 836 436 836 285 c 2,34,-1
 836 35 l 2,35,36
 836 -77 836 -77 823.5 -132 c 128,-1,37
 811 -187 811 -187 782 -223 c 0,38,39
 732 -285 732 -285 650 -309.5 c 128,-1,40
 568 -334 568 -334 332 -334 c 2,41,-1
 186 -334 l 1,42,-1
 186 -213 l 1,0,-1
EndSplineSet
EndChar
StartChar: asciitilde
Encoding: 126 126 126
Width: 1716
Flags: W
Fore
1499 831 m 1,0,-1
 1499 625 l 1,1,2
 1406 539 1406 539 1312.5 498 c 128,-1,3
 1219 457 1219 457 1118 457 c 0,4,5
 1023 457 1023 457 871 515 c 0,6,7
 854 521 854 521 846 524 c 0,8,9
 839 527 839 527 826 532 c 0,10,11
 654 598 654 598 557 598 c 0,12,13
 480 598 480 598 396.5 562 c 128,-1,14
 313 526 313 526 217 453 c 1,15,-1
 217 659 l 1,16,17
 313 746 313 746 405.5 786.5 c 128,-1,18
 498 827 498 827 598 827 c 0,19,20
 693 827 693 827 844 770 c 0,21,22
 862 763 862 763 870 760 c 2,23,-1
 885 754 l 2,24,25
 1058 686 1058 686 1159 686 c 0,26,27
 1236 686 1236 686 1319.5 722 c 128,-1,28
 1403 758 1403 758 1499 831 c 1,0,-1
EndSplineSet
EndChar
StartChar: exclamdown
Encoding: 161 161 161
Width: 899
Flags: W
Fore
639 1329 m 0,0,1
 639 1251 639 1251 583 1196 c 128,-1,2
 527 1141 527 1141 449 1141 c 0,3,4
 370 1141 370 1141 315 1196 c 128,-1,5
 260 1251 260 1251 260 1329 c 0,6,7
 260 1408 260 1408 315.5 1464 c 128,-1,8
 371 1520 371 1520 449 1520 c 0,9,10
 527 1520 527 1520 583 1463.5 c 128,-1,11
 639 1407 639 1407 639 1329 c 0,0,1
637 0 m 1,12,-1
 262 0 l 1,13,-1
 379 842 l 1,14,-1
 379 1032 l 1,15,-1
 518 1032 l 1,16,-1
 518 842 l 1,17,-1
 637 0 l 1,12,-1
EndSplineSet
EndChar
StartChar: cent
Encoding: 162 162 162
Width: 1425
Flags: W
Fore
739 94 m 1,0,-1
 739 969 l 1,1,2
 640 944 640 944 596.5 843.5 c 128,-1,3
 553 743 553 743 553 532 c 0,4,5
 553 321 553 321 596 221 c 128,-1,6
 639 121 639 121 739 94 c 1,0,-1
1233 332 m 1,7,8
 1201 175 1201 175 1106.5 85.5 c 128,-1,9
 1012 -4 1012 -4 860 -23 c 1,10,-1
 860 -299 l 1,11,-1
 739 -299 l 1,12,-1
 739 -29 l 1,13,14
 462 -23 462 -23 311 123.5 c 128,-1,15
 160 270 160 270 160 532 c 0,16,17
 160 794 160 794 311 939.5 c 128,-1,18
 462 1085 462 1085 739 1092 c 1,19,-1
 739 1356 l 1,20,-1
 860 1356 l 1,21,-1
 860 1087 l 1,22,23
 919 1083 919 1083 999.5 1064 c 128,-1,24
 1080 1045 1080 1045 1198 1008 c 1,25,-1
 1198 713 l 1,26,-1
 1085 713 l 1,27,28
 1070 839 1070 839 1015 903.5 c 128,-1,29
 960 968 960 968 860 979 c 1,30,-1
 860 88 l 1,31,32
 951 104 951 104 1003 165 c 128,-1,33
 1055 226 1055 226 1067 332 c 1,34,-1
 1233 332 l 1,7,8
EndSplineSet
EndChar
StartChar: sterling
Encoding: 163 163 163
Width: 1425
Flags: W
Fore
1247 1202 m 1,0,-1
 1127 1202 l 1,1,2
 1121 1299 1121 1299 1071.5 1353 c 128,-1,3
 1022 1407 1022 1407 938 1407 c 0,4,5
 821 1407 821 1407 770 1332.5 c 128,-1,6
 719 1258 719 1258 719 1083 c 2,7,-1
 719 815 l 1,8,-1
 1071 815 l 1,9,-1
 1071 694 l 1,10,-1
 719 694 l 1,11,-1
 719 137 l 1,12,-1
 1139 137 l 1,13,-1
 1139 365 l 1,14,-1
 1276 365 l 1,15,-1
 1276 0 l 1,16,-1
 147 0 l 1,17,-1
 147 121 l 1,18,-1
 340 121 l 1,19,-1
 340 694 l 1,20,-1
 147 694 l 1,21,-1
 147 815 l 1,22,-1
 340 815 l 1,23,-1
 340 1092 l 2,24,25
 340 1308 340 1308 473.5 1414 c 128,-1,26
 607 1520 607 1520 881 1520 c 0,27,28
 946 1520 946 1520 1036.5 1511 c 128,-1,29
 1127 1502 1127 1502 1247 1485 c 1,30,-1
 1247 1202 l 1,0,-1
EndSplineSet
EndChar
StartChar: currency
Encoding: 164 164 164
Width: 1303
Flags: W
Fore
653 422 m 0,0,1
 744 422 744 422 808 485.5 c 128,-1,2
 872 549 872 549 872 641 c 0,3,4
 872 733 872 733 808.5 796.5 c 128,-1,5
 745 860 745 860 653 860 c 0,6,7
 562 860 562 860 498 796.5 c 128,-1,8
 434 733 434 733 434 641 c 0,9,10
 434 548 434 548 497 485 c 128,-1,11
 560 422 560 422 653 422 c 0,0,1
436 268 m 1,12,-1
 227 61 l 1,13,-1
 76 215 l 1,14,-1
 285 424 l 1,15,16
 254 470 254 470 239.5 523.5 c 128,-1,17
 225 577 225 577 225 641 c 0,18,19
 225 704 225 704 240 758 c 128,-1,20
 255 812 255 812 285 858 c 1,21,-1
 76 1063 l 1,22,-1
 229 1221 l 1,23,-1
 436 1010 l 1,24,25
 484 1040 484 1040 538 1054.5 c 128,-1,26
 592 1069 592 1069 653 1069 c 0,27,28
 708 1069 708 1069 762.5 1054.5 c 128,-1,29
 817 1040 817 1040 874 1010 c 1,30,-1
 1079 1221 l 1,31,-1
 1231 1067 l 1,32,-1
 1022 862 l 1,33,34
 1052 806 1052 806 1066.5 750.5 c 128,-1,35
 1081 695 1081 695 1081 641 c 0,36,37
 1081 578 1081 578 1066.5 525.5 c 128,-1,38
 1052 473 1052 473 1022 426 c 1,39,-1
 1231 215 l 1,40,-1
 1075 61 l 1,41,-1
 868 272 l 1,42,43
 822 242 822 242 769 227.5 c 128,-1,44
 716 213 716 213 653 213 c 0,45,46
 595 213 595 213 541 227 c 128,-1,47
 487 241 487 241 436 268 c 1,12,-1
EndSplineSet
EndChar
StartChar: yen
Encoding: 165 165 165
Width: 1425
Flags: W
Fore
326 0 m 1,0,-1
 326 121 l 1,1,-1
 516 121 l 1,2,-1
 516 467 l 1,3,-1
 113 467 l 1,4,-1
 113 584 l 1,5,-1
 516 584 l 1,6,-1
 516 643 l 1,7,-1
 455 778 l 1,8,-1
 113 778 l 1,9,-1
 113 895 l 1,10,-1
 399 895 l 1,11,-1
 176 1372 l 1,12,-1
 39 1372 l 1,13,-1
 39 1493 l 1,14,-1
 733 1493 l 1,15,-1
 733 1372 l 1,16,-1
 563 1372 l 1,17,-1
 821 821 l 1,18,-1
 1077 1372 l 1,19,-1
 926 1372 l 1,20,-1
 926 1493 l 1,21,-1
 1362 1493 l 1,22,-1
 1362 1372 l 1,23,-1
 1227 1372 l 1,24,-1
 1006 895 l 1,25,-1
 1298 895 l 1,26,-1
 1298 778 l 1,27,-1
 948 778 l 1,28,-1
 895 662 l 1,29,-1
 895 584 l 1,30,-1
 1298 584 l 1,31,-1
 1298 467 l 1,32,-1
 895 467 l 1,33,-1
 895 121 l 1,34,-1
 1085 121 l 1,35,-1
 1085 0 l 1,36,-1
 326 0 l 1,0,-1
EndSplineSet
EndChar
StartChar: brokenbar
Encoding: 166 166 166
Width: 745
Flags: W
Fore
479 1432 m 1,0,-1
 479 674 l 1,1,-1
 264 674 l 1,2,-1
 264 1432 l 1,3,-1
 479 1432 l 1,0,-1
479 408 m 1,4,-1
 479 -350 l 1,5,-1
 264 -350 l 1,6,-1
 264 408 l 1,7,-1
 479 408 l 1,4,-1
EndSplineSet
EndChar
StartChar: section
Encoding: 167 167 167
Width: 1071
Flags: W
Fore
897 1475 m 1,0,-1
 897 1235 l 1,1,-1
 778 1235 l 1,2,3
 772 1321 772 1321 720 1364 c 128,-1,4
 668 1407 668 1407 571 1407 c 0,5,6
 490 1407 490 1407 444.5 1370 c 128,-1,7
 399 1333 399 1333 399 1266 c 0,8,9
 399 1219 399 1219 426 1186 c 128,-1,10
 453 1153 453 1153 543 1106 c 2,11,-1
 678 1034 l 1,12,13
 867 936 867 936 937.5 852 c 128,-1,14
 1008 768 1008 768 1008 653 c 0,15,16
 1008 549 1008 549 951 475 c 128,-1,17
 894 401 894 401 780 358 c 1,18,19
 863 311 863 311 901.5 247.5 c 128,-1,20
 940 184 940 184 940 94 c 0,21,22
 940 -43 940 -43 831 -119 c 128,-1,23
 722 -195 722 -195 522 -195 c 0,24,25
 439 -195 439 -195 348.5 -183.5 c 128,-1,26
 258 -172 258 -172 156 -150 c 1,27,-1
 156 90 l 1,28,-1
 274 90 l 1,29,30
 282 0 282 0 334 -41 c 128,-1,31
 386 -82 386 -82 492 -82 c 0,32,33
 579 -82 579 -82 625.5 -45 c 128,-1,34
 672 -8 672 -8 672 61 c 0,35,36
 672 108 672 108 645.5 141 c 128,-1,37
 619 174 619 174 528 221 c 2,38,-1
 393 293 l 2,39,40
 205 392 205 392 134 476 c 128,-1,41
 63 560 63 560 63 674 c 0,42,43
 63 777 63 777 120.5 850 c 128,-1,44
 178 923 178 923 293 967 c 1,45,46
 210 1013 210 1013 170.5 1077.5 c 128,-1,47
 131 1142 131 1142 131 1231 c 0,48,49
 131 1367 131 1367 240 1443.5 c 128,-1,50
 349 1520 349 1520 545 1520 c 0,51,52
 619 1520 619 1520 706 1508.5 c 128,-1,53
 793 1497 793 1497 897 1475 c 1,0,-1
395 901 m 1,54,55
 351 868 351 868 328 829 c 128,-1,56
 305 790 305 790 305 745 c 0,57,58
 305 684 305 684 350.5 633 c 128,-1,59
 396 582 396 582 506 524 c 2,60,-1
 674 436 l 1,61,62
 719 471 719 471 742.5 510.5 c 128,-1,63
 766 550 766 550 766 592 c 0,64,65
 766 652 766 652 719.5 703 c 128,-1,66
 673 754 673 754 561 813 c 2,67,-1
 395 901 l 1,54,55
EndSplineSet
EndChar
StartChar: dieresis
Encoding: 168 168 168
Width: 1024
Flags: W
Fore
141 1468 m 0,0,1
 141 1528 141 1528 185 1571 c 128,-1,2
 229 1614 229 1614 289 1614 c 0,3,4
 349 1614 349 1614 391.5 1571 c 128,-1,5
 434 1528 434 1528 434 1468 c 0,6,7
 434 1408 434 1408 391 1364.5 c 128,-1,8
 348 1321 348 1321 289 1321 c 0,9,10
 229 1321 229 1321 185 1365 c 128,-1,11
 141 1409 141 1409 141 1468 c 0,0,1
588 1468 m 0,12,13
 588 1528 588 1528 631.5 1571 c 128,-1,14
 675 1614 675 1614 735 1614 c 0,15,16
 795 1614 795 1614 839 1571 c 128,-1,17
 883 1528 883 1528 883 1468 c 0,18,19
 883 1409 883 1409 839 1365 c 128,-1,20
 795 1321 795 1321 735 1321 c 0,21,22
 675 1321 675 1321 631.5 1365 c 128,-1,23
 588 1409 588 1409 588 1468 c 0,12,13
EndSplineSet
LCarets2: 1 0 
EndChar
StartChar: copyright
Encoding: 169 169 169
Width: 2048
Flags: W
Fore
1024 1485 m 0,0,1
 1176 1485 1176 1485 1307.5 1430 c 128,-1,2
 1439 1375 1439 1375 1548 1266 c 0,3,4
 1657 1157 1657 1157 1711 1026 c 128,-1,5
 1765 895 1765 895 1765 741 c 0,6,7
 1765 589 1765 589 1711 458.5 c 128,-1,8
 1657 328 1657 328 1548 219 c 0,9,10
 1439 110 1439 110 1307.5 55 c 128,-1,11
 1176 0 1176 0 1024 0 c 0,12,13
 872 0 872 0 740.5 55 c 128,-1,14
 609 110 609 110 500 219 c 0,15,16
 391 328 391 328 337 458.5 c 128,-1,17
 283 589 283 589 283 741 c 0,18,19
 283 895 283 895 337 1026 c 128,-1,20
 391 1157 391 1157 500 1266 c 0,21,22
 609 1375 609 1375 740.5 1430 c 128,-1,23
 872 1485 872 1485 1024 1485 c 0,0,1
1024 1331 m 0,24,25
 903 1331 903 1331 799 1287.5 c 128,-1,26
 695 1244 695 1244 608 1157 c 0,27,28
 522 1071 522 1071 479 967.5 c 128,-1,29
 436 864 436 864 436 741 c 0,30,31
 436 619 436 619 479 515.5 c 128,-1,32
 522 412 522 412 608 326 c 0,33,34
 694 240 694 240 798.5 197 c 128,-1,35
 903 154 903 154 1024 154 c 0,36,37
 1147 154 1147 154 1250 196.5 c 128,-1,38
 1353 239 1353 239 1440 326 c 0,39,40
 1526 412 1526 412 1569 515.5 c 128,-1,41
 1612 619 1612 619 1612 741 c 0,42,43
 1612 864 1612 864 1569 967.5 c 128,-1,44
 1526 1071 1526 1071 1440 1157 c 0,45,46
 1352 1245 1352 1245 1248.5 1288 c 128,-1,47
 1145 1331 1145 1331 1024 1331 c 0,24,25
1391 580 m 1,48,49
 1364 441 1364 441 1272.5 371 c 128,-1,50
 1181 301 1181 301 1026 301 c 0,51,52
 838 301 838 301 722 422 c 128,-1,53
 606 543 606 543 606 741 c 0,54,55
 606 943 606 943 723 1063.5 c 128,-1,56
 840 1184 840 1184 1036 1184 c 0,57,58
 1115 1184 1115 1184 1195 1165.5 c 128,-1,59
 1275 1147 1275 1147 1362 1108 c 1,60,-1
 1362 885 l 1,61,-1
 1257 885 l 1,62,63
 1245 979 1245 979 1192.5 1032 c 128,-1,64
 1140 1085 1140 1085 1059 1085 c 0,65,66
 955 1085 955 1085 895.5 993.5 c 128,-1,67
 836 902 836 902 836 741 c 0,68,69
 836 580 836 580 895 489.5 c 128,-1,70
 954 399 954 399 1059 399 c 0,71,72
 1132 399 1132 399 1181 445 c 128,-1,73
 1230 491 1230 491 1253 580 c 1,74,-1
 1391 580 l 1,48,49
EndSplineSet
EndChar
StartChar: ordfeminine
Encoding: 170 170 170
Width: 997
Flags: W
Fore
113 639 m 1,0,-1
 911 639 l 1,1,-1
 911 504 l 1,2,-1
 113 504 l 1,3,-1
 113 639 l 1,0,-1
846 1212 m 2,4,-1
 846 850 l 1,5,-1
 961 850 l 1,6,-1
 961 756 l 1,7,-1
 582 756 l 1,8,-1
 582 848 l 1,9,10
 531 791 531 791 466.5 764 c 128,-1,11
 402 737 402 737 317 737 c 0,12,13
 194 737 194 737 127.5 798 c 128,-1,14
 61 859 61 859 61 973 c 0,15,16
 61 1101 61 1101 155.5 1164 c 128,-1,17
 250 1227 250 1227 442 1227 c 2,18,-1
 582 1227 l 1,19,-1
 582 1255 l 2,20,21
 582 1345 582 1345 535 1389.5 c 128,-1,22
 488 1434 488 1434 393 1434 c 0,23,24
 317 1434 317 1434 273 1401.5 c 128,-1,25
 229 1369 229 1369 219 1307 c 1,26,-1
 123 1307 l 1,27,-1
 123 1473 l 1,28,29
 196 1496 196 1496 273 1508 c 128,-1,30
 350 1520 350 1520 434 1520 c 0,31,32
 648 1520 648 1520 747 1446 c 128,-1,33
 846 1372 846 1372 846 1212 c 2,4,-1
582 1001 m 2,34,-1
 582 1133 l 1,35,-1
 481 1133 l 2,36,37
 409 1133 409 1133 367.5 1095.5 c 128,-1,38
 326 1058 326 1058 326 993 c 0,39,40
 326 931 326 931 356.5 897.5 c 128,-1,41
 387 864 387 864 444 864 c 0,42,43
 507 864 507 864 544.5 901 c 128,-1,44
 582 938 582 938 582 1001 c 2,34,-1
EndSplineSet
EndChar
StartChar: guillemotleft
Encoding: 171 171 171
Width: 1280
Flags: W
Fore
1087 1069 m 1,0,-1
 1087 922 l 1,1,-1
 848 600 l 1,2,-1
 1087 279 l 1,3,-1
 1087 131 l 1,4,-1
 618 516 l 1,5,-1
 618 684 l 1,6,-1
 1087 1069 l 1,0,-1
627 1069 m 1,7,-1
 627 922 l 1,8,-1
 387 600 l 1,9,-1
 627 279 l 1,10,-1
 627 131 l 1,11,-1
 158 516 l 1,12,-1
 158 684 l 1,13,-1
 627 1069 l 1,7,-1
EndSplineSet
EndChar
StartChar: logicalnot
Encoding: 172 172 172
Width: 1716
Flags: W
Fore
217 903 m 1,0,-1
 1499 903 l 1,1,-1
 1499 287 l 1,2,-1
 1270 287 l 1,3,-1
 1270 676 l 1,4,-1
 217 676 l 1,5,-1
 217 903 l 1,0,-1
EndSplineSet
EndChar
StartChar: sfthyphen
Encoding: 173 173 173
Width: 850
Flags: W
Fore
111 684 m 1,0,-1
 739 684 l 1,1,-1
 739 414 l 1,2,-1
 111 414 l 1,3,-1
 111 684 l 1,0,-1
EndSplineSet
EndChar
StartChar: registered
Encoding: 174 174 174
Width: 2048
Flags: W
Fore
1166 754 m 1,0,1
 1205 743 1205 743 1235 716.5 c 128,-1,2
 1265 690 1265 690 1284 649 c 2,3,-1
 1384 434 l 1,4,-1
 1444 434 l 1,5,-1
 1444 352 l 1,6,-1
 1221 352 l 1,7,-1
 1104 606 l 1,8,9
 1072 674 1072 674 1042.5 695.5 c 128,-1,10
 1013 717 1013 717 958 717 c 2,11,-1
 932 717 l 1,12,-1
 932 434 l 1,13,-1
 1018 434 l 1,14,-1
 1018 352 l 1,15,-1
 649 352 l 1,16,-1
 649 434 l 1,17,-1
 735 434 l 1,18,-1
 735 1077 l 1,19,-1
 649 1077 l 1,20,-1
 649 1159 l 1,21,-1
 1102 1159 l 2,22,23
 1222 1159 1222 1159 1291 1104 c 128,-1,24
 1360 1049 1360 1049 1360 954 c 0,25,26
 1360 865 1360 865 1310.5 814 c 128,-1,27
 1261 763 1261 763 1166 754 c 1,0,1
932 799 m 1,28,-1
 999 799 l 2,29,30
 1078 799 1078 799 1120.5 835 c 128,-1,31
 1163 871 1163 871 1163 938 c 0,32,33
 1163 1005 1163 1005 1120.5 1041 c 128,-1,34
 1078 1077 1078 1077 999 1077 c 2,35,-1
 932 1077 l 1,36,-1
 932 799 l 1,28,-1
1024 1485 m 0,37,38
 1176 1485 1176 1485 1307.5 1430 c 128,-1,39
 1439 1375 1439 1375 1548 1266 c 0,40,41
 1657 1157 1657 1157 1711 1026 c 128,-1,42
 1765 895 1765 895 1765 741 c 0,43,44
 1765 589 1765 589 1711 458.5 c 128,-1,45
 1657 328 1657 328 1548 219 c 0,46,47
 1439 110 1439 110 1307.5 55 c 128,-1,48
 1176 0 1176 0 1024 0 c 0,49,50
 872 0 872 0 740.5 55 c 128,-1,51
 609 110 609 110 500 219 c 0,52,53
 391 328 391 328 337 458.5 c 128,-1,54
 283 589 283 589 283 741 c 0,55,56
 283 895 283 895 337 1026 c 128,-1,57
 391 1157 391 1157 500 1266 c 0,58,59
 609 1375 609 1375 740.5 1430 c 128,-1,60
 872 1485 872 1485 1024 1485 c 0,37,38
1024 1331 m 0,61,62
 903 1331 903 1331 799 1287.5 c 128,-1,63
 695 1244 695 1244 608 1157 c 0,64,65
 522 1071 522 1071 479 967.5 c 128,-1,66
 436 864 436 864 436 741 c 0,67,68
 436 619 436 619 479 515.5 c 128,-1,69
 522 412 522 412 608 326 c 0,70,71
 694 240 694 240 798.5 197 c 128,-1,72
 903 154 903 154 1024 154 c 0,73,74
 1147 154 1147 154 1250 196.5 c 128,-1,75
 1353 239 1353 239 1440 326 c 0,76,77
 1526 412 1526 412 1569 515.5 c 128,-1,78
 1612 619 1612 619 1612 741 c 0,79,80
 1612 864 1612 864 1569 967.5 c 128,-1,81
 1526 1071 1526 1071 1440 1157 c 0,82,83
 1352 1245 1352 1245 1248.5 1288 c 128,-1,84
 1145 1331 1145 1331 1024 1331 c 0,61,62
EndSplineSet
EndChar
StartChar: macron
Encoding: 175 175 175
Width: 1024
Flags: W
Fore
197 1548 m 1,0,-1
 827 1548 l 1,1,-1
 827 1360 l 1,2,-1
 197 1360 l 1,3,-1
 197 1548 l 1,0,-1
EndSplineSet
EndChar
StartChar: degree
Encoding: 176 176 176
Width: 1024
Flags: W
Fore
512 1534 m 0,0,1
 578 1534 578 1534 639 1508.5 c 128,-1,2
 700 1483 700 1483 748 1436 c 1,3,4
 795 1388 795 1388 819.5 1328 c 128,-1,5
 844 1268 844 1268 844 1200 c 0,6,7
 844 1133 844 1133 819.5 1072.5 c 128,-1,8
 795 1012 795 1012 750 967 c 0,9,10
 702 919 702 919 640 893.5 c 128,-1,11
 578 868 578 868 510 868 c 0,12,13
 369 868 369 868 273.5 963.5 c 128,-1,14
 178 1059 178 1059 178 1200 c 0,15,16
 178 1341 178 1341 274.5 1437.5 c 128,-1,17
 371 1534 371 1534 512 1534 c 0,0,1
512 1372 m 0,18,19
 440 1372 440 1372 390 1322 c 128,-1,20
 340 1272 340 1272 340 1200 c 0,21,22
 340 1128 340 1128 389.5 1079 c 128,-1,23
 439 1030 439 1030 512 1030 c 0,24,25
 584 1030 584 1030 634 1079.5 c 128,-1,26
 684 1129 684 1129 684 1200 c 0,27,28
 684 1272 684 1272 633.5 1322 c 128,-1,29
 583 1372 583 1372 512 1372 c 0,18,19
EndSplineSet
EndChar
StartChar: plusminus
Encoding: 177 177 177
Width: 1716
Flags: W
Fore
217 227 m 1,0,-1
 1499 227 l 1,1,-1
 1499 0 l 1,2,-1
 217 0 l 1,3,-1
 217 227 l 1,0,-1
973 1284 m 1,4,-1
 973 926 l 1,5,-1
 1499 926 l 1,6,-1
 1499 698 l 1,7,-1
 973 698 l 1,8,-1
 973 340 l 1,9,-1
 743 340 l 1,10,-1
 743 698 l 1,11,-1
 217 698 l 1,12,-1
 217 926 l 1,13,-1
 743 926 l 1,14,-1
 743 1284 l 1,15,-1
 973 1284 l 1,4,-1
EndSplineSet
EndChar
StartChar: twosuperior
Encoding: 178 178 178
Width: 897
Flags: W
Fore
188 1284 m 1,0,-1
 94 1284 l 1,1,-1
 94 1479 l 1,2,3
 166 1499 166 1499 241.5 1509.5 c 128,-1,4
 317 1520 317 1520 397 1520 c 0,5,6
 578 1520 578 1520 678 1456 c 128,-1,7
 778 1392 778 1392 778 1278 c 0,8,9
 778 1196 778 1196 723.5 1131.5 c 128,-1,10
 669 1067 669 1067 512 977 c 2,11,-1
 268 838 l 1,12,-1
 682 838 l 1,13,-1
 682 934 l 1,14,-1
 782 934 l 1,15,-1
 782 684 l 1,16,-1
 86 684 l 1,17,-1
 86 817 l 1,18,-1
 215 901 l 2,19,20
 402 1024 402 1024 452 1094 c 128,-1,21
 502 1164 502 1164 502 1257 c 0,22,23
 502 1341 502 1341 460.5 1388.5 c 128,-1,24
 419 1436 419 1436 346 1436 c 0,25,26
 283 1436 283 1436 239.5 1394.5 c 128,-1,27
 196 1353 196 1353 188 1284 c 1,0,-1
EndSplineSet
EndChar
StartChar: threesuperior
Encoding: 179 179 179
Width: 897
Flags: W
Fore
111 1481 m 1,0,1
 199 1500 199 1500 273.5 1510 c 128,-1,2
 348 1520 348 1520 412 1520 c 0,3,4
 592 1520 592 1520 685 1467.5 c 128,-1,5
 778 1415 778 1415 778 1315 c 0,6,7
 778 1243 778 1243 725.5 1196 c 128,-1,8
 673 1149 673 1149 571 1133 c 1,9,10
 691 1117 691 1117 753 1061.5 c 128,-1,11
 815 1006 815 1006 815 913 c 0,12,13
 815 791 815 791 713 729.5 c 128,-1,14
 611 668 611 668 410 668 c 0,15,16
 330 668 330 668 250 678.5 c 128,-1,17
 170 689 170 689 90 711 c 1,18,-1
 90 911 l 1,19,-1
 186 911 l 1,20,21
 193 831 193 831 236 791.5 c 128,-1,22
 279 752 279 752 358 752 c 0,23,24
 446 752 446 752 492.5 795 c 128,-1,25
 539 838 539 838 539 920 c 0,26,27
 539 1000 539 1000 490 1043.5 c 128,-1,28
 441 1087 441 1087 350 1087 c 2,29,-1
 309 1087 l 1,30,-1
 309 1171 l 1,31,-1
 340 1171 l 2,32,33
 421 1171 421 1171 464.5 1205 c 128,-1,34
 508 1239 508 1239 508 1303 c 0,35,36
 508 1366 508 1366 469 1401 c 128,-1,37
 430 1436 430 1436 358 1436 c 0,38,39
 292 1436 292 1436 252 1399.5 c 128,-1,40
 212 1363 212 1363 207 1299 c 1,41,-1
 111 1298 l 1,42,-1
 111 1481 l 1,0,1
EndSplineSet
EndChar
StartChar: acute
Encoding: 180 180 180
Width: 1024
Flags: W
Fore
604 1638 m 1,0,-1
 883 1638 l 1,1,-1
 510 1262 l 1,2,-1
 346 1262 l 1,3,-1
 604 1638 l 1,0,-1
EndSplineSet
LCarets2: 1 0 
EndChar
StartChar: mu
Encoding: 181 181 181
Width: 1499
Flags: W
Fore
1278 1063 m 1,0,-1
 1278 121 l 1,1,-1
 1430 121 l 1,2,-1
 1430 0 l 1,3,-1
 924 0 l 1,4,-1
 924 125 l 1,5,6
 869 42 869 42 814.5 6.5 c 128,-1,7
 760 -29 760 -29 686 -29 c 0,8,9
 655 -29 655 -29 625.5 -19 c 128,-1,10
 596 -9 596 -9 563 12 c 1,11,-1
 563 -305 l 1,12,-1
 715 -305 l 1,13,-1
 715 -426 l 1,14,-1
 57 -426 l 1,15,-1
 57 -305 l 1,16,-1
 209 -305 l 1,17,-1
 209 942 l 1,18,-1
 57 942 l 1,19,-1
 57 1063 l 1,20,-1
 563 1063 l 1,21,-1
 563 467 l 2,22,23
 563 247 563 247 597 192 c 128,-1,24
 631 137 631 137 719 137 c 0,25,26
 825 137 825 137 874.5 216.5 c 128,-1,27
 924 296 924 296 924 467 c 2,28,-1
 924 942 l 1,29,-1
 793 942 l 1,30,-1
 793 1063 l 1,31,-1
 1278 1063 l 1,0,-1
EndSplineSet
EndChar
StartChar: paragraph
Encoding: 182 182 182
Width: 1303
Flags: W
Fore
623 1493 m 2,0,-1
 1178 1493 l 1,1,-1
 1178 1368 l 1,2,-1
 1065 1368 l 1,3,-1
 1065 -197 l 1,4,-1
 913 -197 l 1,5,-1
 913 1368 l 1,6,-1
 750 1368 l 1,7,-1
 750 -197 l 1,8,-1
 598 -197 l 1,9,-1
 598 649 l 1,10,11
 383 666 383 666 265 776.5 c 128,-1,12
 147 887 147 887 147 1071 c 0,13,14
 147 1261 147 1261 277 1377 c 128,-1,15
 407 1493 407 1493 623 1493 c 2,0,-1
EndSplineSet
EndChar
StartChar: periodcentered
Encoding: 183 183 183
Width: 713
Flags: W
Fore
166 711 m 0,0,1
 166 789 166 789 222 845 c 128,-1,2
 278 901 278 901 356 901 c 0,3,4
 435 901 435 901 491 845 c 128,-1,5
 547 789 547 789 547 711 c 0,6,7
 547 633 547 633 491 577.5 c 128,-1,8
 435 522 435 522 356 522 c 0,9,10
 278 522 278 522 222 577.5 c 128,-1,11
 166 633 166 633 166 711 c 0,0,1
EndSplineSet
EndChar
StartChar: cedilla
Encoding: 184 184 184
Width: 1024
Flags: W
Fore
594 0 m 1,0,1
 656 -64 656 -64 685.5 -118.5 c 128,-1,2
 715 -173 715 -173 715 -225 c 0,3,4
 715 -311 715 -311 650.5 -356 c 128,-1,5
 586 -401 586 -401 465 -401 c 0,6,7
 417 -401 417 -401 366 -394.5 c 128,-1,8
 315 -388 315 -388 263 -375 c 1,9,-1
 262 -219 l 1,10,11
 307 -236 307 -236 349.5 -245 c 128,-1,12
 392 -254 392 -254 428 -254 c 0,13,14
 488 -254 488 -254 519.5 -230.5 c 128,-1,15
 551 -207 551 -207 551 -162 c 0,16,17
 551 -134 551 -134 534.5 -101 c 128,-1,18
 518 -68 518 -68 467 0 c 1,19,-1
 594 0 l 1,0,1
EndSplineSet
EndChar
StartChar: onesuperior
Encoding: 185 185 185
Width: 897
Flags: W
Fore
162 684 m 1,0,-1
 162 778 l 1,1,-1
 326 778 l 1,2,-1
 326 1391 l 1,3,-1
 143 1290 l 1,4,-1
 143 1395 l 1,5,-1
 365 1520 l 1,6,-1
 592 1520 l 1,7,-1
 592 778 l 1,8,-1
 756 778 l 1,9,-1
 756 684 l 1,10,-1
 162 684 l 1,0,-1
EndSplineSet
EndChar
StartChar: ordmasculine
Encoding: 186 186 186
Width: 1024
Flags: W
Fore
113 639 m 1,0,-1
 911 639 l 1,1,-1
 911 504 l 1,2,-1
 113 504 l 1,3,-1
 113 639 l 1,0,-1
512 823 m 0,4,5
 588 823 588 823 621.5 894 c 128,-1,6
 655 965 655 965 655 1128 c 0,7,8
 655 1292 655 1292 621.5 1363 c 128,-1,9
 588 1434 588 1434 512 1434 c 0,10,11
 435 1434 435 1434 402 1364 c 128,-1,12
 369 1294 369 1294 369 1128 c 0,13,14
 369 963 369 963 402 893 c 128,-1,15
 435 823 435 823 512 823 c 0,4,5
512 737 m 0,16,17
 300 737 300 737 180.5 841 c 128,-1,18
 61 945 61 945 61 1128 c 0,19,20
 61 1311 61 1311 180.5 1415.5 c 128,-1,21
 300 1520 300 1520 512 1520 c 0,22,23
 724 1520 724 1520 843.5 1415.5 c 128,-1,24
 963 1311 963 1311 963 1128 c 0,25,26
 963 945 963 945 843.5 841 c 128,-1,27
 724 737 724 737 512 737 c 0,16,17
EndSplineSet
EndChar
StartChar: guillemotright
Encoding: 187 187 187
Width: 1280
Flags: W
Fore
193 1069 m 1,0,-1
 662 684 l 1,1,-1
 662 516 l 1,2,-1
 193 131 l 1,3,-1
 193 279 l 1,4,-1
 432 600 l 1,5,-1
 193 922 l 1,6,-1
 193 1069 l 1,0,-1
653 1069 m 1,7,-1
 1122 684 l 1,8,-1
 1122 516 l 1,9,-1
 653 131 l 1,10,-1
 653 279 l 1,11,-1
 893 600 l 1,12,-1
 653 922 l 1,13,-1
 653 1069 l 1,7,-1
EndSplineSet
EndChar
StartChar: questiondown
Encoding: 191 191 191
Width: 1200
Flags: W
Fore
858 1329 m 0,0,1
 858 1251 858 1251 802 1196 c 128,-1,2
 746 1141 746 1141 668 1141 c 0,3,4
 589 1141 589 1141 534 1196 c 128,-1,5
 479 1251 479 1251 479 1329 c 0,6,7
 479 1408 479 1408 534.5 1464 c 128,-1,8
 590 1520 590 1520 668 1520 c 0,9,10
 746 1520 746 1520 802 1463.5 c 128,-1,11
 858 1407 858 1407 858 1329 c 0,0,1
1067 39 m 1,12,13
 943 5 943 5 831 -12 c 128,-1,14
 719 -29 719 -29 614 -29 c 0,15,16
 362 -29 362 -29 227 81.5 c 128,-1,17
 92 192 92 192 92 397 c 0,18,19
 92 599 92 599 222.5 715.5 c 128,-1,20
 353 832 353 832 598 850 c 1,21,-1
 598 1055 l 1,22,-1
 737 1055 l 1,23,-1
 737 756 l 1,24,25
 598 713 598 713 532.5 620.5 c 128,-1,26
 467 528 467 528 467 375 c 0,27,28
 467 230 467 230 528 157 c 128,-1,29
 589 84 589 84 709 84 c 0,30,31
 818 84 818 84 877.5 150 c 128,-1,32
 937 216 937 216 947 346 c 1,33,-1
 1067 346 l 1,34,-1
 1067 39 l 1,12,13
EndSplineSet
EndChar
StartChar: Aring
Encoding: 197 197 197
Width: 1589
Flags: W
Fore
657 1616 m 0,0,1
 657 1562 657 1562 696 1523.5 c 128,-1,2
 735 1485 735 1485 788 1485 c 0,3,4
 843 1485 843 1485 881.5 1523.5 c 128,-1,5
 920 1562 920 1562 920 1616 c 0,6,7
 920 1670 920 1670 881 1708.5 c 128,-1,8
 842 1747 842 1747 788 1747 c 0,9,10
 735 1747 735 1747 696 1708.5 c 128,-1,11
 657 1670 657 1670 657 1616 c 0,0,1
-16 0 m 1,12,-1
 -16 121 l 1,13,-1
 106 121 l 1,14,-1
 625 1384 l 1,15,16
 567 1421 567 1421 535.5 1481.5 c 128,-1,17
 504 1542 504 1542 504 1616 c 0,18,19
 504 1733 504 1733 587.5 1817 c 128,-1,20
 671 1901 671 1901 788 1901 c 0,21,22
 906 1901 906 1901 989.5 1817 c 128,-1,23
 1073 1733 1073 1733 1073 1616 c 0,24,25
 1073 1542 1073 1542 1042.5 1483 c 128,-1,26
 1012 1424 1012 1424 952 1384 c 1,27,-1
 1470 121 l 1,28,-1
 1612 121 l 1,29,-1
 1612 0 l 1,30,-1
 913 0 l 1,31,-1
 913 121 l 1,32,-1
 1059 121 l 1,33,-1
 936 426 l 1,34,-1
 375 426 l 1,35,-1
 250 121 l 1,36,-1
 428 121 l 1,37,-1
 428 0 l 1,38,-1
 -16 0 l 1,12,-1
424 547 m 1,39,-1
 887 547 l 1,40,-1
 659 1118 l 1,41,-1
 424 547 l 1,39,-1
EndSplineSet
EndChar
StartChar: AE
Encoding: 198 198 198
Width: 2118
Flags: W
AnchorPoint: "below" 1216 0 basechar 0
AnchorPoint: "above" 1216 1465 basechar 0
Fore
401 545 m 1,0,-1
 866 545 l 1,1,-1
 866 1372 l 1,2,-1
 791 1372 l 1,3,-1
 401 545 l 1,0,-1
676 0 m 1,4,-1
 676 121 l 1,5,-1
 866 121 l 1,6,-1
 866 424 l 1,7,-1
 344 424 l 1,8,-1
 201 121 l 1,9,-1
 365 121 l 1,10,-1
 365 0 l 1,11,-1
 -63 0 l 1,12,-1
 -63 121 l 1,13,-1
 51 121 l 1,14,-1
 643 1372 l 1,15,-1
 442 1372 l 1,16,-1
 442 1493 l 1,17,-1
 1993 1493 l 1,18,-1
 1993 1141 l 1,19,-1
 1855 1141 l 1,20,-1
 1855 1356 l 1,21,-1
 1253 1356 l 1,22,-1
 1253 877 l 1,23,-1
 1620 877 l 1,24,-1
 1620 1067 l 1,25,-1
 1755 1067 l 1,26,-1
 1755 551 l 1,27,-1
 1620 551 l 1,28,-1
 1620 741 l 1,29,-1
 1253 741 l 1,30,-1
 1253 137 l 1,31,-1
 1876 137 l 1,32,-1
 1876 352 l 1,33,-1
 2011 352 l 1,34,-1
 2011 0 l 1,35,-1
 676 0 l 1,4,-1
EndSplineSet
EndChar
StartChar: Eth
Encoding: 208 208 208
Width: 1790
Flags: W
Fore
686 121 m 1,0,-1
 825 121 l 2,1,2
 1059 121 1059 121 1166.5 270.5 c 128,-1,3
 1274 420 1274 420 1274 748 c 0,4,5
 1274 1074 1274 1074 1166.5 1223 c 128,-1,6
 1059 1372 1059 1372 825 1372 c 2,7,-1
 686 1372 l 1,8,-1
 686 850 l 1,9,-1
 1018 850 l 1,10,-1
 1018 713 l 1,11,-1
 686 713 l 1,12,-1
 686 121 l 1,0,-1
109 0 m 1,13,-1
 109 121 l 1,14,-1
 301 121 l 1,15,-1
 301 713 l 1,16,-1
 88 713 l 1,17,-1
 88 850 l 1,18,-1
 301 850 l 1,19,-1
 301 1372 l 1,20,-1
 109 1372 l 1,21,-1
 109 1493 l 1,22,-1
 877 1493 l 2,23,24
 1277 1493 1277 1493 1489.5 1301.5 c 128,-1,25
 1702 1110 1702 1110 1702 748 c 0,26,27
 1702 385 1702 385 1489.5 192.5 c 128,-1,28
 1277 0 1277 0 877 0 c 2,29,-1
 109 0 l 1,13,-1
EndSplineSet
EndChar
StartChar: multiply
Encoding: 215 215 215
Width: 1716
Flags: W
Fore
1452 1081 m 1,0,-1
 1012 641 l 1,1,-1
 1452 201 l 1,2,-1
 1298 47 l 1,3,-1
 858 487 l 1,4,-1
 418 47 l 1,5,-1
 264 201 l 1,6,-1
 705 641 l 1,7,-1
 264 1081 l 1,8,-1
 418 1237 l 1,9,-1
 858 797 l 1,10,-1
 1298 1237 l 1,11,-1
 1452 1081 l 1,0,-1
EndSplineSet
EndChar
StartChar: Oslash
Encoding: 216 216 216
Width: 1784
Flags: W
AnchorPoint: "above" 893 1465 basechar 0
AnchorPoint: "below" 893 0 basechar 0
Fore
535 479 m 1,0,-1
 1212 1157 l 1,1,2
 1170 1276 1170 1276 1088.5 1337.5 c 128,-1,3
 1007 1399 1007 1399 891 1399 c 0,4,5
 701 1399 701 1399 607.5 1236.5 c 128,-1,6
 514 1074 514 1074 514 745 c 0,7,8
 514 669 514 669 519 603 c 128,-1,9
 524 537 524 537 535 479 c 1,0,-1
571 334 m 1,10,11
 616 212 616 212 695.5 152 c 128,-1,12
 775 92 775 92 891 92 c 0,13,14
 1086 92 1086 92 1178 259 c 128,-1,15
 1270 426 1270 426 1270 784 c 0,16,17
 1270 849 1270 849 1264 899.5 c 128,-1,18
 1258 950 1258 950 1245 993 c 1,19,-1
 571 334 l 1,10,11
1516 1280 m 1,20,21
 1606 1176 1606 1176 1651 1042.5 c 128,-1,22
 1696 909 1696 909 1696 745 c 0,23,24
 1696 383 1696 383 1481.5 177 c 128,-1,25
 1267 -29 1267 -29 891 -29 c 0,26,27
 733 -29 733 -29 600.5 10 c 128,-1,28
 468 49 468 49 362 127 c 1,29,-1
 158 -78 l 1,30,-1
 68 12 l 1,31,-1
 268 213 l 1,32,33
 177 315 177 315 131.5 448.5 c 128,-1,34
 86 582 86 582 86 745 c 0,35,36
 86 1107 86 1107 300.5 1313.5 c 128,-1,37
 515 1520 515 1520 891 1520 c 0,38,39
 1051 1520 1051 1520 1184 1481.5 c 128,-1,40
 1317 1443 1317 1443 1421 1366 c 1,41,-1
 1624 1569 l 1,42,-1
 1714 1479 l 1,43,-1
 1516 1280 l 1,20,21
EndSplineSet
EndChar
StartChar: Thorn
Encoding: 222 222 222
Width: 1550
Flags: W
Fore
96 0 m 1,0,-1
 96 121 l 1,1,-1
 287 121 l 1,2,-1
 287 1372 l 1,3,-1
 96 1372 l 1,4,-1
 96 1493 l 1,5,-1
 911 1493 l 1,6,-1
 911 1372 l 1,7,-1
 672 1372 l 1,8,-1
 672 1202 l 1,9,-1
 946 1202 l 2,10,11
 1195 1202 1195 1202 1342 1083.5 c 128,-1,12
 1489 965 1489 965 1489 766 c 0,13,14
 1489 567 1489 567 1341.5 447.5 c 128,-1,15
 1194 328 1194 328 946 328 c 2,16,-1
 672 328 l 1,17,-1
 672 121 l 1,18,-1
 913 121 l 1,19,-1
 913 0 l 1,20,-1
 96 0 l 1,0,-1
672 449 m 1,21,-1
 784 449 l 2,22,23
 914 449 914 449 991.5 535 c 128,-1,24
 1069 621 1069 621 1069 766 c 0,25,26
 1069 910 1069 910 992 995.5 c 128,-1,27
 915 1081 915 1081 784 1081 c 2,28,-1
 672 1081 l 1,29,-1
 672 449 l 1,21,-1
EndSplineSet
EndChar
StartChar: germandbls
Encoding: 223 223 223
Width: 1556
Flags: W
Fore
997 1221 m 1,0,1
 990 1345 990 1345 942 1394.5 c 128,-1,2
 894 1444 894 1444 782 1444 c 0,3,4
 673 1444 673 1444 624 1384.5 c 128,-1,5
 575 1325 575 1325 575 1190 c 2,6,-1
 575 0 l 1,7,-1
 70 0 l 1,8,-1
 70 121 l 1,9,-1
 221 121 l 1,10,-1
 221 1147 l 2,11,12
 221 1348 221 1348 361 1452 c 128,-1,13
 501 1556 501 1556 770 1556 c 0,14,15
 1033 1556 1033 1556 1167.5 1450.5 c 128,-1,16
 1302 1345 1302 1345 1329 1116 c 1,17,-1
 1307 1116 l 2,18,19
 1152 1116 1152 1116 1072.5 1070.5 c 128,-1,20
 993 1025 993 1025 993 936 c 0,21,22
 993 896 993 896 1016 862.5 c 128,-1,23
 1039 829 1039 829 1122 768 c 2,24,-1
 1210 705 l 2,25,26
 1387 577 1387 577 1436 498 c 128,-1,27
 1485 419 1485 419 1485 311 c 0,28,29
 1485 151 1485 151 1360.5 61 c 128,-1,30
 1236 -29 1236 -29 1012 -29 c 0,31,32
 932 -29 932 -29 844.5 -14 c 128,-1,33
 757 1 757 1 657 31 c 1,34,-1
 657 289 l 1,35,-1
 778 289 l 1,36,37
 791 182 791 182 840 133 c 128,-1,38
 889 84 889 84 983 84 c 0,39,40
 1059 84 1059 84 1106 128 c 128,-1,41
 1153 172 1153 172 1153 244 c 0,42,43
 1153 349 1153 349 989 466 c 0,44,45
 968 481 968 481 957 489 c 2,46,-1
 868 553 l 2,47,48
 766 627 766 627 721 705.5 c 128,-1,49
 676 784 676 784 676 889 c 0,50,51
 676 1023 676 1023 756 1105.5 c 128,-1,52
 836 1188 836 1188 997 1221 c 1,0,1
EndSplineSet
EndChar
StartChar: ae
Encoding: 230 230 230
Width: 1997
Flags: W
AnchorPoint: "above" 975 1092 basechar 0
AnchorPoint: "below" 975 0 basechar 0
Fore
1513 600 m 1,0,1
 1513 810 1513 810 1474 894.5 c 128,-1,2
 1435 979 1435 979 1341 979 c 0,3,4
 1250 979 1250 979 1210.5 896 c 128,-1,5
 1171 813 1171 813 1171 618 c 2,6,-1
 1171 600 l 1,7,-1
 1513 600 l 1,0,1
975 936 m 1,8,9
 1052 1014 1052 1014 1144.5 1053 c 128,-1,10
 1237 1092 1237 1092 1348 1092 c 0,11,12
 1611 1092 1611 1092 1752 937 c 128,-1,13
 1893 782 1893 782 1902 481 c 1,14,-1
 1171 481 l 1,15,-1
 1171 473 l 2,16,17
 1171 267 1171 267 1233 175.5 c 128,-1,18
 1295 84 1295 84 1434 84 c 0,19,20
 1548 84 1548 84 1618 144.5 c 128,-1,21
 1688 205 1688 205 1708 322 c 1,22,-1
 1876 322 l 1,23,24
 1833 141 1833 141 1705.5 56 c 128,-1,25
 1578 -29 1578 -29 1348 -29 c 0,26,27
 1214 -29 1214 -29 1110 9.5 c 128,-1,28
 1006 48 1006 48 928 127 c 1,29,30
 839 49 839 49 733.5 10 c 128,-1,31
 628 -29 628 -29 504 -29 c 0,32,33
 298 -29 298 -29 191 57.5 c 128,-1,34
 84 144 84 144 84 309 c 0,35,36
 84 489 84 489 211.5 577.5 c 128,-1,37
 339 666 339 666 598 666 c 2,38,-1
 784 666 l 1,39,-1
 784 729 l 2,40,41
 784 845 784 845 713.5 912 c 128,-1,42
 643 979 643 979 520 979 c 0,43,44
 417 979 417 979 360 935.5 c 128,-1,45
 303 892 303 892 279 795 c 1,46,-1
 166 795 l 1,47,-1
 166 1024 l 1,48,49
 261 1058 261 1058 363 1075 c 128,-1,50
 465 1092 465 1092 578 1092 c 0,51,52
 715 1092 715 1092 813 1053.5 c 128,-1,53
 911 1015 911 1015 975 936 c 1,8,9
784 330 m 2,54,-1
 784 547 l 1,55,-1
 651 547 l 2,56,57
 542 547 542 547 489 492 c 128,-1,58
 436 437 436 437 436 324 c 0,59,60
 436 211 436 211 475.5 163 c 128,-1,61
 515 115 515 115 604 115 c 0,62,63
 690 115 690 115 737 171 c 128,-1,64
 784 227 784 227 784 330 c 2,54,-1
EndSplineSet
EndChar
StartChar: eth
Encoding: 240 240 240
Width: 1366
Flags: W
Fore
895 1337 m 1,0,1
 1083 1188 1083 1188 1183.5 986.5 c 128,-1,2
 1284 785 1284 785 1284 557 c 0,3,4
 1284 282 1284 282 1125 126.5 c 128,-1,5
 966 -29 966 -29 684 -29 c 0,6,7
 409 -29 409 -29 246.5 117.5 c 128,-1,8
 84 264 84 264 84 508 c 0,9,10
 84 738 84 738 243.5 889 c 128,-1,11
 403 1040 403 1040 647 1040 c 0,12,13
 689 1040 689 1040 732 1034 c 128,-1,14
 775 1028 775 1028 819 1016 c 1,15,16
 798 1079 798 1079 765.5 1134 c 128,-1,17
 733 1189 733 1189 686 1241 c 1,18,-1
 367 1092 l 1,19,-1
 317 1192 l 1,20,-1
 596 1323 l 1,21,22
 544 1361 544 1361 467.5 1392 c 128,-1,23
 391 1423 391 1423 291 1446 c 1,24,-1
 319 1556 l 1,25,26
 459 1539 459 1539 576 1502.5 c 128,-1,27
 693 1466 693 1466 784 1411 c 1,28,-1
 1114 1565 l 1,29,-1
 1161 1462 l 1,30,-1
 895 1337 l 1,0,1
838 891 m 1,31,32
 791 910 791 910 753.5 919 c 128,-1,33
 716 928 716 928 684 928 c 0,34,35
 573 928 573 928 526 832.5 c 128,-1,36
 479 737 479 737 479 508 c 0,37,38
 479 274 479 274 526 179 c 128,-1,39
 573 84 573 84 684 84 c 0,40,41
 795 84 795 84 841 178 c 128,-1,42
 887 272 887 272 887 508 c 0,43,44
 887 615 887 615 874.5 710.5 c 128,-1,45
 862 806 862 806 838 891 c 1,31,32
EndSplineSet
EndChar
StartChar: divide
Encoding: 247 247 247
Width: 1716
Flags: W
Fore
709 1012 m 0,0,1
 709 1073 709 1073 753 1117 c 128,-1,2
 797 1161 797 1161 858 1161 c 0,3,4
 920 1161 920 1161 964 1117 c 128,-1,5
 1008 1073 1008 1073 1008 1012 c 0,6,7
 1008 950 1008 950 964 906 c 128,-1,8
 920 862 920 862 858 862 c 0,9,10
 797 862 797 862 753 906 c 128,-1,11
 709 950 709 950 709 1012 c 0,0,1
709 272 m 0,12,13
 709 334 709 334 753 378 c 128,-1,14
 797 422 797 422 858 422 c 0,15,16
 920 422 920 422 964 378 c 128,-1,17
 1008 334 1008 334 1008 272 c 0,18,19
 1008 211 1008 211 964 167 c 128,-1,20
 920 123 920 123 858 123 c 0,21,22
 797 123 797 123 753 167 c 128,-1,23
 709 211 709 211 709 272 c 0,12,13
217 756 m 1,24,-1
 1499 756 l 1,25,-1
 1499 528 l 1,26,-1
 217 528 l 1,27,-1
 217 756 l 1,24,-1
EndSplineSet
EndChar
StartChar: oslash
Encoding: 248 248 248
Width: 1366
Flags: W
AnchorPoint: "above" 684 1092 basechar 0
AnchorPoint: "below" 684 0 basechar 0
Fore
481 416 m 1,0,-1
 868 801 l 1,1,2
 851 891 851 891 806 935 c 128,-1,3
 761 979 761 979 684 979 c 0,4,5
 574 979 574 979 527.5 883.5 c 128,-1,6
 481 788 481 788 481 553 c 2,7,-1
 481 416 l 1,0,-1
500 262 m 1,8,9
 515 173 515 173 561 128.5 c 128,-1,10
 607 84 607 84 684 84 c 0,11,12
 793 84 793 84 839 178 c 128,-1,13
 885 272 885 272 885 508 c 2,14,-1
 885 649 l 1,15,-1
 500 262 l 1,8,9
1151 913 m 1,16,17
 1217 841 1217 841 1250.5 745.5 c 128,-1,18
 1284 650 1284 650 1284 532 c 0,19,20
 1284 270 1284 270 1124.5 120.5 c 128,-1,21
 965 -29 965 -29 684 -29 c 0,22,23
 573 -29 573 -29 480 -4.5 c 128,-1,24
 387 20 387 20 307 70 c 1,25,-1
 135 -102 l 1,26,-1
 51 -16 l 1,27,-1
 215 147 l 1,28,29
 150 222 150 222 117 318.5 c 128,-1,30
 84 415 84 415 84 532 c 0,31,32
 84 795 84 795 243.5 943.5 c 128,-1,33
 403 1092 403 1092 684 1092 c 0,34,35
 800 1092 800 1092 894.5 1067 c 128,-1,36
 989 1042 989 1042 1061 993 c 1,37,-1
 1229 1161 l 1,38,-1
 1315 1075 l 1,39,-1
 1151 913 l 1,16,17
EndSplineSet
EndChar
StartChar: thorn
Encoding: 254 254 254
Width: 1432
Flags: W
Fore
553 584 m 2,0,-1
 553 479 l 2,1,2
 553 293 553 293 600.5 210 c 128,-1,3
 648 127 648 127 754 127 c 0,4,5
 863 127 863 127 907.5 215 c 128,-1,6
 952 303 952 303 952 532 c 0,7,8
 952 761 952 761 907.5 848.5 c 128,-1,9
 863 936 863 936 754 936 c 0,10,11
 648 936 648 936 600.5 853 c 128,-1,12
 553 770 553 770 553 584 c 2,0,-1
199 1436 m 1,13,-1
 47 1436 l 1,14,-1
 47 1556 l 1,15,-1
 553 1556 l 1,16,-1
 553 928 l 1,17,18
 598 1011 598 1011 674 1051.5 c 128,-1,19
 750 1092 750 1092 862 1092 c 0,20,21
 1089 1092 1089 1092 1219.5 942.5 c 128,-1,22
 1350 793 1350 793 1350 532 c 0,23,24
 1350 271 1350 271 1219.5 121 c 128,-1,25
 1089 -29 1089 -29 862 -29 c 0,26,27
 750 -29 750 -29 674 11.5 c 128,-1,28
 598 52 598 52 553 135 c 1,29,-1
 553 -305 l 1,30,-1
 717 -305 l 1,31,-1
 717 -426 l 1,32,-1
 47 -426 l 1,33,-1
 47 -305 l 1,34,-1
 199 -305 l 1,35,-1
 199 1436 l 1,13,-1
EndSplineSet
EndChar
StartChar: dcroat
Encoding: 273 273 273
Width: 1432
Flags: W
Fore
879 479 m 2,0,-1
 879 584 l 2,1,2
 879 770 879 770 831 853 c 128,-1,3
 783 936 783 936 678 936 c 0,4,5
 568 936 568 936 523.5 848.5 c 128,-1,6
 479 761 479 761 479 532 c 0,7,8
 479 303 479 303 524 215 c 128,-1,9
 569 127 569 127 678 127 c 0,10,11
 783 127 783 127 831 210 c 128,-1,12
 879 293 879 293 879 479 c 2,0,-1
1233 121 m 1,13,-1
 1384 121 l 1,14,-1
 1384 0 l 1,15,-1
 879 0 l 1,16,-1
 879 135 l 1,17,18
 834 52 834 52 757.5 11.5 c 128,-1,19
 681 -29 681 -29 569 -29 c 0,20,21
 343 -29 343 -29 213.5 121 c 128,-1,22
 84 271 84 271 84 532 c 0,23,24
 84 794 84 794 213.5 943 c 128,-1,25
 343 1092 343 1092 569 1092 c 0,26,27
 681 1092 681 1092 757.5 1051.5 c 128,-1,28
 834 1011 834 1011 879 928 c 1,29,-1
 879 1223 l 1,30,-1
 555 1223 l 1,31,-1
 555 1343 l 1,32,-1
 879 1343 l 1,33,-1
 879 1436 l 1,34,-1
 727 1436 l 1,35,-1
 727 1556 l 1,36,-1
 1233 1556 l 1,37,-1
 1233 1343 l 1,38,-1
 1405 1343 l 1,39,-1
 1405 1223 l 1,40,-1
 1233 1223 l 1,41,-1
 1233 121 l 1,13,-1
EndSplineSet
EndChar
StartChar: Hbar
Encoding: 294 294 294
Width: 1935
Flags: W
AnchorPoint: "above" 970 1465 basechar 0
Fore
96 0 m 1,0,-1
 96 121 l 1,1,-1
 287 121 l 1,2,-1
 287 1053 l 1,3,-1
 96 1053 l 1,4,-1
 96 1190 l 1,5,-1
 287 1190 l 1,6,-1
 287 1372 l 1,7,-1
 96 1372 l 1,8,-1
 96 1493 l 1,9,-1
 864 1493 l 1,10,-1
 864 1372 l 1,11,-1
 672 1372 l 1,12,-1
 672 1190 l 1,13,-1
 1266 1190 l 1,14,-1
 1266 1372 l 1,15,-1
 1075 1372 l 1,16,-1
 1075 1493 l 1,17,-1
 1843 1493 l 1,18,-1
 1843 1372 l 1,19,-1
 1651 1372 l 1,20,-1
 1651 1190 l 1,21,-1
 1843 1190 l 1,22,-1
 1843 1053 l 1,23,-1
 1651 1053 l 1,24,-1
 1651 121 l 1,25,-1
 1843 121 l 1,26,-1
 1843 0 l 1,27,-1
 1075 0 l 1,28,-1
 1075 121 l 1,29,-1
 1266 121 l 1,30,-1
 1266 733 l 1,31,-1
 672 733 l 1,32,-1
 672 121 l 1,33,-1
 864 121 l 1,34,-1
 864 0 l 1,35,-1
 96 0 l 1,0,-1
672 870 m 1,36,-1
 1266 870 l 1,37,-1
 1266 1053 l 1,38,-1
 672 1053 l 1,39,-1
 672 870 l 1,36,-1
EndSplineSet
EndChar
StartChar: hbar
Encoding: 295 295 295
Width: 1489
Flags: W
AnchorPoint: "below" 755 0 basechar 0
AnchorPoint: "above" 324 1465 basechar 0
Fore
70 0 m 1,0,-1
 70 121 l 1,1,-1
 221 121 l 1,2,-1
 221 1196 l 1,3,-1
 63 1196 l 1,4,-1
 63 1333 l 1,5,-1
 221 1333 l 1,6,-1
 221 1436 l 1,7,-1
 63 1436 l 1,8,-1
 63 1556 l 1,9,-1
 575 1556 l 1,10,-1
 575 1333 l 1,11,-1
 934 1333 l 1,12,-1
 934 1196 l 1,13,-1
 575 1196 l 1,14,-1
 575 913 l 1,15,16
 639 1008 639 1008 721 1050 c 128,-1,17
 803 1092 803 1092 928 1092 c 0,18,19
 1107 1092 1107 1092 1198.5 986.5 c 128,-1,20
 1290 881 1290 881 1290 676 c 2,21,-1
 1290 121 l 1,22,-1
 1442 121 l 1,23,-1
 1442 0 l 1,24,-1
 807 0 l 1,25,-1
 807 121 l 1,26,-1
 936 121 l 1,27,-1
 936 686 l 2,28,29
 936 821 936 821 901.5 873.5 c 128,-1,30
 867 926 867 926 782 926 c 0,31,32
 675 926 675 926 625 847.5 c 128,-1,33
 575 769 575 769 575 598 c 2,34,-1
 575 121 l 1,35,-1
 705 121 l 1,36,-1
 705 0 l 1,37,-1
 70 0 l 1,0,-1
EndSplineSet
EndChar
StartChar: dotlessi
Encoding: 305 305 305
Width: 778
Flags: W
AnchorPoint: "above" 389 1092 basechar 0
Fore
575 121 m 1,0,-1
 727 121 l 1,1,-1
 727 0 l 1,2,-1
 70 0 l 1,3,-1
 70 121 l 1,4,-1
 221 121 l 1,5,-1
 221 942 l 1,6,-1
 70 942 l 1,7,-1
 70 1063 l 1,8,-1
 575 1063 l 1,9,-1
 575 121 l 1,0,-1
EndSplineSet
EndChar
StartChar: kgreenlandic
Encoding: 312 312 312
Width: 1419
Flags: W
Fore
709 0 m 1,0,-1
 70 0 l 1,1,-1
 70 121 l 1,2,-1
 221 121 l 1,3,-1
 221 939 l 1,4,-1
 70 939 l 1,5,-1
 70 1060 l 1,6,-1
 575 1060 l 1,7,-1
 575 556 l 1,8,-1
 1004 939 l 1,9,-1
 877 939 l 1,10,-1
 877 1060 l 1,11,-1
 1362 1060 l 1,12,-1
 1362 939 l 1,13,-1
 1165 939 l 1,14,-1
 891 695 l 1,15,-1
 1339 121 l 1,16,-1
 1454 121 l 1,17,-1
 1454 0 l 1,18,-1
 844 0 l 1,19,-1
 844 121 l 1,20,-1
 969 121 l 1,21,-1
 674 499 l 1,22,-1
 575 411 l 1,23,-1
 575 121 l 1,24,-1
 709 121 l 1,25,-1
 709 0 l 1,0,-1
EndSplineSet
EndChar
StartChar: Lslash
Encoding: 321 321 321
Width: 1454
Flags: W
Fore
109 0 m 1,0,-1
 109 121 l 1,1,-1
 301 121 l 1,2,-1
 301 549 l 1,3,-1
 86 422 l 1,4,-1
 16 539 l 1,5,-1
 301 707 l 1,6,-1
 301 1372 l 1,7,-1
 109 1372 l 1,8,-1
 109 1493 l 1,9,-1
 877 1493 l 1,10,-1
 877 1372 l 1,11,-1
 686 1372 l 1,12,-1
 686 938 l 1,13,-1
 1026 1139 l 1,14,-1
 1096 1022 l 1,15,-1
 686 778 l 1,16,-1
 686 137 l 1,17,-1
 1274 137 l 1,18,-1
 1274 373 l 1,19,-1
 1409 373 l 1,20,-1
 1409 0 l 1,21,-1
 109 0 l 1,0,-1
EndSplineSet
EndChar
StartChar: lslash
Encoding: 322 322 322
Width: 788
Flags: W
Fore
580 121 m 1,0,-1
 731 121 l 1,1,-1
 731 0 l 1,2,-1
 74 0 l 1,3,-1
 74 121 l 1,4,-1
 225 121 l 1,5,-1
 225 653 l 1,6,-1
 70 557 l 1,7,-1
 8 662 l 1,8,-1
 225 795 l 1,9,-1
 225 1436 l 1,10,-1
 74 1436 l 1,11,-1
 74 1556 l 1,12,-1
 580 1556 l 1,13,-1
 580 999 l 1,14,-1
 735 1096 l 1,15,-1
 799 991 l 1,16,-1
 580 858 l 1,17,-1
 580 121 l 1,0,-1
EndSplineSet
EndChar
StartChar: Eng
Encoding: 330 330 330
Width: 1786
Flags: W
Fore
70 0 m 1,0,-1
 70 121 l 1,1,-1
 260 121 l 1,2,-1
 260 1372 l 1,3,-1
 109 1372 l 1,4,-1
 109 1493 l 1,5,-1
 647 1493 l 1,6,-1
 647 1339 l 1,7,8
 727 1436 727 1436 831 1479 c 0,9,10
 932 1521 932 1521 1093 1521 c 0,11,12
 1319 1521 1319 1521 1434.5 1380 c 128,-1,13
 1550 1239 1550 1239 1550 965 c 2,14,-1
 1550 41 l 2,15,16
 1550 -202 1550 -202 1427 -314 c 128,-1,17
 1304 -426 1304 -426 1037 -426 c 0,18,19
 954 -426 954 -426 870 -409 c 128,-1,20
 786 -392 786 -392 699 -358 c 1,21,-1
 699 -123 l 1,22,-1
 832 -123 l 1,23,24
 832 -217 832 -217 873.5 -261 c 128,-1,25
 915 -305 915 -305 991 -305 c 0,26,27
 1088 -305 1088 -305 1126.5 -230.5 c 128,-1,28
 1165 -156 1165 -156 1165 49 c 2,29,-1
 1165 927 l 2,30,31
 1165 1176 1165 1176 1115.5 1273 c 128,-1,32
 1066 1370 1066 1370 944 1370 c 0,33,34
 793 1370 793 1370 719 1243 c 0,35,36
 647 1121 647 1121 647 841 c 2,37,-1
 647 121 l 1,38,-1
 838 121 l 1,39,-1
 838 0 l 1,40,-1
 70 0 l 1,0,-1
EndSplineSet
Substitution2: "'locl' Localized Forms in Latin - Sami" Eng.alt
EndChar
StartChar: eng
Encoding: 331 331 331
Width: 1489
Flags: W
AnchorPoint: "above" 664 1092 basechar 0
AnchorPoint: "below" 755 -430 basechar 0
Fore
70 0 m 1,0,-1
 70 121 l 1,1,-1
 221 121 l 1,2,-1
 221 942 l 1,3,-1
 70 942 l 1,4,-1
 70 1063 l 1,5,-1
 575 1063 l 1,6,-1
 575 913 l 1,7,8
 639 1008 639 1008 721 1050 c 128,-1,9
 803 1092 803 1092 928 1092 c 0,10,11
 1107 1092 1107 1092 1198.5 986.5 c 128,-1,12
 1290 881 1290 881 1290 676 c 2,13,-1
 1290 -125 l 2,14,15
 1290 -288 1290 -288 1174.5 -371.5 c 128,-1,16
 1059 -455 1059 -455 834 -455 c 0,17,18
 774 -455 774 -455 706 -445 c 128,-1,19
 638 -435 638 -435 565 -416 c 1,20,-1
 565 -191 l 1,21,-1
 678 -191 l 1,22,23
 680 -271 680 -271 709.5 -306.5 c 128,-1,24
 739 -342 739 -342 805 -342 c 0,25,26
 878 -342 878 -342 907 -295 c 128,-1,27
 936 -248 936 -248 936 -125 c 2,28,-1
 936 686 l 2,29,30
 936 821 936 821 901.5 873.5 c 128,-1,31
 867 926 867 926 782 926 c 0,32,33
 675 926 675 926 625 847.5 c 128,-1,34
 575 769 575 769 575 598 c 2,35,-1
 575 121 l 1,36,-1
 705 121 l 1,37,-1
 705 0 l 1,38,-1
 70 0 l 1,0,-1
EndSplineSet
EndChar
StartChar: OE
Encoding: 338 338 338
Width: 2417
Flags: W
AnchorPoint: "above" 1354 1465 basechar 0
AnchorPoint: "below" 1354 0 basechar 0
Fore
1165 121 m 1,0,-1
 1165 1372 l 1,1,-1
 1038 1372 l 2,2,3
 774 1372 774 1372 640 1215 c 128,-1,4
 506 1058 506 1058 506 748 c 0,5,6
 506 434 506 434 639 277.5 c 128,-1,7
 772 121 772 121 1038 121 c 2,8,-1
 1165 121 l 1,0,-1
2312 0 m 1,9,-1
 991 0 l 2,10,11
 784 0 784 0 648.5 26 c 128,-1,12
 513 52 513 52 412 109 c 1,13,14
 255 195 255 195 170.5 361 c 128,-1,15
 86 527 86 527 86 748 c 0,16,17
 86 968 86 968 170.5 1132.5 c 128,-1,18
 255 1297 255 1297 412 1384 c 1,19,20
 512 1442 512 1442 646 1467.5 c 128,-1,21
 780 1493 780 1493 991 1493 c 2,22,-1
 2294 1493 l 1,23,-1
 2294 1141 l 1,24,-1
 2157 1141 l 1,25,-1
 2157 1356 l 1,26,-1
 1552 1356 l 1,27,-1
 1552 877 l 1,28,-1
 1919 877 l 1,29,-1
 1919 1067 l 1,30,-1
 2056 1067 l 1,31,-1
 2056 551 l 1,32,-1
 1919 551 l 1,33,-1
 1919 741 l 1,34,-1
 1552 741 l 1,35,-1
 1552 137 l 1,36,-1
 2175 137 l 1,37,-1
 2175 352 l 1,38,-1
 2312 352 l 1,39,-1
 2312 0 l 1,9,-1
EndSplineSet
EndChar
StartChar: oe
Encoding: 339 339 339
Width: 2105
Flags: W
AnchorPoint: "below" 1085 0 basechar 0
AnchorPoint: "above" 1085 1092 basechar 0
Fore
684 84 m 0,0,1
 796 84 796 84 841.5 180 c 128,-1,2
 887 276 887 276 887 532 c 0,3,4
 887 788 887 788 842 883.5 c 128,-1,5
 797 979 797 979 684 979 c 0,6,7
 571 979 571 979 525 882.5 c 128,-1,8
 479 786 479 786 479 532 c 0,9,10
 479 278 479 278 525 181 c 128,-1,11
 571 84 571 84 684 84 c 0,0,1
1624 600 m 1,12,13
 1624 810 1624 810 1584.5 894.5 c 128,-1,14
 1545 979 1545 979 1452 979 c 0,15,16
 1362 979 1362 979 1323 897 c 128,-1,17
 1284 815 1284 815 1284 618 c 2,18,-1
 1284 600 l 1,19,-1
 1624 600 l 1,12,13
1085 936 m 1,20,21
 1160 1016 1160 1016 1253 1054 c 128,-1,22
 1346 1092 1346 1092 1464 1092 c 0,23,24
 1724 1092 1724 1092 1865 935 c 128,-1,25
 2006 778 2006 778 2015 482 c 1,26,-1
 1284 481 l 1,27,-1
 1284 473 l 2,28,29
 1284 266 1284 266 1345 175 c 128,-1,30
 1406 84 1406 84 1544 84 c 0,31,32
 1659 84 1659 84 1730 145 c 128,-1,33
 1801 206 1801 206 1821 322 c 1,34,-1
 1987 322 l 1,35,36
 1948 148 1948 148 1822 59.5 c 128,-1,37
 1696 -29 1696 -29 1487 -29 c 0,38,39
 1355 -29 1355 -29 1256 9.5 c 128,-1,40
 1157 48 1157 48 1085 127 c 1,41,42
 1015 50 1015 50 909 10.5 c 128,-1,43
 803 -29 803 -29 668 -29 c 0,44,45
 398 -29 398 -29 241 122 c 128,-1,46
 84 273 84 273 84 532 c 0,47,48
 84 795 84 795 243.5 943.5 c 128,-1,49
 403 1092 403 1092 684 1092 c 0,50,51
 811 1092 811 1092 910.5 1053.5 c 128,-1,52
 1010 1015 1010 1015 1085 936 c 1,20,21
EndSplineSet
EndChar
StartChar: Tbar
Encoding: 358 358 358
Width: 1524
Flags: W
Fore
371 0 m 1,0,-1
 371 121 l 1,1,-1
 569 121 l 1,2,-1
 569 659 l 1,3,-1
 322 659 l 1,4,-1
 322 851 l 1,5,-1
 569 851 l 1,6,-1
 569 1356 l 1,7,-1
 160 1356 l 1,8,-1
 160 1120 l 1,9,-1
 23 1120 l 1,10,-1
 23 1493 l 1,11,-1
 1503 1493 l 1,12,-1
 1503 1120 l 1,13,-1
 1368 1120 l 1,14,-1
 1368 1356 l 1,15,-1
 956 1356 l 1,16,-1
 956 851 l 1,17,-1
 1203 851 l 1,18,-1
 1203 659 l 1,19,-1
 956 659 l 1,20,-1
 956 121 l 1,21,-1
 1155 121 l 1,22,-1
 1155 0 l 1,23,-1
 371 0 l 1,0,-1
EndSplineSet
EndChar
StartChar: tbar
Encoding: 359 359 359
Width: 946
Flags: W
Fore
203 942 m 1,0,-1
 49 942 l 1,1,-1
 49 1063 l 1,2,-1
 203 1063 l 1,3,-1
 203 1393 l 1,4,-1
 557 1393 l 1,5,-1
 557 1063 l 1,6,-1
 852 1063 l 1,7,-1
 852 942 l 1,8,-1
 557 942 l 1,9,-1
 557 665 l 1,10,-1
 741 665 l 1,11,-1
 741 473 l 1,12,-1
 557 473 l 1,13,-1
 557 291 l 2,14,15
 557 152 557 152 579 118 c 128,-1,16
 601 84 601 84 659 84 c 0,17,18
 723 84 723 84 754 127 c 128,-1,19
 785 170 785 170 787 260 c 1,20,-1
 936 260 l 1,21,22
 927 100 927 100 848 36 c 0,23,24
 770 -29 770 -29 578 -29 c 0,25,26
 359 -29 359 -29 281 40 c 0,27,28
 203 108 203 108 203 291 c 2,29,-1
 203 473 l 1,30,-1
 55 473 l 1,31,-1
 55 665 l 1,32,-1
 203 665 l 1,33,-1
 203 942 l 1,0,-1
EndSplineSet
EndChar
StartChar: longs
Encoding: 383 383 383
Width: 881
Flags: W
Fore
575 121 m 1,0,-1
 780 121 l 1,1,-1
 780 0 l 1,2,-1
 70 0 l 1,3,-1
 70 121 l 1,4,-1
 221 121 l 1,5,-1
 221 942 l 1,6,-1
 63 942 l 1,7,-1
 63 1063 l 1,8,-1
 221 1063 l 1,9,-1
 221 1196 l 2,10,11
 221 1373 221 1373 334 1464.5 c 128,-1,12
 447 1556 447 1556 666 1556 c 0,13,14
 751 1556 751 1556 832 1546.5 c 128,-1,15
 913 1537 913 1537 991 1518 c 1,16,-1
 991 1290 l 1,17,-1
 879 1290 l 1,18,19
 871 1368 871 1368 833.5 1406 c 128,-1,20
 796 1444 796 1444 727 1444 c 0,21,22
 647 1444 647 1444 611 1386.5 c 0,23,24
 575 1324.33 575 1324.33 575 1200 c 2,25,-1
 575 121 l 1,0,-1
EndSplineSet
EndChar
StartChar: uni0180
Encoding: 384 384 384
Width: 1432
Flags: W
AnchorPoint: "below" 673 0 basechar 0
AnchorPoint: "above" 324 1465 basechar 0
Fore
199 121 m 1,0,-1
 199 1196 l 1,1,-1
 41 1196 l 1,2,-1
 41 1333 l 1,3,-1
 199 1333 l 1,4,-1
 199 1436 l 1,5,-1
 47 1436 l 1,6,-1
 47 1556 l 1,7,-1
 553 1556 l 1,8,-1
 553 1333 l 1,9,-1
 912 1333 l 1,10,-1
 912 1196 l 1,11,-1
 553 1196 l 9,12,-1
 553 928 l 17,13,14
 598 1011 598 1011 674 1051.5 c 128,-1,15
 750 1092 750 1092 862 1092 c 0,16,17
 1089 1092 1089 1092 1219.5 942.5 c 128,-1,18
 1350 793 1350 793 1350 532 c 0,19,20
 1350 271 1350 271 1219.5 121 c 128,-1,21
 1089 -29 1089 -29 862 -29 c 0,22,23
 750 -29 750 -29 674 11.5 c 128,-1,24
 598 52 598 52 553 135 c 1,25,-1
 553 0 l 1,26,-1
 47 0 l 1,27,-1
 47 121 l 1,28,-1
 199 121 l 1,0,-1
553 479 m 2,29,30
 553 293 553 293 600.5 210 c 128,-1,31
 648 127 648 127 754 127 c 0,32,33
 863 127 863 127 907.5 215 c 128,-1,34
 952 303 952 303 952 532 c 0,35,36
 952 761 952 761 907.5 848.5 c 128,-1,37
 863 936 863 936 754 936 c 0,38,39
 648 936 648 936 600.5 853 c 128,-1,40
 553 770 553 770 553 584 c 2,41,-1
 553 479 l 2,29,30
EndSplineSet
EndChar
StartChar: uni0181
Encoding: 385 385 385
Width: 1731
Flags: W
Fore
287 1493 m 9,0,-1
 981 1493 l 18,1,2
 1258 1493 1258 1493 1391 1401 c 0,3,4
 1528 1306 1528 1306 1528 1124 c 0,5,6
 1528 991 1528 991 1434 913 c 0,7,8
 1339 835 1339 835 1153 815 c 1,9,10
 1378 815 1378 815 1498 695 c 0,11,12
 1618 596 1618 596 1618 432 c 0,13,14
 1618 210 1618 210 1450 105 c 0,15,16
 1283 0 1283 0 926 0 c 2,17,-1
 96 0 l 1,18,-1
 96 121 l 1,19,-1
 287 121 l 1,20,-1
 287 1372 l 0,21,22
 91 1372 91 1372 22 1283 c 0,23,24
 -48 1192 -48 1192 -48 1006 c 1,25,-1
 -246 1006 l 1,26,-1
 -246 1364 l 1,27,28
 -163 1433 -163 1433 74 1476 c 0,29,30
 169 1493 169 1493 287 1493 c 9,0,-1
672 870 m 1,31,-1
 803 870 l 2,32,33
 975 870 975 870 1058 932 c 0,34,35
 1141 995 1141 995 1141 1124 c 0,36,37
 1141 1254 1141 1254 1060 1313 c 0,38,39
 980 1372 980 1372 803 1372 c 2,40,-1
 672 1372 l 1,41,-1
 672 870 l 1,31,-1
672 121 m 1,42,-1
 815 121 l 2,43,44
 1006 121 1006 121 1098 197 c 128,-1,45
 1190 273 1190 273 1190 432 c 0,46,47
 1190 592 1190 592 1097 671 c 128,-1,48
 1004 750 1004 750 815 750 c 2,49,-1
 672 750 l 1,50,-1
 672 121 l 1,42,-1
EndSplineSet
EndChar
StartChar: uni0183
Encoding: 387 387 387
Width: 1432
Flags: W
Fore
553 479 m 2,0,1
 553 293 553 293 600 210 c 0,2,3
 648 127 648 127 754 127 c 0,4,5
 863 127 863 127 908 215 c 0,6,7
 952 303 952 303 952 532 c 128,-1,8
 952 761 952 761 908 848 c 0,9,10
 863 936 863 936 754 936 c 0,11,12
 648 936 648 936 600 853 c 0,13,14
 553 770 553 770 553 584 c 2,15,-1
 553 479 l 2,0,1
1152 1556 m 1,16,-1
 1152 1268 l 1,17,-1
 1031 1268 l 1,18,-1
 1031 1436 l 1,19,-1
 553 1436 l 1,20,-1
 553 928 l 1,21,22
 598 1011 598 1011 674 1052 c 0,23,24
 750 1092 750 1092 862 1092 c 0,25,26
 1089 1092 1089 1092 1220 942 c 0,27,28
 1350 793 1350 793 1350 532 c 128,-1,29
 1350 271 1350 271 1220 121 c 0,30,31
 1089 -29 1089 -29 862 -29 c 0,32,33
 750 -29 750 -29 674 12 c 0,34,35
 598 52 598 52 553 135 c 1,36,-1
 553 0 l 1,37,-1
 47 0 l 1,38,-1
 47 121 l 1,39,-1
 199 121 l 1,40,-1
 199 1436 l 1,41,-1
 47 1436 l 1,42,-1
 47 1556 l 1,43,-1
 1152 1556 l 1,16,-1
EndSplineSet
EndChar
StartChar: uni0184
Encoding: 388 388 388
Width: 1750
Flags: W
Fore
672 870 m 1,0,-1
 804 870 l 2,1,2
 1008.33 870 1008.33 870 1148.79 852.375 c 0,3,4
 1162.15 850.698 1162.15 850.698 1172 849 c 0,5,6
 1369.28 814.987 1369.28 814.987 1513.5 697.868 c 0,7,8
 1515.25 696.44 1515.25 696.44 1517 695 c 0,9,10
 1637 596 1637 596 1637 432 c 0,11,12
 1637 209.997 1637 209.997 1469.5 105 c 128,-1,13
 1301.99 0 1301.99 0 927 0 c 2,14,-1
 96 0 l 1,15,-1
 96 121 l 1,16,-1
 287 121 l 1,17,-1
 287 834 l 1,18,-1
 0 834 l 1,19,-1
 0 955 l 1,20,-1
 672 1493 l 1,21,-1
 672 870 l 1,0,-1
672 121 m 1,22,-1
 816 121 l 2,23,24
 1017.73 121 1017.73 121 1111.36 192.523 c 0,25,26
 1114.26 194.733 1114.26 194.733 1117 197 c 0,27,28
 1209 273.005 1209 273.005 1209 432 c 0,29,30
 1209 592 1209 592 1116 671 c 0,31,32
 1027.38 746.282 1027.38 746.282 832.298 749.852 c 0,33,34
 824.193 750 824.193 750 816 750 c 2,35,-1
 672 750 l 1,36,-1
 672 121 l 1,22,-1
EndSplineSet
EndChar
StartChar: uni0185
Encoding: 389 389 389
Width: 1432
Flags: W
Fore
553 479 m 2,0,1
 553 293 553 293 600.5 210 c 128,-1,2
 648 127 648 127 754 127 c 0,3,4
 863 127 863 127 907.5 215 c 128,-1,5
 952 303 952 303 952 532 c 128,-1,6
 952 761 952 761 907.5 848.5 c 128,-1,7
 863 936 863 936 754 936 c 0,8,9
 648 936 648 936 600.5 853 c 128,-1,10
 553 770 553 770 553 584 c 2,11,-1
 553 479 l 2,0,1
0 1008 m 1,12,-1
 0 1128 l 1,13,-1
 553 1557 l 1,14,-1
 553 928 l 1,15,16
 598 1011 598 1011 674 1051.5 c 128,-1,17
 750 1092 750 1092 862 1092 c 0,18,19
 1089 1092 1089 1092 1219.5 942.5 c 128,-1,20
 1350 793 1350 793 1350 532 c 128,-1,21
 1350 271 1350 271 1219.5 121 c 128,-1,22
 1089 -29 1089 -29 862 -29 c 0,23,24
 750 -29 750 -29 674 11.5 c 128,-1,25
 598 52 598 52 553 135 c 1,26,-1
 553 0 l 1,27,-1
 47 0 l 1,28,-1
 47 121 l 1,29,-1
 199 121 l 1,30,-1
 198 1008 l 1,31,-1
 0 1008 l 1,12,-1
EndSplineSet
EndChar
StartChar: uni0186
Encoding: 390 390 390
Width: 1630
Flags: W
AnchorPoint: "above" 733 1465 basechar 0
Fore
86 1065 m 1,0,1
 145 1296 145 1296 298 1408 c 128,-1,2
 451 1520 451 1520 709 1520 c 0,3,4
 1087 1520 1087 1520 1306.5 1311.5 c 128,-1,5
 1526 1103 1526 1103 1526 746 c 0,6,7
 1526 388 1526 388 1306.5 179.5 c 128,-1,8
 1087 -29 1087 -29 709 -29 c 0,9,10
 576 -29 576 -29 432 3 c 128,-1,11
 288 35 288 35 127 100 c 1,12,-1
 127 467 l 1,13,-1
 254 467 l 1,14,15
 293 279 293 279 396 185.5 c 128,-1,16
 499 92 499 92 668 92 c 0,17,18
 886 92 886 92 992 252.5 c 128,-1,19
 1098 413 1098 413 1098 746 c 0,20,21
 1098 1079 1098 1079 992 1239 c 128,-1,22
 886 1399 886 1399 666 1399 c 0,23,24
 517 1399 517 1399 422.5 1316 c 128,-1,25
 328 1233 328 1233 285 1065 c 1,26,-1
 86 1065 l 1,0,1
EndSplineSet
EndChar
StartChar: uni0187
Encoding: 391 391 391
Width: 1630
Flags: W
AnchorPoint: "above" 889 1465 basechar 0
Fore
1526 426 m 1,0,1
 1467 195 1467 195 1314 83 c 0,2,3
 1161 -29 1161 -29 903 -29 c 0,4,5
 525 -29 525 -29 306 180 c 0,6,7
 86 388 86 388 86 745 c 0,8,9
 86 1103 86 1103 306 1312 c 0,10,11
 525 1520 525 1520 903 1520 c 0,12,13
 1036 1520 1036 1520 1180 1488 c 0,14,15
 1238 1475 1238 1475 1299 1457 c 1,16,17
 1316 1583 1316 1583 1400 1652 c 0,18,19
 1485 1721 1485 1721 1587 1721 c 0,20,21
 1647 1721 1647 1721 1715 1711 c 0,22,23
 1783 1701 1783 1701 1856 1682 c 1,24,-1
 1856 1457 l 1,25,-1
 1743 1457 l 1,26,27
 1743 1537 1743 1537 1712 1572 c 0,28,29
 1682 1608 1682 1608 1616 1608 c 0,30,31
 1543 1608 1543 1608 1514 1561 c 0,32,33
 1485 1514 1485 1514 1485 1391 c 2,34,-1
 1485 1024 l 1,35,-1
 1358 1024 l 1,36,37
 1319 1212 1319 1212 1216 1306 c 0,38,39
 1113 1399 1113 1399 944 1399 c 0,40,41
 726 1399 726 1399 620 1238 c 0,42,43
 514 1078 514 1078 514 745 c 0,44,45
 514 412 514 412 620 252 c 0,46,47
 726 92 726 92 946 92 c 0,48,49
 1095 92 1095 92 1190 175 c 0,50,51
 1284 258 1284 258 1327 426 c 1,52,-1
 1526 426 l 1,0,1
EndSplineSet
EndChar
StartChar: uni0188
Encoding: 392 392 392
Width: 1247
Flags: W
AnchorPoint: "above" 664 1092 basechar 0
Fore
1155 332 m 1,0,1
 1117 150 1117 150 1000 60 c 0,2,3
 882 -29 882 -29 680 -29 c 0,4,5
 396 -29 396 -29 240 118 c 0,6,7
 84 265 84 265 84 532 c 0,8,9
 84 796 84 796 238 944 c 0,10,11
 392 1092 392 1092 666 1092 c 0,12,13
 776 1092 776 1092 888 1071 c 1,14,-1
 888 1123 l 2,15,16
 888 1286 888 1286 1004 1370 c 0,17,18
 1119 1453 1119 1453 1222 1453 c 0,19,20
 1282 1453 1282 1453 1350 1443 c 0,21,22
 1418 1433 1418 1433 1491 1414 c 1,23,-1
 1491 1189 l 1,24,-1
 1378 1189 l 1,25,26
 1378 1269 1378 1269 1346 1304 c 0,27,28
 1317 1340 1317 1340 1251 1340 c 0,29,30
 1178 1340 1178 1340 1149 1293 c 0,31,32
 1120 1246 1120 1246 1120 1123 c 2,33,-1
 1120 1008 l 1,34,-1
 1120 713 l 1,35,-1
 1008 713 l 1,36,37
 992 848 992 848 929 914 c 0,38,39
 866 979 866 979 752 979 c 0,40,41
 604 979 604 979 542 879 c 0,42,43
 479 779 479 779 479 532 c 0,44,45
 479 291 479 291 540 188 c 0,46,47
 601 84 601 84 739 84 c 0,48,49
 846 84 846 84 910 148 c 0,50,51
 975 212 975 212 989 332 c 1,52,-1
 1155 332 l 1,0,1
EndSplineSet
EndChar
StartChar: uni018A
Encoding: 394 394 394
Width: 1776
Flags: W
AnchorPoint: "above" 865 1465 basechar 0
Fore
287 1493 m 2,0,-1
 862 1493 l 2,1,2
 1264 1493 1264 1493 1477 1301 c 128,-1,3
 1690 1109 1690 1109 1690 748 c 0,4,5
 1690 385 1690 385 1476 192 c 0,6,7
 1263 0 1263 0 862 0 c 2,8,-1
 96 0 l 1,9,-1
 96 121 l 1,10,-1
 287 121 l 1,11,-1
 287 1372 l 17,12,13
 91 1372 91 1372 22 1283 c 0,14,15
 -48 1192 -48 1192 -48 1006 c 1,16,-1
 -246 1006 l 1,17,-1
 -246 1364 l 1,18,19
 -163 1433 -163 1433 74 1476 c 0,20,21
 169 1493 169 1493 287 1493 c 2,0,-1
672 121 m 1,22,-1
 811 121 l 2,23,24
 1045 121 1045 121 1154 271 c 0,25,26
 1262 421 1262 421 1262 748 c 0,27,28
 1262 1073 1262 1073 1154 1222 c 0,29,30
 1046 1372 1046 1372 811 1372 c 2,31,-1
 672 1372 l 1,32,-1
 672 121 l 1,22,-1
EndSplineSet
EndChar
StartChar: uni018B
Encoding: 395 395 395
Width: 1750
Flags: W
Fore
1061 1356 m 1,0,-1
 322 1356 l 1,1,-1
 322 1120 l 1,2,-1
 187 1120 l 1,3,-1
 187 1493 l 1,4,-1
 1637 1493 l 1,5,-1
 1637 1372 l 1,6,-1
 1446 1372 l 1,7,-1
 1446 121 l 1,8,-1
 1637 121 l 1,9,-1
 1637 0 l 1,10,-1
 806 0 l 2,11,12
 431 0 431 0 264 105 c 0,13,14
 96 210 96 210 96 432 c 0,15,16
 96 596 96 596 216 695 c 0,17,18
 218 696 218 696 220 698 c 0,19,20
 364 815 364 815 561 849 c 0,21,22
 571 851 571 851 584 852 c 0,23,24
 725 870 725 870 929 870 c 2,25,-1
 1061 870 l 1,26,-1
 1061 1356 l 1,0,-1
1061 121 m 1,27,-1
 1061 750 l 1,28,-1
 917 750 l 2,29,-1
 901 750 l 0,30,31
 706 750 706 750 617 671 c 0,32,33
 524 592 524 592 524 432 c 0,34,35
 524 273 524 273 616 197 c 0,36,-1
 622 193 l 0,37,38
 715 121 715 121 917 121 c 2,39,-1
 1061 121 l 1,27,-1
EndSplineSet
EndChar
StartChar: uni018C
Encoding: 396 396 396
Width: 1432
Flags: W
Fore
844 479 m 2,0,-1
 844 584 l 2,1,2
 844 770 844 770 796 853 c 0,3,4
 749 936 749 936 643 936 c 0,5,6
 534 936 534 936 490 848 c 0,7,8
 445 761 445 761 445 532 c 128,-1,9
 445 303 445 303 490 215 c 0,10,11
 534 127 534 127 643 127 c 0,12,13
 749 127 749 127 796 210 c 0,14,15
 844 293 844 293 844 479 c 2,0,-1
1349 1436 m 1,16,-1
 1198 1436 l 1,17,-1
 1198 121 l 1,18,-1
 1350 121 l 1,19,-1
 1350 0 l 1,20,-1
 844 0 l 1,21,-1
 844 135 l 1,22,23
 799 52 799 52 723 12 c 0,24,25
 647 -29 647 -29 535 -29 c 0,26,27
 308 -29 308 -29 178 121 c 0,28,29
 47 271 47 271 47 532 c 128,-1,30
 47 793 47 793 178 942 c 0,31,32
 308 1092 308 1092 535 1092 c 0,33,34
 647 1092 647 1092 723 1052 c 0,35,36
 799 1011 799 1011 844 928 c 1,37,-1
 844 1436 l 1,38,-1
 366 1436 l 1,39,-1
 366 1268 l 1,40,-1
 245 1268 l 1,41,-1
 245 1556 l 1,42,-1
 1349 1556 l 1,43,-1
 1349 1436 l 1,16,-1
EndSplineSet
EndChar
StartChar: uni018D
Encoding: 397 397 397
Width: 1366
Flags: W
Fore
1012 41 m 8,0,1
 1175 -53 1175 -53 1175 -197 c 0,2,3
 1175 -366 1175 -366 1042 -435 c 0,4,-1
 1030 -441 l 0,5,6
 901 -504 901 -504 684 -504 c 0,7,8
 584 -504 584 -504 461 -491 c 0,9,10
 341 -478 341 -478 225 -454 c 1,11,-1
 225 -241 l 1,12,-1
 337 -241 l 1,13,14
 342 -277 342 -277 358 -298 c 0,15,16
 368 -312 368 -312 413 -345 c 1,17,18
 479 -391 479 -391 586 -391 c 0,19,20
 706 -391 706 -391 770 -343 c 1,21,-1
 803 -316 l 1,22,23
 842 -281 842 -281 834 -193 c 0,24,25
 834 -29 834 -29 684 -29 c 1,26,27
 401 -29 401 -29 243 120 c 0,28,29
 84 269 84 269 84 531 c 128,-1,30
 84 793 84 793 244 942 c 0,31,32
 403 1092 403 1092 684 1092 c 128,-1,33
 965 1092 965 1092 1124 942 c 0,34,35
 1284 793 1284 793 1284 531 c 0,36,37
 1284 268 1284 268 1124 120 c 0,38,39
 1029 31 1029 31 1012 41 c 8,0,1
684 979 m 0,40,41
 572 979 572 979 526 883 c 0,42,43
 481 787 481 787 481 531 c 128,-1,44
 481 275 481 275 526 180 c 0,45,46
 571 84 571 84 684 84 c 128,-1,47
 797 84 797 84 843 180 c 0,48,49
 889 277 889 277 889 531 c 128,-1,50
 889 785 889 785 843 882 c 128,-1,51
 797 979 797 979 684 979 c 0,40,41
EndSplineSet
EndChar
StartChar: uni018E
Encoding: 398 398 398
Width: 1561
Flags: W
AnchorPoint: "above" 737 1465 basechar 0
Fore
1456 0 m 1,0,-1
 96 0 l 1,1,-1
 96 352 l 1,2,-1
 233 352 l 1,3,-1
 233 137 l 1,4,-1
 880 137 l 1,5,-1
 880 741 l 1,6,-1
 489 741 l 1,7,-1
 489 551 l 1,8,-1
 352 551 l 1,9,-1
 352 1067 l 1,10,-1
 489 1067 l 1,11,-1
 489 877 l 1,12,-1
 880 877 l 1,13,-1
 880 1356 l 1,14,-1
 252 1356 l 1,15,-1
 252 1141 l 1,16,-1
 114 1141 l 1,17,-1
 114 1493 l 1,18,-1
 1456 1493 l 1,19,-1
 1456 1372 l 1,20,-1
 1265 1372 l 1,21,-1
 1265 121 l 1,22,-1
 1456 121 l 1,23,-1
 1456 0 l 1,0,-1
EndSplineSet
EndChar
StartChar: uni018F
Encoding: 399 399 399
Width: 1784
Flags: W
AnchorPoint: "above" 893 1465 basechar 0
Fore
1266 830 m 1,0,1
 1266 1099 1266 1099 1162 1238 c 0,2,3
 1056 1398 1056 1398 836 1398 c 0,4,5
 687 1398 687 1398 592 1315 c 0,6,7
 498 1232 498 1232 455 1063 c 1,8,-1
 256 1063 l 1,9,10
 315 1294 315 1294 468 1407 c 0,11,12
 621 1519 621 1519 879 1519 c 0,13,14
 1257 1519 1257 1519 1476 1310 c 0,15,16
 1696 1102 1696 1102 1696 745 c 0,17,18
 1696 383 1696 383 1482 177 c 0,19,20
 1267 -29 1267 -29 891 -29 c 0,21,22
 514 -29 514 -29 300 177 c 0,23,24
 86 383 86 383 86 745 c 2,25,-1
 86 830 l 1,26,-1
 1266 830 l 1,0,1
1267 669 m 1,27,-1
 515 669 l 1,28,29
 515 388 515 388 608 254 c 0,30,31
 708 92 708 92 891 92 c 0,32,33
 1082 92 1082 92 1175 253 c 0,34,35
 1267 395 1267 395 1267 669 c 1,27,-1
EndSplineSet
EndChar
StartChar: uni0190
Encoding: 400 400 400
Width: 1477
Flags: W
AnchorPoint: "below" 779 0 basechar 0
AnchorPoint: "above" 779 1465 basechar 0
Fore
1304 1450 m 1,0,-1
 1304 1151 l 1,1,-1
 1183 1151 l 1,2,3
 1169 1274 1169 1274 1100 1338.5 c 128,-1,4
 1031 1403 1031 1403 862 1403 c 0,5,6
 693 1403 693 1403 623.5 1335.5 c 128,-1,7
 554 1268 554 1268 554 1137 c 0,8,9
 554 1006 554 1006 628 938 c 128,-1,10
 702 870 702 870 969 870 c 2,11,-1
 1021 870 l 1,12,-1
 1021 750 l 1,13,-1
 955 750 l 2,14,15
 676 750 676 750 589.5 662 c 128,-1,16
 503 574 503 574 503 416 c 0,17,18
 503 257 503 257 579.5 172.5 c 128,-1,19
 656 88 656 88 848 88 c 0,20,21
 979.445 88 979.445 88 1069.73 157.048 c 128,-1,22
 1160.01 226.095 1160.01 226.095 1167 283 c 1,23,-1
 1366 283 l 1,24,25
 1319.76 171.7 1319.76 171.7 1178.49 71.3501 c 128,-1,26
 1037.2 -29 1037.2 -29 800 -29 c 0,27,28
 420 -29 420 -29 258 82.5 c 128,-1,29
 96 194 96 194 96 403 c 0,30,31
 96 574 96 574 197.5 681.5 c 128,-1,32
 299 789 299 789 483 815 c 1,33,34
 323 844 323 844 240 928 c 128,-1,35
 157 1012 157 1012 157 1147 c 0,36,37
 157 1327 157 1327 301.5 1423.5 c 128,-1,38
 446 1520 446 1520 792 1520 c 0,39,40
 924 1520 924 1520 1048 1502.5 c 128,-1,41
 1172 1485 1172 1485 1304 1450 c 1,0,-1
EndSplineSet
EndChar
StartChar: uni0191
Encoding: 401 401 401
Width: 1454
Flags: W
Fore
162 -426 m 0,0,1
 -2 -426 -2 -426 -176 -358 c 1,2,-1
 -176 -123 l 1,3,-1
 -46 -123 l 1,4,5
 -46 -266 -46 -266 54 -296 c 0,6,7
 80 -305 80 -305 113 -305 c 0,8,9
 210 -305 210 -305 248 -230 c 0,10,11
 288 -155 288 -155 287 49 c 1,12,-1
 287 1372 l 1,13,-1
 96 1372 l 1,14,-1
 96 1493 l 1,15,-1
 1427 1493 l 1,16,-1
 1427 1141 l 1,17,-1
 1290 1141 l 1,18,-1
 1290 1356 l 1,19,-1
 674 1356 l 1,20,-1
 674 877 l 1,21,-1
 1053 877 l 1,22,-1
 1053 1067 l 1,23,-1
 1190 1067 l 1,24,-1
 1190 551 l 1,25,-1
 1053 551 l 1,26,-1
 1053 741 l 1,27,-1
 674 741 l 1,28,-1
 674 41 l 2,29,30
 674 -222 674 -222 529 -332 c 0,31,32
 405 -426 405 -426 162 -426 c 0,0,1
EndSplineSet
EndChar
StartChar: florin
Encoding: 402 402 402
Width: 881
Flags: W
Fore
991 1290 m 1,0,-1
 879 1290 l 1,1,2
 877 1305 877 1305 875 1318 c 0,3,4
 864 1375 864 1375 834 1406 c 0,5,6
 796 1444 796 1444 727 1444 c 0,7,8
 647 1444 647 1444 611 1386 c 0,9,10
 575 1329 575 1329 575 1200 c 2,11,-1
 575 1063 l 1,12,-1
 842 1063 l 1,13,-1
 842 942 l 1,14,-1
 575 942 l 1,15,-1
 575 -29 l 2,16,17
 575 -206 575 -206 462 -298 c 0,18,19
 349 -389 349 -389 130 -389 c 0,20,21
 45 -389 45 -389 -36 -380 c 0,22,23
 -117 -370 -117 -370 -195 -351 c 1,24,-1
 -195 -123 l 1,25,-1
 -83 -123 l 1,26,27
 -81 -138 -81 -138 -79 -151 c 0,28,29
 -68 -208 -68 -208 -38 -239 c 0,30,31
 0 -277 0 -277 69 -277 c 0,32,33
 149 -277 149 -277 185 -220 c 0,34,35
 221 -162 221 -162 221 -33 c 2,36,-1
 221 942 l 1,37,-1
 63 942 l 1,38,-1
 63 1063 l 1,39,-1
 221 1063 l 1,40,-1
 221 1196 l 2,41,42
 221 1373 221 1373 334 1464 c 0,43,44
 447 1556 447 1556 666 1556 c 0,45,46
 751 1556 751 1556 832 1546 c 0,47,48
 913 1537 913 1537 991 1518 c 1,49,-1
 991 1290 l 1,0,-1
EndSplineSet
EndChar
StartChar: uni0193
Encoding: 403 403 403
Width: 1749
Flags: W
AnchorPoint: "above" 909 1465 basechar 0
Fore
1350 1435 m 1,0,1
 1374 1590 1374 1590 1451 1652 c 0,2,3
 1536 1721 1536 1721 1638 1721 c 0,4,5
 1698 1721 1698 1721 1766 1711 c 128,-1,6
 1834 1701 1834 1701 1907 1682 c 1,7,-1
 1907 1457 l 1,8,-1
 1794 1457 l 1,9,10
 1794 1537 1794 1537 1762 1572 c 0,11,12
 1733 1608 1733 1608 1667 1608 c 0,13,14
 1594 1608 1594 1608 1565 1561 c 128,-1,15
 1536 1514 1536 1514 1536 1391 c 2,16,-1
 1536 1024 l 1,17,-1
 1409 1024 l 1,18,19
 1364 1222 1364 1222 1259 1310 c 0,20,21
 1154 1399 1154 1399 963 1399 c 0,22,23
 731 1399 731 1399 622 1242 c 0,24,25
 514 1084 514 1084 514 745 c 0,26,27
 514 409 514 409 618 250 c 0,28,29
 722 92 722 92 942 92 c 0,30,31
 1026 92 1026 92 1098 111 c 128,-1,32
 1170 130 1170 130 1229 168 c 1,33,-1
 1229 578 l 1,34,-1
 1049 578 l 1,35,-1
 1049 698 l 1,36,-1
 1587 698 l 1,37,-1
 1587 125 l 1,38,39
 1419 47 1419 47 1252 9 c 0,40,41
 1084 -29 1084 -29 909 -29 c 0,42,43
 525 -29 525 -29 306 178 c 0,44,45
 86 385 86 385 86 745 c 0,46,47
 86 1106 86 1106 306 1313 c 0,48,49
 525 1520 525 1520 909 1520 c 0,50,51
 1145 1520 1145 1520 1224 1488 c 0,52,-1
 1350 1435 l 1,0,1
EndSplineSet
EndChar
StartChar: uni0194
Encoding: 404 404 404
Width: 1578
Flags: W
AnchorPoint: "above" 815 1465 basechar 0
Fore
674.3 710 m 0,0,-1
 194 1386 l 1,1,-1
 10 1386 l 1,2,-1
 10 1493 l 1,3,-1
 690.8 1493 l 1,4,-1
 690.8 1386 l 1,5,-1
 635 1386 l 1,6,-1
 902.3 966 l 1,7,-1
 1213.05 1386 l 1,8,-1
 1013.95 1386 l 1,9,-1
 1013.95 1493 l 1,10,-1
 1576.3 1493 l 1,11,-1
 1576.3 1386 l 1,12,-1
 1383.1 1386 l 1,13,-1
 979.3 855 l 0,14,15
 1544.3 90 1544.3 90 1355.5 -44 c 0,16,17
 1153.74 -188 1153.74 -188 771.3 -188 c 16,18,19
 364.201 -188 364.201 -188 292.899 12 c 0,20,21
 228.173 193 228.173 193 674.3 710 c 0,0,-1
759.3 595 m 1,22,23
 441.899 212.406 441.899 212.406 444.3 80 c 24,24,25
 447.014 -69.7031 447.014 -69.7031 771.3 -67 c 16,26,27
 1059.74 -64.5957 1059.74 -64.5957 1044.3 85 c 16,28,29
 1032.2 202.221 1032.2 202.221 759.3 595 c 1,22,23
EndSplineSet
EndChar
StartChar: uni0195
Encoding: 405 405 405
Width: 2136
Flags: W
Fore
1290 346 m 18,0,1
 1290 120 1290 120 1442 121 c 24,2,3
 1543 121 1543 121 1606 233 c 0,4,5
 1668 345 1668 345 1668 530 c 0,6,7
 1668 691 1668 691 1626 787 c 0,8,9
 1573 908 1573 908 1543 935 c 1,10,-1
 1543 979 l 1,11,-1
 1672 979 l 1,12,13
 1848 915 1848 915 1951 786 c 0,14,15
 2055 656 2055 656 2055 514 c 0,16,17
 2055 406 2055 406 2005 307 c 0,18,19
 1956 208 1956 208 1864 135 c 0,20,21
 1781 68 1781 68 1673 33 c 0,22,23
 1564 -3 1564 -3 1442 -3 c 8,24,25
 936 -3 936 -3 936 348 c 10,26,-1
 936 686 l 18,27,28
 936 821 936 821 902 874 c 0,29,30
 867 926 867 926 782 926 c 0,31,32
 675 926 675 926 625 848 c 0,33,34
 575 769 575 769 575 598 c 2,35,-1
 575 121 l 1,36,-1
 705 121 l 1,37,-1
 705 0 l 1,38,-1
 70 0 l 1,39,-1
 70 121 l 1,40,-1
 221 121 l 1,41,-1
 221 1436 l 1,42,-1
 63 1436 l 1,43,-1
 63 1556 l 1,44,-1
 575 1556 l 1,45,-1
 575 913 l 1,46,47
 639 1008 639 1008 721 1050 c 128,-1,48
 803 1092 803 1092 928 1092 c 0,49,50
 1107 1092 1107 1092 1198 986 c 0,51,52
 1290 881 1290 881 1290 676 c 10,53,-1
 1290 346 l 18,0,1
EndSplineSet
EndChar
StartChar: uni0196
Encoding: 406 406 406
Width: 958
Flags: W
AnchorPoint: "above" 479 1465 basechar 0
Fore
287 337 m 2,0,-1
 287 1372 l 1,1,-1
 96 1372 l 1,2,-1
 96 1493 l 1,3,-1
 864 1493 l 1,4,-1
 864 1372 l 1,5,-1
 672 1372 l 1,6,-1
 672 351 l 2,7,8
 672 220 672 220 711 160 c 0,9,10
 751 99 751 99 846 99 c 1,11,-1
 846 0 l 1,12,-1
 646 0 l 2,13,14
 445 0 445 0 408 24 c 0,15,16
 287 102 287 102 287 337 c 2,0,-1
EndSplineSet
EndChar
StartChar: uni0197
Encoding: 407 407 407
Width: 958
Flags: W
AnchorPoint: "above" 479 1465 basechar 0
Fore
672 851 m 1,0,-1
 920 851 l 1,1,-1
 920 659 l 1,2,-1
 672 659 l 1,3,-1
 672 121 l 1,4,-1
 864 121 l 1,5,-1
 864 0 l 1,6,-1
 96 0 l 1,7,-1
 96 121 l 1,8,-1
 287 121 l 1,9,-1
 287 659 l 1,10,-1
 38 659 l 1,11,-1
 38 851 l 1,12,-1
 287 851 l 1,13,-1
 287 1372 l 1,14,-1
 96 1372 l 1,15,-1
 96 1493 l 1,16,-1
 864 1493 l 1,17,-1
 864 1372 l 1,18,-1
 672 1372 l 1,19,-1
 672 851 l 1,0,-1
EndSplineSet
EndChar
StartChar: uni0198
Encoding: 408 408 408
Width: 1780
Flags: W
Fore
1458 1332 m 2,0,-1
 967 911 l 1,1,-1
 1696 121 l 1,2,-1
 1843 121 l 1,3,-1
 1843 0 l 1,4,-1
 1337 0 l 1,5,-1
 672 725 l 1,6,-1
 672 121 l 1,7,-1
 864 121 l 1,8,-1
 864 0 l 1,9,-1
 96 0 l 1,10,-1
 96 121 l 1,11,-1
 287 121 l 1,12,-1
 287 1372 l 1,13,-1
 96 1372 l 1,14,-1
 96 1493 l 1,15,-1
 864 1493 l 1,16,-1
 864 1372 l 1,17,-1
 672 1372 l 1,18,-1
 672 827 l 1,19,-1
 1305 1372 l 2,20,21
 1443 1491 1443 1491 1584 1493 c 0,22,23
 1636 1493 1636 1493 1712 1484 c 0,24,25
 1780 1474 1780 1474 1853 1455 c 1,26,-1
 1853 1230 l 1,27,-1
 1740 1230 l 1,28,29
 1740 1310 1740 1310 1708 1346 c 0,30,31
 1677 1384 1677 1384 1613 1381 c 0,32,33
 1509 1377 1509 1377 1458 1332 c 2,0,-1
EndSplineSet
EndChar
StartChar: uni0199
Encoding: 409 409 409
Width: 1419
Flags: W
Fore
221 1226 m 2,0,1
 221 1389 221 1389 336 1472 c 0,2,3
 452 1556 452 1556 677 1556 c 0,4,5
 737 1556 737 1556 805 1546 c 128,-1,6
 873 1536 873 1536 946 1517 c 1,7,-1
 946 1292 l 1,8,-1
 833 1292 l 1,9,10
 833 1372 833 1372 802 1408 c 0,11,12
 772 1443 772 1443 706 1443 c 0,13,14
 633 1443 633 1443 604 1396 c 0,15,16
 575 1347 575 1347 575 1226 c 2,17,-1
 575 557 l 1,18,-1
 1004 942 l 1,19,-1
 877 942 l 1,20,-1
 877 1063 l 1,21,-1
 1362 1063 l 1,22,-1
 1362 942 l 1,23,-1
 1165 942 l 1,24,-1
 891 696 l 1,25,-1
 1339 121 l 1,26,-1
 1454 121 l 1,27,-1
 1454 0 l 1,28,-1
 844 0 l 1,29,-1
 844 121 l 1,30,-1
 969 121 l 1,31,-1
 674 500 l 1,32,-1
 575 412 l 1,33,-1
 575 121 l 1,34,-1
 709 121 l 1,35,-1
 709 0 l 1,36,-1
 70 0 l 1,37,-1
 70 121 l 1,38,-1
 221 121 l 1,39,-1
 221 1226 l 2,0,1
EndSplineSet
EndChar
StartChar: uni019A
Encoding: 410 410 410
Width: 778
Flags: W
Fore
575 121 m 1,0,-1
 727 121 l 1,1,-1
 727 0 l 1,2,-1
 70 0 l 1,3,-1
 70 121 l 1,4,-1
 221 121 l 1,5,-1
 221 479 l 1,6,-1
 70 479 l 1,7,-1
 70 600 l 1,8,-1
 221 600 l 1,9,-1
 221 1436 l 1,10,-1
 70 1436 l 1,11,-1
 70 1556 l 1,12,-1
 575 1556 l 1,13,-1
 575 600 l 1,14,-1
 727 600 l 1,15,-1
 727 479 l 1,16,-1
 575 479 l 1,17,-1
 575 121 l 1,0,-1
EndSplineSet
EndChar
StartChar: uni019B
Encoding: 411 411 411
Width: 1436
Flags: W
Fore
1228 121 m 1,0,-1
 1351 121 l 1,1,-1
 1351 0 l 1,2,-1
 952 0 l 1,3,-1
 952 121 l 1,4,-1
 1091 121 l 1,5,-1
 860 700 l 1,6,-1
 554 121 l 1,7,-1
 683 121 l 1,8,-1
 683 0 l 1,9,-1
 73 0 l 1,10,-1
 73 121 l 1,11,-1
 190 121 l 1,12,-1
 693 1109 l 1,13,-1
 693 1110 l 1,14,-1
 272 859 l 1,15,-1
 210 964 l 1,16,-1
 638 1220 l 1,17,18
 568 1345 568 1345 502 1376 c 0,19,20
 458 1398 458 1398 370 1400 c 0,21,22
 305 1400 305 1400 270 1363 c 0,23,24
 236 1326 236 1326 233 1249 c 1,25,-1
 120 1249 l 1,26,-1
 120 1470 l 1,27,28
 194 1492 194 1492 251 1502 c 0,29,30
 320 1514 320 1514 360 1513 c 0,31,32
 586 1513 586 1513 725 1272 c 1,33,-1
 937 1398 l 1,34,-1
 1001 1293 l 1,35,-1
 781 1162 l 1,36,-1
 782 1160 l 1,37,-1
 1228 121 l 1,0,-1
EndSplineSet
EndChar
StartChar: uni019C
Encoding: 412 412 412
Width: 2167
Flags: W
Fore
947 174 m 1,0,1
 873 68 873 68 787 19.5 c 128,-1,2
 701 -29 701 -29 586 -29 c 0,3,4
 403 -29 403 -29 312.5 74.5 c 128,-1,5
 222 178 222 178 222 387 c 2,6,-1
 222 1372 l 1,7,-1
 70 1372 l 1,8,-1
 70 1493 l 1,9,-1
 703 1493 l 1,10,-1
 703 1372 l 1,11,-1
 576 1372 l 1,12,-1
 576 440 l 2,13,14
 576 241 576 241 606.5 189 c 128,-1,15
 637 137 637 137 720 137 c 0,16,17
 814 137 814 137 866 209.5 c 128,-1,18
 918 282 918 282 918 416 c 2,19,-1
 918 1372 l 1,20,-1
 791 1372 l 1,21,-1
 791 1493 l 1,22,-1
 1399 1493 l 1,23,-1
 1399 1372 l 1,24,-1
 1272 1372 l 1,25,-1
 1272 440 l 2,26,27
 1272 241 1272 241 1303 189 c 128,-1,28
 1334 137 1334 137 1416 137 c 0,29,30
 1511 137 1511 137 1563 209.5 c 128,-1,31
 1615 282 1615 282 1615 416 c 2,32,-1
 1615 1372 l 1,33,-1
 1488 1372 l 1,34,-1
 1488 1493 l 1,35,-1
 2120 1493 l 1,36,-1
 2120 1372 l 1,37,-1
 1969 1372 l 1,38,-1
 1969 121 l 1,39,-1
 2120 121 l 1,40,-1
 2120 0 l 1,41,-1
 1615 0 l 1,42,-1
 1615 150 l 1,43,44
 1553 57 1553 57 1473 14 c 128,-1,45
 1393 -29 1393 -29 1283 -29 c 0,46,47
 1153 -29 1153 -29 1072 20.5 c 128,-1,48
 991 70 991 70 947 174 c 1,0,1
EndSplineSet
EndChar
StartChar: uni019D
Encoding: 413 413 413
Width: 1872
Flags: W
Fore
-182 -358 m 1,0,-1
 -182 -123 l 1,1,-1
 -52 -123 l 1,2,3
 -52 -266 -52 -266 48 -296 c 0,4,5
 74 -305 74 -305 107 -305 c 0,6,7
 204 -305 204 -305 242 -230 c 0,8,9
 281 -156 281 -156 281 49 c 2,10,-1
 281 1372 l 1,11,-1
 90 1372 l 1,12,-1
 90 1493 l 1,13,-1
 557 1493 l 1,14,-1
 1458 436 l 1,15,-1
 1458 1372 l 1,16,-1
 1268 1372 l 1,17,-1
 1268 1493 l 1,18,-1
 1790 1493 l 1,19,-1
 1790 1372 l 1,20,-1
 1599 1372 l 1,21,-1
 1599 0 l 1,22,-1
 1337 0 l 1,23,-1
 422 1079 l 1,24,-1
 422 41 l 2,25,26
 422 -244 422 -244 312 -348 c 0,27,28
 231 -426 231 -426 90 -426 c 0,29,30
 73 -426 73 -426 -11 -409 c 0,31,32
 -95 -392 -95 -392 -182 -358 c 1,0,-1
EndSplineSet
EndChar
StartChar: uni019E
Encoding: 414 414 414
Width: 1489
Flags: W
AnchorPoint: "above" 664 1092 basechar 0
Fore
70 0 m 1,0,-1
 70 121 l 1,1,-1
 221 121 l 1,2,-1
 221 942 l 1,3,-1
 70 942 l 1,4,-1
 70 1063 l 1,5,-1
 575 1063 l 1,6,-1
 575 913 l 1,7,8
 639 1008 639 1008 721 1050 c 128,-1,9
 803 1092 803 1092 928 1092 c 0,10,11
 1107 1092 1107 1092 1198 986 c 0,12,13
 1290 880 1290 880 1290 676 c 2,14,-1
 1290 -305 l 1,15,-1
 1441 -305 l 1,16,-1
 1441 -426 l 1,17,-1
 806 -426 l 1,18,-1
 806 -305 l 1,19,-1
 936 -305 l 1,20,-1
 936 686 l 2,21,22
 936 821 936 821 902 874 c 0,23,24
 867 926 867 926 782 926 c 0,25,26
 675 926 675 926 625 848 c 0,27,28
 575 769 575 769 575 598 c 2,29,-1
 575 121 l 1,30,-1
 705 121 l 1,31,-1
 705 0 l 1,32,-1
 70 0 l 1,0,-1
EndSplineSet
EndChar
StartChar: uni019F
Encoding: 415 415 415
Width: 1784
Flags: W
AnchorPoint: "above" 893 1465 basechar 0
Fore
891 -29 m 0,0,1
 514 -29 514 -29 300 177 c 0,2,3
 86 383 86 383 86 745 c 0,4,5
 86 1107 86 1107 300.5 1313.5 c 0,6,7
 515 1520 515 1520 891 1520 c 0,8,9
 1268 1520 1268 1520 1482 1314 c 0,10,11
 1696 1108 1696 1108 1696 745 c 0,12,13
 1696 383 1696 383 1481.5 177 c 0,14,15
 1267 -29 1267 -29 891 -29 c 0,0,1
891 92 m 0,16,17
 1082 92 1082 92 1175 253 c 0,18,19
 1256.99 394.937 1256.99 394.937 1266.7 669 c 1,20,-1
 515.334 669 l 1,21,22
 525.169 397.589 525.169 397.589 607.5 254.5 c 0,23,24
 701 92 701 92 891 92 c 0,16,17
515.671 830 m 1,25,-1
 1266.37 830 l 1,26,27
 1255.67 1098.34 1255.67 1098.34 1175 1238 c 0,28,29
 1082 1399 1082 1399 891 1399 c 0,30,31
 701 1399 701 1399 607.5 1236.5 c 0,32,33
 526.501 1095.73 526.501 1095.73 515.671 830 c 1,25,-1
EndSplineSet
EndChar
StartChar: uni01A2
Encoding: 418 418 418
Width: 2458
Flags: W
Fore
890 -29 m 0,0,1
 513 -29 513 -29 299 177 c 0,2,3
 85 383 85 383 85 745 c 0,4,5
 85 1107 85 1107 299.5 1313.5 c 0,6,7
 514 1520 514 1520 890 1520 c 0,8,9
 1144.25 1520 1144.25 1520 1324.36 1426.31 c 1,10,11
 1409.62 1459.33 1409.62 1459.33 1492 1476 c 0,12,13
 1576 1493 1576 1493 1659 1493 c 0,14,15
 1926 1493 1926 1493 2048.5 1381 c 0,16,17
 2171 1269 2171 1269 2171 1026 c 2,18,-1
 2171 -230 l 1,19,-1
 2362 -230 l 1,20,-1
 2362 -351 l 1,21,-1
 1593 -351 l 1,22,-1
 1593 -230 l 1,23,-1
 1784 -230 l 1,24,-1
 1784 1018 l 2,25,26
 1784 1223 1784 1223 1745.5 1297.5 c 0,27,28
 1707 1372 1707 1372 1610 1372 c 0,29,30
 1534 1372 1534 1372 1495.5 1328 c 0,31,32
 1488.99 1320.55 1488.99 1320.55 1483.4 1311.68 c 1,33,34
 1695 1105.96 1695 1105.96 1695 745 c 0,35,36
 1695 383 1695 383 1480.5 177 c 0,37,38
 1266 -29 1266 -29 890 -29 c 0,0,1
890 92 m 0,39,40
 1081 92 1081 92 1174 253 c 0,41,42
 1267 414 1267 414 1267 745 c 0,43,44
 1267 1077 1267 1077 1174 1238 c 0,45,46
 1081 1399 1081 1399 890 1399 c 0,47,48
 700 1399 700 1399 606.5 1236.5 c 0,49,50
 513 1074 513 1074 513 745 c 0,51,52
 513 417 513 417 606.5 254.5 c 0,53,54
 700 92 700 92 890 92 c 0,39,40
EndSplineSet
EndChar
StartChar: uni01A3
Encoding: 419 419 419
Width: 1932
Flags: W
Fore
1365 -305 m 1,0,-1
 1366 733 l 2,1,2
 1366.12 855.781 1366.12 855.781 1337 903 c 0,3,4
 1308 950 1308 950 1235 950 c 0,5,6
 1176.94 950 1176.94 950 1147.12 922.526 c 1,7,8
 1285 776.907 1285 776.907 1285 532 c 0,9,10
 1285 270 1285 270 1125.5 120.5 c 0,11,12
 966 -29 966 -29 685 -29 c 0,13,14
 404 -29 404 -29 244.5 120.5 c 0,15,16
 85 270 85 270 85 532 c 0,17,18
 85 795 85 795 244.5 943.5 c 0,19,20
 404 1092 404 1092 685 1092 c 0,21,22
 872.147 1092 872.147 1092 1005.12 1026.6 c 1,23,24
 1072.73 1043.69 1072.73 1043.69 1136 1053 c 0,25,26
 1204 1063 1204 1063 1264 1063 c 0,27,28
 1489 1063 1489 1063 1604.5 979.5 c 0,29,30
 1720 895.816 1720 895.816 1720 733 c 2,31,-1
 1720 -305 l 1,32,-1
 1884 -305 l 1,33,-1
 1884 -426 l 1,34,-1
 1214 -426 l 1,35,-1
 1214 -305 l 1,36,-1
 1365 -305 l 1,0,-1
685 84 m 0,37,38
 797 84 797 84 842.5 180 c 0,39,40
 888 276 888 276 888 532 c 0,41,42
 888 788 888 788 843 883.5 c 0,43,44
 798 979 798 979 685 979 c 0,45,46
 572 979 572 979 526 882.5 c 0,47,48
 480 786 480 786 480 532 c 0,49,50
 480 278 480 278 526 181 c 0,51,52
 572 84 572 84 685 84 c 0,37,38
EndSplineSet
EndChar
StartChar: uni01A4
Encoding: 420 420 420
Width: 1540
Flags: W
Fore
287 1493 m 2,0,-1
 946 1493 l 2,1,2
 1195 1493 1195 1493 1342 1374 c 0,3,4
 1489 1256 1489 1256 1489 1057 c 0,5,6
 1489 857 1489 857 1342 738 c 0,7,8
 1194 618 1194 618 946 618 c 2,9,-1
 672 618 l 1,10,-1
 672 121 l 1,11,-1
 913 121 l 1,12,-1
 913 0 l 1,13,-1
 96 0 l 1,14,-1
 96 121 l 1,15,-1
 287 121 l 1,16,-1
 287 1372 l 1,17,18
 91 1372 91 1372 22 1283 c 0,19,20
 -48 1192 -48 1192 -48 1006 c 1,21,-1
 -246 1006 l 1,22,-1
 -246 1364 l 1,23,24
 -163 1433 -163 1433 74 1476 c 0,25,26
 169 1493 169 1493 287 1493 c 2,0,-1
672 739 m 1,27,-1
 784 739 l 2,28,29
 914 739 914 739 992 826 c 0,30,31
 1069 912 1069 912 1069 1057 c 0,32,33
 1069 1201 1069 1201 992 1286 c 0,34,35
 915 1372 915 1372 784 1372 c 2,36,-1
 672 1372 l 1,37,-1
 672 739 l 1,27,-1
EndSplineSet
EndChar
StartChar: uni01A5
Encoding: 421 421 421
Width: 1432
Flags: W
Fore
553 584 m 2,0,-1
 553 479 l 2,1,2
 553 293 553 293 600 210 c 0,3,4
 648 127 648 127 754 127 c 0,5,6
 863 127 863 127 908 215 c 0,7,8
 952 303 952 303 952 532 c 0,9,10
 952 761 952 761 908 848 c 0,11,12
 863 936 863 936 754 936 c 0,13,14
 648 936 648 936 600 853 c 0,15,16
 553 770 553 770 553 584 c 2,0,-1
199 -305 m 1,17,-1
 199 1123 l 2,18,19
 199 1286 199 1286 314 1370 c 0,20,21
 430 1453 430 1453 655 1453 c 0,22,23
 715 1453 715 1453 783 1443 c 0,24,25
 851 1433 851 1433 924 1414 c 1,26,-1
 924 1189 l 1,27,-1
 811 1189 l 1,28,29
 811 1269 811 1269 780 1304 c 0,30,31
 750 1340 750 1340 684 1340 c 0,32,33
 611 1340 611 1340 582 1293 c 0,34,35
 553 1246 553 1246 553 1123 c 2,36,-1
 553 928 l 1,37,38
 598 1011 598 1011 674 1052 c 0,39,40
 750 1092 750 1092 862 1092 c 0,41,42
 1089 1092 1089 1092 1220 942 c 0,43,44
 1350 793 1350 793 1350 532 c 0,45,46
 1350 271 1350 271 1220 121 c 0,47,48
 1089 -29 1089 -29 862 -29 c 0,49,50
 750 -29 750 -29 674 12 c 0,51,52
 598 52 598 52 553 135 c 1,53,-1
 553 -305 l 1,54,-1
 717 -305 l 1,55,-1
 717 -426 l 1,56,-1
 47 -426 l 1,57,-1
 47 -305 l 1,58,-1
 199 -305 l 1,17,-1
EndSplineSet
EndChar
StartChar: uni01A6
Encoding: 422 422 422
Width: 1702
Flags: W
Fore
287 1372 m 1,0,-1
 96 1372 l 1,1,-1
 96 1493 l 1,2,-1
 860 1493 l 1,3,-1
 860 1372 l 1,4,-1
 672 1372 l 1,5,-1
 672 1202 l 1,6,-1
 948 1202 l 2,7,8
 1208 1202 1208 1202 1349.5 1097.5 c 128,-1,9
 1491 993 1491 993 1491 801 c 0,10,11
 1491 645 1491 645 1390.5 554.5 c 128,-1,12
 1290 464 1290 464 1087 438 c 1,0,1
 1176 425 1176 425 1237 379 c 0,2,3
 1297.02 333.737 1297.02 333.737 1343 246 c 2,4,-1
 1561 -170 l 1,5,-1
 1714 -170 l 1,6,-1
 1714 -291 l 1,7,-1
 1223 -291 l 1,8,-1
 985 160 l 2,9,10
 907.602 306.667 907.602 306.667 867.5 338.5 c 0,11,12
 819 377 819 377 733 377 c 2,13,-1
 672 377 l 1,14,-1
 668 121 l 1,15,-1
 860 121 l 1,16,-1
 860 0 l 1,17,-1
 92 0 l 1,18,-1
 92 121 l 1,19,-1
 283 121 l 1,20,-1
 287 1372 l 1,0,-1
672 497 m 1,28,-1
 803 497 l 2,29,30
 943 497 943 497 1018.5 573 c 128,-1,31
 1094 649 1094 649 1094 790 c 0,32,33
 1094 931 1094 931 1018.5 1006 c 128,-1,34
 943 1081 943 1081 803 1081 c 2,35,-1
 672 1081 l 1,36,-1
 672 497 l 1,28,-1
EndSplineSet
EndChar
StartChar: uni01A7
Encoding: 423 423 423
Width: 1479
Flags: W
AnchorPoint: "above" 729 1465 basechar 0
Fore
1333 72 m 1,0,1
 1184 21 1184 21 1040 -4 c 128,-1,2
 896 -29 896 -29 750 -29 c 0,3,4
 447 -29 447 -29 291 88 c 0,5,6
 135 206 135 206 135 432 c 0,7,8
 135 625 135 625 228 735 c 0,9,10
 322 845 322 845 530 897 c 2,11,-1
 754 952 l 1,12,13
 957 1004 957 1004 1009 1052 c 0,14,15
 1061 1101 1061 1101 1061 1194 c 0,16,17
 1061 1296 1061 1296 986 1348 c 0,18,19
 910 1399 910 1399 762 1399 c 0,20,21
 581 1399 581 1399 483 1328 c 0,22,23
 385 1256 385 1256 356 1102 c 1,24,-1
 229 1102 l 1,25,-1
 229 1432 l 1,26,27
 381 1476 381 1476 522 1498 c 0,28,29
 664 1520 664 1520 795 1520 c 0,30,31
 1061 1520 1061 1520 1208 1396 c 0,32,33
 1356 1273 1356 1273 1356 1051 c 0,34,35
 1356 867 1356 867 1267 768 c 0,36,37
 1178 668 1178 668 959 612 c 1,38,-1
 735 557 l 2,39,40
 563 514 563 514 508 464 c 128,-1,41
 453 414 453 414 453 324 c 0,42,43
 453 210 453 210 534 151 c 128,-1,44
 615 92 615 92 770 92 c 0,45,46
 961 92 961 92 1069 175 c 128,-1,47
 1177 258 1177 258 1206 426 c 1,48,-1
 1333 426 l 1,49,-1
 1333 72 l 1,0,1
EndSplineSet
EndChar
StartChar: uni01A8
Encoding: 424 424 424
Width: 1153
Flags: W
AnchorPoint: "above" 578 1092 basechar 0
Fore
1061 31 m 1,0,1
 937 1 937 1 826 -14 c 128,-1,2
 715 -29 715 -29 616 -29 c 0,3,4
 345 -29 345 -29 216 56 c 0,5,6
 88 142 88 142 88 322 c 0,7,8
 88 461 88 461 168 539 c 128,-1,9
 248 617 248 617 457 670 c 2,10,-1
 602 707 l 2,11,12
 685 728 685 728 717 759 c 128,-1,13
 749 790 749 790 749 844 c 0,14,15
 749 910 749 910 694 944 c 0,16,17
 638 979 638 979 530 979 c 0,18,19
 402 979 402 979 334 924 c 0,20,21
 265 869 265 869 256 760 c 1,22,-1
 143 760 l 1,23,-1
 143 1028 l 1,24,25
 272 1061 272 1061 378 1076 c 0,26,27
 485 1092 485 1092 579 1092 c 0,28,29
 829 1092 829 1092 949 1008 c 0,30,31
 1069 923 1069 923 1069 750 c 0,32,33
 1069 620 1069 620 995 544 c 0,34,35
 921 467 921 467 756 426 c 2,36,-1
 610 389 l 2,37,38
 505 363 505 363 468 328 c 0,39,40
 432 293 432 293 432 229 c 0,41,42
 432 159 432 159 490 122 c 0,43,44
 547 84 547 84 655 84 c 0,45,46
 784 84 784 84 859 146 c 0,47,48
 934 209 934 209 948 328 c 1,49,-1
 1061 328 l 1,50,-1
 1061 31 l 1,0,1
EndSplineSet
EndChar
StartChar: uni01AA
Encoding: 426 426 426
Width: 678
Flags: W
Fore
753 1522.99 m 1,0,1
 753 1434.46 753 1434.46 706 1352.99 c 0,2,3
 669.638 1289.96 669.638 1289.96 574.043 1234.58 c 1,4,5
 573.577 1230.8 573.577 1230.8 573 1226.99 c 2,6,-1
 372 -100.012 l 2,7,8
 354.475 -215.712 354.475 -215.712 408 -286.512 c 0,9,10
 451.469 -344.012 451.469 -344.012 524 -344.012 c 0,11,12
 593 -344.012 593 -344.012 630.5 -306.012 c 128,-1,13
 668 -268.012 668 -268.012 676 -190.012 c 1,14,-1
 788 -190.012 l 1,15,-1
 788 -418.012 l 1,16,17
 710 -437.012 710 -437.012 629 -446.512 c 128,-1,18
 548 -456.012 548 -456.012 463 -456.012 c 0,19,20
 255.921 -456.012 255.921 -456.012 131 -364.512 c 0,21,22
 -7.3916 -263.143 -7.3916 -263.143 18 -96.0117 c 2,23,-1
 204.731 1133.07 l 1,24,25
 168.243 1131.02 168.243 1131.02 129.6 1130.99 c 0,26,27
 67 1130.94 67 1130.94 19.3799 1142.37 c 0,28,29
 -132 1178.69 -132 1178.69 -132 1330.99 c 0,30,31
 -132 1553.25 -132 1553.25 216 1555.99 c 0,32,33
 345.197 1557.01 345.197 1557.01 457.5 1473.49 c 0,34,35
 532.463 1417.74 532.463 1417.74 560.005 1349.43 c 1,36,37
 585.225 1372.06 585.225 1372.06 603 1399.99 c 0,38,39
 631 1443.99 631 1443.99 643 1522.99 c 1,40,-1
 753 1522.99 l 1,0,1
218.345 1222.67 m 1,41,-1
 219 1226.99 l 2,42,43
 237.849 1351.05 237.849 1351.05 190 1396.99 c 0,44,45
 161.031 1424.8 161.031 1424.8 132 1426.99 c 0,46,47
 0 1434.23 0 1434.23 0 1345.99 c 0,48,49
 0 1219.44 0 1219.44 183.6 1220.99 c 0,50,51
 200.528 1221.13 200.528 1221.13 218.345 1222.67 c 1,41,-1
EndSplineSet
EndChar
StartChar: uni01AB
Encoding: 427 427 427
Width: 946
Flags: W
Fore
203 942 m 1,0,-1
 49 942 l 1,1,-1
 49 1063 l 1,2,-1
 203 1063 l 1,3,-1
 203 1393 l 1,4,-1
 557 1393 l 1,5,-1
 557 1063 l 1,6,-1
 852 1063 l 1,7,-1
 852 942 l 1,8,-1
 557 942 l 1,9,-1
 557 291 l 2,10,11
 557 152 557 152 579 118 c 0,12,13
 601 84 601 84 659 84 c 2,14,-1
 936 84 l 1,15,-1
 936 -125 l 2,16,17
 936 -288.003 936 -288.003 820.5 -371.5 c 0,18,19
 704.996 -455 704.996 -455 480 -455 c 0,20,21
 420 -455 420 -455 352 -445 c 0,22,23
 284 -435 284 -435 211 -416 c 1,24,-1
 211 -191 l 1,25,-1
 324 -191 l 1,26,27
 326 -271 326 -271 355.5 -306.5 c 0,28,29
 385 -342 385 -342 451 -342 c 0,30,31
 522.515 -342 522.515 -342 553 -295 c 0,32,33
 582 -250.289 582 -250.289 582 -125 c 2,34,-1
 582 -28.993 l 1,35,36
 580.006 -29 580.006 -29 578 -29 c 0,37,38
 359 -29 359 -29 281 39.5 c 0,39,40
 203 108 203 108 203 291 c 2,41,-1
 203 942 l 1,0,-1
EndSplineSet
EndChar
StartChar: uni01AC
Encoding: 428 428 428
Width: 1524
Flags: W
AnchorPoint: "above" 769 1465 basechar 0
Fore
569 1356 m 0,0,1
 361 1356 361 1356 304 1283 c 0,2,3
 234 1192 234 1192 234 1006 c 1,4,-1
 36 1006 l 1,5,-1
 36 1364 l 1,6,7
 119 1433 119 1433 356 1476 c 0,8,9
 451 1493 451 1493 569 1493 c 1,10,-1
 1503 1493 l 1,11,-1
 1503 1120 l 1,12,-1
 1368 1120 l 1,13,-1
 1368 1356 l 1,14,-1
 956 1356 l 1,15,-1
 956 121 l 1,16,-1
 1155 121 l 1,17,-1
 1155 0 l 1,18,-1
 371 0 l 1,19,-1
 371 121 l 1,20,-1
 569 121 l 1,21,-1
 569 1356 l 0,0,1
EndSplineSet
EndChar
StartChar: uni01AD
Encoding: 429 429 429
Width: 946
Flags: W
Fore
203 942 m 1,0,-1
 49 942 l 1,1,-1
 49 1063 l 1,2,-1
 203 1063 l 1,3,-1
 203 1226 l 2,4,5
 203 1389 203 1389 318 1472 c 0,6,7
 434 1556 434 1556 659 1556 c 0,8,9
 719 1556 719 1556 787 1546 c 0,10,11
 855 1536 855 1536 928 1517 c 1,12,-1
 928 1292 l 1,13,-1
 815 1292 l 1,14,15
 813 1372 813 1372 784 1408 c 0,16,17
 754 1443 754 1443 688 1443 c 0,18,19
 618 1443 618 1443 586 1396 c 0,20,21
 557 1354 557 1354 557 1226 c 2,22,-1
 557 1063 l 1,23,-1
 852 1063 l 1,24,-1
 852 942 l 1,25,-1
 557 942 l 1,26,-1
 557 291 l 2,27,28
 557 152 557 152 579 118 c 0,29,30
 601 84 601 84 659 84 c 0,31,32
 723 84 723 84 754 127 c 0,33,34
 785 170 785 170 787 260 c 1,35,-1
 936 260 l 1,36,37
 936 100 936 100 848 36 c 0,38,39
 770 -29 770 -29 578 -29 c 0,40,41
 359 -29 359 -29 281 40 c 0,42,43
 203 108 203 108 203 291 c 2,44,-1
 203 942 l 1,0,-1
EndSplineSet
EndChar
StartChar: uni01AE
Encoding: 430 430 430
Width: 1524
Flags: W
AnchorPoint: "above" 769 1465 basechar 0
Fore
569 41 m 2,0,-1
 569 1356 l 1,1,-1
 160 1356 l 1,2,-1
 160 1120 l 1,3,-1
 23 1120 l 1,4,-1
 23 1493 l 1,5,-1
 1503 1493 l 1,6,-1
 1503 1120 l 1,7,-1
 1368 1120 l 1,8,-1
 1368 1356 l 1,9,-1
 956 1356 l 1,10,-1
 956 49 l 2,11,12
 956 -156 956 -156 994 -230 c 0,13,14
 1033 -305 1033 -305 1130 -305 c 0,15,16
 1206 -305 1206 -305 1244 -261 c 0,17,18
 1283 -217 1283 -217 1289 -123 c 1,19,-1
 1419 -123 l 1,20,-1
 1419 -358 l 1,21,22
 1332 -392 1332 -392 1248 -409 c 128,-1,23
 1164 -426 1164 -426 1081 -426 c 0,24,25
 814 -426 814 -426 692 -314 c 0,26,27
 569 -202 569 -202 569 41 c 2,0,-1
EndSplineSet
EndChar
StartChar: uni01B1
Encoding: 433 433 433
Width: 1823
Flags: W
Fore
574 1336 m 1,0,-1
 240 1336 l 1,1,-1
 240 1211 l 1,2,-1
 103 1211 l 1,3,-1
 103 1520 l 1,4,-1
 836 1520 l 1,5,-1
 836 1327 l 1,6,7
 680 1295 680 1295 600 1143 c 128,-1,8
 520 991 520 991 520 725 c 0,9,10
 520 430 520 430 620 276 c 0,11,12
 720 121 720 121 912 121 c 128,-1,13
 1104 121 1104 121 1204 276 c 0,14,15
 1303 430 1303 430 1303 727 c 0,16,17
 1303 988 1303 988 1222 1142 c 0,18,19
 1141 1295 1141 1295 987 1327 c 1,20,-1
 987 1520 l 1,21,-1
 1721 1520 l 1,22,-1
 1721 1211 l 1,23,-1
 1585 1211 l 1,24,-1
 1585 1336 l 1,25,-1
 1250 1336 l 1,26,27
 1487 1244 1487 1244 1609 1084 c 0,28,29
 1731 923 1731 923 1731 703 c 0,30,31
 1731 387 1731 387 1506 194 c 0,32,33
 1282 0 1282 0 912 0 c 128,-1,34
 542 0 542 0 317 194 c 0,35,36
 92 387 92 387 92 703 c 0,37,38
 92 923 92 923 214 1084 c 0,39,40
 336 1244 336 1244 574 1336 c 1,0,-1
EndSplineSet
EndChar
StartChar: uni01B2
Encoding: 434 434 434
Width: 1823
Flags: W
Fore
912 121 m 1,0,1
 1104 121 1104 121 1203.5 275.5 c 128,-1,2
 1303 430 1303 430 1303 727 c 0,3,4
 1303 990.493 1303 990.493 1222 1141.5 c 0,5,6
 1152 1272 1152 1272 1092 1272 c 1,7,-1
 1092 1372 l 1,8,-1
 1212 1372 l 1,9,10
 1458.75 1281.94 1458.75 1281.94 1609 1083.5 c 0,11,12
 1731 923 1731 923 1731 703 c 0,13,14
 1731 387 1731 387 1506.5 193.5 c 128,-1,15
 1282 0 1282 0 912 0 c 1,16,-1
 712 0 l 2,17,18
 511.18 0 511.18 0 474 24 c 0,19,20
 353 102.108 353 102.108 353 337 c 2,21,-1
 353 1372 l 1,22,-1
 162 1372 l 1,23,-1
 162 1493 l 1,24,-1
 930 1493 l 1,25,-1
 930 1372 l 1,26,-1
 738 1372 l 1,27,-1
 738 373 l 2,28,29
 738 244.35 738 244.35 777 182 c 0,30,31
 815.156 121 815.156 121 912 121 c 1,0,1
EndSplineSet
EndChar
StartChar: uni01B3
Encoding: 435 435 435
Width: 1462
Flags: W
AnchorPoint: "above" 731 1472 basechar 0
Fore
1202 1372 m 2,0,1
 1274.2 1495 1274.2 1495 1446 1495 c 0,2,3
 1494.7 1495 1494.7 1495 1533 1485 c 0,4,5
 1601 1475 1601 1475 1674 1456 c 1,6,-1
 1674 1231 l 1,7,-1
 1561 1231 l 1,8,9
 1559 1311 1559 1311 1529.5 1346.5 c 128,-1,10
 1500 1382 1500 1382 1434 1382 c 0,11,12
 1359.71 1382 1359.71 1382 1332 1335 c 2,13,-1
 940 670 l 1,14,-1
 940 121 l 1,15,-1
 1141 121 l 1,16,-1
 1141 0 l 1,17,-1
 352 0 l 1,18,-1
 352 121 l 1,19,-1
 553 121 l 1,20,-1
 553 618 l 1,21,-1
 109 1372 l 1,22,-1
 -18 1372 l 1,23,-1
 -18 1493 l 1,24,-1
 698 1493 l 1,25,-1
 698 1372 l 1,26,-1
 532 1372 l 1,27,-1
 868 803 l 1,28,-1
 1202 1372 l 2,0,1
EndSplineSet
EndChar
StartChar: uni01B4
Encoding: 436 436 436
Width: 1451
Flags: W
AnchorPoint: "above" 606 1092 basechar 0
Fore
1110 932 m 2,0,-1
 639 -240 l 1,1,2
 591 -357 591 -357 523 -406 c 128,-1,3
 455 -455 455 -455 340 -455 c 0,4,5
 291 -455 291 -455 231 -444 c 128,-1,6
 171 -433 171 -433 100 -412 c 1,7,-1
 100 -190 l 1,8,-1
 213 -191 l 1,9,10
 216 -268 216 -268 249.5 -305 c 128,-1,11
 283 -342 283 -342 350 -342 c 0,12,13
 415 -342 415 -342 455 -306.5 c 128,-1,14
 495 -271 495 -271 535 -172 c 1,15,-1
 551 -135 l 1,16,-1
 88 942 l 1,17,-1
 -27 942 l 1,18,-1
 -27 1063 l 1,19,-1
 586 1063 l 1,20,-1
 586 942 l 1,21,-1
 459 942 l 1,22,-1
 729 313 l 1,23,-1
 981 942 l 2,24,25
 1041.51 1093.02 1041.51 1093.02 1212 1092 c 0,26,27
 1243 1092 1243 1092 1311 1082 c 128,-1,28
 1379 1072 1379 1072 1452 1053 c 1,29,-1
 1452 828 l 1,30,-1
 1339 828 l 1,31,32
 1337 908 1337 908 1307.5 943.5 c 128,-1,33
 1278 979 1278 979 1212 979 c 0,34,35
 1130.59 983.243 1130.59 983.243 1110 932 c 2,0,-1
EndSplineSet
EndChar
StartChar: uni01B5
Encoding: 437 437 437
Width: 1495
Flags: W
AnchorPoint: "above" 748 1465 basechar 0
Fore
76 0 m 1,0,-1
 76 141 l 1,1,-1
 456 659 l 1,2,-1
 234 659 l 1,3,-1
 234 851 l 1,4,-1
 597 851 l 1,5,-1
 967 1356 l 1,6,-1
 252 1356 l 1,7,-1
 252 1133 l 1,8,-1
 115 1133 l 1,9,-1
 115 1493 l 1,10,-1
 1411 1493 l 1,11,-1
 1411 1352 l 1,12,-1
 1048 851 l 1,13,-1
 1291 851 l 1,14,-1
 1291 659 l 1,15,-1
 909 659 l 1,16,-1
 530 137 l 1,17,-1
 1284 137 l 1,18,-1
 1284 346 l 1,19,-1
 1421 346 l 1,20,-1
 1421 0 l 1,21,-1
 76 0 l 1,0,-1
EndSplineSet
EndChar
StartChar: uni01B6
Encoding: 438 438 438
Width: 1163
Flags: W
AnchorPoint: "above" 582 1092 basechar 0
Fore
976 600 m 1,0,-1
 976 479 l 1,1,-1
 750 479 l 1,2,-1
 483 119 l 1,3,-1
 975 119 l 1,4,-1
 975 311 l 1,5,-1
 1094 311 l 1,6,-1
 1094 0 l 1,7,-1
 72 0 l 1,8,-1
 72 121 l 1,9,-1
 337 479 l 1,10,-1
 187 479 l 1,11,-1
 187 600 l 1,12,-1
 426 600 l 1,13,-1
 682 946 l 1,14,-1
 223 946 l 1,15,-1
 223 764 l 1,16,-1
 104 764 l 1,17,-1
 104 1063 l 1,18,-1
 1094 1063 l 1,19,-1
 1094 944 l 1,20,-1
 839 600 l 1,21,-1
 976 600 l 1,0,-1
EndSplineSet
EndChar
StartChar: uni01B7
Encoding: 439 439 439
Width: 1163
Flags: W
Fore
730.25 839.25 m 1,0,1
 950.545 818.318 950.545 818.318 1062 734 c 0,2,3
 1222 612.849 1222 612.849 1222 403 c 24,4,5
 1222 194 1222 194 1056.5 82.5 c 128,-1,6
 891 -29 891 -29 577 -29 c 0,7,8
 459 -29 459 -29 333.5 -9 c 128,-1,9
 208 11 208 11 71 51 c 1,10,-1
 71 379 l 1,11,-1
 192 379 l 1,12,13
 203 237 203 237 281 162.5 c 128,-1,14
 359 88 359 88 497 88 c 0,15,16
 649 88 649 88 732 172.5 c 128,-1,17
 815 257 815 257 815 412 c 0,18,19
 815 574 815 574 728.5 662 c 128,-1,20
 642 750 642 750 483 750 c 2,21,-1
 417 750 l 1,22,-1
 417 974.5 l 1,23,-1
 682 1356 l 1,24,-1
 252 1356 l 1,25,-1
 252 1133 l 1,26,-1
 115 1133 l 1,27,-1
 115 1493 l 1,28,-1
 1094 1493 l 1,29,-1
 1094 1356 l 1,30,-1
 730.25 839.25 l 1,0,1
EndSplineSet
EndChar
StartChar: uni01B8
Encoding: 440 440 440
Width: 1163
Flags: W
Fore
562.75 839.25 m 1,0,-1
 199 1356 l 1,1,-1
 199 1493 l 1,2,-1
 1178 1493 l 1,3,-1
 1178 1133 l 1,4,-1
 1041 1133 l 1,5,-1
 1041 1356 l 1,6,-1
 611 1356 l 1,7,-1
 876 974.5 l 1,8,-1
 876 750 l 1,9,-1
 810 750 l 2,10,11
 651 750 651 750 564.5 662 c 128,-1,12
 478 574 478 574 478 412 c 0,13,14
 478 257 478 257 561 172.5 c 128,-1,15
 644 88 644 88 796 88 c 0,16,17
 934 88 934 88 1012 162.5 c 128,-1,18
 1090 237 1090 237 1101 379 c 1,19,-1
 1222 379 l 1,20,-1
 1222 51 l 1,21,22
 1085 11 1085 11 959.5 -9 c 128,-1,23
 834 -29 834 -29 716 -29 c 0,24,25
 402 -29 402 -29 236.5 82.5 c 128,-1,26
 71 194 71 194 71 403 c 24,27,28
 71 612.849 71 612.849 231 734 c 0,29,30
 342.455 818.318 342.455 818.318 562.75 839.25 c 1,0,-1
EndSplineSet
EndChar
StartChar: uni01B9
Encoding: 441 441 441
Width: 1163
Flags: W
Fore
562.75 452.25 m 1,0,1
 199 944 l 1,30,-1
 199 1063 l 1,29,-1
 1189 1063 l 1,28,-1
 1189 764 l 1,27,-1
 1070 764 l 1,26,-1
 1070 946 l 1,25,-1
 611 946 l 1,24,-1
 876 587.5 l 1,23,-1
 876 363 l 1,22,-1
 810 363 l 2,21,-1
 651 363 651 363 564.5 275 c 128,-1,20
 478 187 478 187 478 25 c 0,18,19
 478 -130 478 -130 561 -214.5 c 128,-1,17
 644 -299 644 -299 796 -299 c 0,15,16
 934 -299 934 -299 1012 -224.5 c 128,-1,14
 1090 -150 1090 -150 1101 -8 c 1,12,13
 1222 -8 l 1,11,-1
 1222 -336 l 1,10,-1
 1085 -376 1085 -376 959.5 -396 c 128,-1,9
 834 -416 834 -416 716 -416 c 0,7,8
 402 -416 402 -416 236.5 -304.5 c 128,-1,6
 71 -193 71 -193 71 16 c 24,4,5
 71 225.849 71 225.849 231 347 c 0,2,3
 342.455 431.318 342.455 431.318 562.75 452.25 c 1,0,1
EndSplineSet
EndChar
StartChar: uni01BB
Encoding: 443 443 443
Width: 1425
Flags: W
Fore
270 1124 m 1,0,-1
 150 1124 l 1,1,-1
 150 1446 l 1,2,3
 272 1483 272 1483 392 1502 c 0,4,5
 511 1520 511 1520 633 1520 c 0,6,7
 918 1520 918 1520 1078 1404 c 0,8,9
 1237 1287 1237 1287 1237 1079 c 0,10,11
 1237 954 1237 954 1174 851 c 1,12,-1
 1291 851 l 1,13,-1
 1291 659 l 1,14,-1
 988 659 l 1,15,16
 914 602 914 602 813 535 c 2,17,-1
 397 262 l 1,18,-1
 1104 262 l 1,19,-1
 1104 438 l 1,20,-1
 1241 438 l 1,21,-1
 1241 0 l 1,22,-1
 137 0 l 1,23,-1
 137 244 l 1,24,-1
 358 397 l 2,25,26
 573 546 573 546 678 659 c 1,27,-1
 234 659 l 1,28,-1
 234 851 l 1,29,-1
 797 851 l 1,30,31
 829 942 829 942 829 1049 c 0,32,33
 829 1222 829 1222 758 1312 c 0,34,35
 686 1403 686 1403 549 1403 c 0,36,37
 431 1403 431 1403 360 1332 c 0,38,39
 289 1260 289 1260 270 1124 c 1,0,-1
EndSplineSet
EndChar
StartChar: uni01BC
Encoding: 444 444 444
Width: 1544
Flags: W
Fore
1026 840 m 0,0,1
 1221 809 1221 809 1317 707 c 0,2,3
 1413 605 1413 605 1413 403 c 0,4,5
 1413 194 1413 194 1247.5 82.5 c 0,6,7
 1082 -29 1082 -29 768 -29 c 0,8,9
 650 -29 650 -29 524.5 -9 c 0,10,11
 399 11 399 11 262 51 c 1,12,-1
 262 379 l 1,13,-1
 383 379 l 1,14,15
 394 237 394 237 472 162.5 c 0,16,17
 550 88 550 88 688 88 c 0,18,19
 840 88 840 88 923 172.5 c 0,20,21
 1006 257 1006 257 1006 412 c 0,22,23
 1006 574 1006 574 919.5 662 c 0,24,25
 833 750 833 750 674 750 c 2,26,-1
 287 750 l 1,27,-1
 287 1372 l 1,28,-1
 96 1372 l 1,29,-1
 96 1493 l 1,30,-1
 1427 1493 l 1,31,-1
 1427 1141 l 1,32,-1
 1290 1141 l 1,33,-1
 1290 1356 l 1,34,-1
 674 1356 l 1,35,-1
 674 869.953 l 1,36,37
 844.731 868.817 844.731 868.817 1026 840 c 0,0,1
EndSplineSet
EndChar
StartChar: uni01BD
Encoding: 445 445 445
Width: 1163
Flags: W
Fore
730.25 472 m 0,0,1
 993.288 418.734 993.288 418.734 1062 366.75 c 0,2,3
 1222 245.599 1222 245.599 1222 16 c 0,4,5
 1222 -193 1222 -193 1056.5 -304.5 c 0,6,7
 891 -416 891 -416 577 -416 c 0,8,9
 459 -416 459 -416 333.5 -396 c 0,10,11
 208 -376 208 -376 71 -336 c 1,12,-1
 71 -8 l 1,13,-1
 192 -8 l 1,14,15
 203 -150 203 -150 281 -224.5 c 0,16,17
 359 -299 359 -299 497 -299 c 0,18,19
 649 -299 649 -299 732 -214.5 c 0,20,21
 815 -130 815 -130 815 25 c 0,22,23
 815 187 815 187 728.5 275 c 0,24,25
 642 363 642 363 483 363 c 2,26,-1
 220 363 l 1,27,-1
 220 942 l 1,28,-1
 69 942 l 1,29,-1
 69 1063 l 1,30,-1
 1173 1063 l 1,31,-1
 1173 774 l 1,32,-1
 1052 774 l 1,33,-1
 1052 942 l 1,34,-1
 574 942 l 1,35,-1
 574 483.149 l 1,36,37
 686.773 480.804 686.773 480.804 730.25 472 c 0,0,1
EndSplineSet
EndChar
StartChar: uni01BE
Encoding: 446 446 446
Width: 1098
Flags: W
Fore
203 1393 m 1,0,-1
 557 1393 l 1,1,-1
 557 1049 l 1,2,-1
 705 1049 l 1,3,-1
 705 928 l 1,4,-1
 557 928 l 1,5,-1
 557 787 l 1,6,7
 584.2 778.699 584.2 778.699 673 702 c 0,8,9
 771 617.354 771 617.354 771 380 c 0,10,11
 771 156 771 156 673 63 c 128,-1,12
 575 -30 575 -30 315 -30 c 0,13,14
 243.004 -30 243.004 -30 177 -14 c 128,-1,15
 111.008 2 111.008 2 49 36 c 1,16,-1
 46 234 l 1,17,-1
 159 234 l 1,18,19
 163 152 163 152 190.5 118.5 c 0,20,21
 218.797 83 218.797 83 309 83 c 0,22,23
 410.575 83 410.575 83 436 130 c 0,24,25
 461.116 178.49 461.116 178.49 465 412 c 0,26,27
 468.502 622.566 468.502 622.566 423 666 c 0,28,29
 391.571 696 391.571 696 319 696 c 2,30,-1
 203 696 l 1,31,-1
 203 928 l 1,32,-1
 48 928 l 1,33,-1
 48 1049 l 1,34,-1
 203 1049 l 1,35,-1
 203 1393 l 1,0,-1
EndSplineSet
EndChar
StartChar: uni01C0
Encoding: 448 448 448
Width: 604
Flags: W
Fore
409.5 1493 m 1,0,-1
 409.5 0 l 1,1,-1
 194.5 0 l 1,2,-1
 194.5 1493 l 1,3,-1
 409.5 1493 l 1,0,-1
EndSplineSet
EndChar
StartChar: uni01C2
Encoding: 450 450 450
Width: 940
Flags: W
Fore
362.5 851 m 1,0,-1
 18 851 l 1,1,-1
 18 1013 l 1,2,-1
 362.5 1013 l 1,3,-1
 362.5 1493 l 1,4,-1
 577.5 1493 l 1,5,-1
 577.5 1013 l 1,6,-1
 922 1013 l 1,7,-1
 922 851 l 1,8,-1
 577.5 851 l 1,9,-1
 577.5 642 l 1,10,-1
 922 642 l 1,11,-1
 922 480 l 1,12,-1
 577.5 480 l 1,13,-1
 577.5 0 l 1,14,-1
 362.5 0 l 1,15,-1
 362.5 480 l 1,16,-1
 18 480 l 1,17,-1
 18 642 l 1,18,-1
 362.5 642 l 1,19,-1
 362.5 851 l 1,0,-1
EndSplineSet
EndChar
StartChar: uni01C3
Encoding: 451 451 451
Width: 604
Flags: W
Fore
409.5 216 m 1,0,-1
 409.5 0 l 1,1,-1
 194.5 0 l 1,2,-1
 194.5 216 l 1,3,-1
 409.5 216 l 1,0,-1
409.5 1493 m 1,4,-1
 409.5 432 l 1,5,-1
 194.5 432 l 1,6,-1
 194.5 1493 l 1,7,-1
 409.5 1493 l 1,4,-1
EndSplineSet
EndChar
StartChar: uni01E4
Encoding: 484 484 484
Width: 1834
Flags: W
Fore
1409 1024 m 1,0,1
 1364 1222 1364 1222 1259 1310.5 c 128,-1,2
 1154 1399 1154 1399 963 1399 c 0,3,4
 731 1399 731 1399 622.5 1241.5 c 128,-1,5
 514 1084 514 1084 514 745 c 0,6,7
 514 409 514 409 618 250.5 c 128,-1,8
 722 92 722 92 942 92 c 0,9,10
 1026 92 1026 92 1098 111 c 128,-1,11
 1170 130 1170 130 1229 168 c 1,12,-1
 1229 311 l 1,13,-1
 860 311 l 1,14,-1
 860 431 l 1,15,-1
 1229 431 l 1,16,-1
 1229 578 l 1,17,-1
 1049 578 l 1,18,-1
 1049 698 l 1,19,-1
 1587 698 l 1,20,-1
 1587 431 l 1,21,-1
 1786 431 l 1,22,-1
 1786 311 l 1,23,-1
 1587 311 l 1,24,-1
 1587 125 l 1,25,26
 1419 47 1419 47 1251.5 9 c 128,-1,27
 1084 -29 1084 -29 909 -29 c 0,28,29
 525 -29 525 -29 305.5 178 c 128,-1,30
 86 385 86 385 86 745 c 0,31,32
 86 1106 86 1106 305.5 1313 c 128,-1,33
 525 1520 525 1520 909 1520 c 0,34,35
 1069 1520 1069 1520 1224 1488 c 128,-1,36
 1379 1456 1379 1456 1536 1391 c 1,37,-1
 1536 1024 l 1,38,-1
 1409 1024 l 1,0,1
EndSplineSet
EndChar
StartChar: uni01E5
Encoding: 485 485 485
Width: 1432
Flags: W
Fore
878.994 475 m 1,0,-1
 672 475 l 1,1,-1
 672 596 l 1,2,-1
 878.949 596 l 1,3,4
 877.438 772.702 877.438 772.702 831 853 c 0,5,6
 783 936 783 936 678 936 c 0,7,8
 568 936 568 936 523.5 848.5 c 128,-1,9
 479 761 479 761 479 532 c 128,-1,10
 479 303 479 303 524 215 c 128,-1,11
 569 127 569 127 678 127 c 0,12,13
 783 127 783 127 831 210 c 0,14,15
 878.482 292.105 878.482 292.105 878.994 475 c 1,0,-1
1233 475 m 1,16,-1
 1233 14 l 2,17,18
 1233 -210 1233 -210 1073.5 -332.5 c 128,-1,19
 914 -455 914 -455 623 -455 c 0,20,21
 517 -455 517 -455 408 -438.5 c 128,-1,22
 299 -422 299 -422 184 -389 c 1,23,-1
 184 -135 l 1,24,-1
 297 -135 l 1,25,26
 312 -240 312 -240 381.5 -291 c 128,-1,27
 451 -342 451 -342 580 -342 c 0,28,29
 744 -342 744 -342 811.5 -263.5 c 128,-1,30
 879 -185 879 -185 879 14 c 2,31,-1
 879 135 l 1,32,33
 834 52 834 52 757.5 11.5 c 128,-1,34
 681 -29 681 -29 569 -29 c 0,35,36
 343 -29 343 -29 213.5 121 c 128,-1,37
 84 271 84 271 84 532 c 0,38,39
 84 794 84 794 213.5 943 c 128,-1,40
 343 1092 343 1092 569 1092 c 0,41,42
 681 1092 681 1092 757.5 1051.5 c 128,-1,43
 834 1011 834 1011 879 928 c 1,44,-1
 879 1063 l 1,45,-1
 1384 1063 l 1,46,-1
 1384 942 l 1,47,-1
 1233 942 l 1,48,-1
 1233 596 l 1,49,-1
 1384 596 l 1,50,-1
 1384 475 l 1,51,-1
 1233 475 l 1,16,-1
EndSplineSet
EndChar
StartChar: uni01F6
Encoding: 502 502 502
Width: 2501
Flags: W
AnchorPoint: "above" 970 1465 basechar 0
Fore
1651 625 m 2,0,1
 1651 296.316 1651 296.316 1701 234.5 c 0,2,3
 1791.19 123 1791.19 123 1943 123 c 0,4,5
 2119 123 2119 123 2205.5 235.5 c 128,-1,6
 2292 348 2292 348 2292 625 c 2,7,-1
 2292 943 l 1,8,-1
 2102 943 l 1,9,-1
 2102 1063 l 1,10,-1
 2431 1063 l 1,11,-1
 2431 604 l 2,12,13
 2431 258.504 2431 258.504 2283 116.5 c 0,14,15
 2131.36 -29 2131.36 -29 1816 -29 c 0,16,17
 1507.01 -29 1507.01 -29 1376 118 c 0,18,19
 1266 241.425 1266 241.425 1266 604 c 2,20,-1
 1266 733 l 1,21,-1
 672 733 l 1,22,-1
 672 121 l 1,23,-1
 864 121 l 1,24,-1
 864 0 l 1,25,-1
 96 0 l 1,26,-1
 96 121 l 1,27,-1
 287 121 l 1,28,-1
 287 1372 l 1,29,-1
 96 1372 l 1,30,-1
 96 1493 l 1,31,-1
 864 1493 l 1,32,-1
 864 1372 l 1,33,-1
 672 1372 l 1,34,-1
 672 870 l 1,35,-1
 1266 870 l 1,36,-1
 1266 1372 l 1,37,-1
 1075 1372 l 1,38,-1
 1075 1493 l 1,39,-1
 1843 1493 l 1,40,-1
 1843 1372 l 1,41,-1
 1651 1372 l 1,42,-1
 1651 625 l 2,0,1
EndSplineSet
EndChar
StartChar: Aringacute
Encoding: 506 506 506
Width: 1589
Flags: W
Fore
424 547 m 1,0,-1
 887 547 l 1,1,-1
 659 1118 l 1,2,-1
 424 547 l 1,0,-1
657 1430 m 128,-1,4
 657 1376 657 1376 696 1337.5 c 128,-1,5
 735 1299 735 1299 788 1299 c 0,6,7
 843 1299 843 1299 881.5 1337.5 c 128,-1,8
 920 1376 920 1376 920 1430 c 128,-1,9
 920 1484 920 1484 881 1522.5 c 128,-1,10
 842 1561 842 1561 788 1561 c 0,11,12
 735 1561 735 1561 696 1522.5 c 128,-1,3
 657 1484 657 1484 657 1430 c 128,-1,4
874 1900 m 1,13,-1
 1153 1900 l 1,14,-1
 913.153 1686.8 l 1,15,16
 954.378 1666.33 954.378 1666.33 989.5 1631 c 0,17,18
 1073 1547 1073 1547 1073 1430 c 0,19,20
 1073 1356 1073 1356 1042.5 1297 c 0,21,22
 1028.49 1269.9 1028.49 1269.9 1008.26 1246.82 c 1,23,-1
 1470 121 l 1,24,-1
 1612 121 l 1,25,-1
 1612 0 l 1,26,-1
 913 0 l 1,27,-1
 913 121 l 1,28,-1
 1059 121 l 1,29,-1
 936 426 l 1,30,-1
 375 426 l 1,31,-1
 250 121 l 1,32,-1
 428 121 l 1,33,-1
 428 0 l 1,34,-1
 -16 0 l 1,35,-1
 -16 121 l 1,36,-1
 106 121 l 1,37,-1
 568.536 1246.59 l 1,38,39
 549.428 1268.75 549.428 1268.75 535.5 1295.5 c 0,40,41
 504 1356 504 1356 504 1430 c 0,42,43
 504 1547 504 1547 587.5 1631 c 0,44,45
 654.977 1698.88 654.977 1698.88 744.33 1711.91 c 1,46,-1
 874 1900 l 1,13,-1
EndSplineSet
EndChar
StartChar: aringacute
Encoding: 507 507 507
Width: 1327
Flags: W
Fore
1128 653 m 2,0,-1
 1128 121 l 1,1,-1
 1280 121 l 1,2,-1
 1280 0 l 1,3,-1
 774 0 l 1,4,-1
 774 135 l 1,5,6
 704 51 704 51 618 11 c 128,-1,7
 532 -29 532 -29 422 -29 c 0,8,9
 259 -29 259 -29 171.5 58.5 c 128,-1,10
 84 146 84 146 84 309 c 0,11,12
 84 488 84 488 209.5 577 c 128,-1,13
 335 666 335 666 588 666 c 2,14,-1
 774 666 l 1,15,-1
 774 729 l 2,16,17
 774 858 774 858 713 919.5 c 128,-1,18
 652 981 652 981 524 981 c 0,19,20
 418 981 418 981 360.5 937.5 c 128,-1,21
 303 894 303 894 279 795 c 1,22,-1
 166 795 l 1,23,-1
 166 1024 l 1,24,25
 261 1058 261 1058 363 1075 c 128,-1,26
 465 1092 465 1092 578 1092 c 0,27,28
 863 1092 863 1092 995.5 986 c 128,-1,29
 1128 880 1128 880 1128 653 c 2,0,-1
774 334 m 2,30,-1
 774 547 l 1,31,-1
 641 547 l 2,32,33
 542 547 542 547 489 493 c 128,-1,34
 436 439 436 439 436 338 c 0,35,36
 436 237 436 237 474.5 187 c 128,-1,37
 513 137 513 137 592 137 c 0,38,39
 674 137 674 137 724 191 c 128,-1,40
 774 245 774 245 774 334 c 2,30,-1
686 1900 m 1,0,-1
 965 1900 l 1,1,-1
 725.274 1686.91 l 1,2,3
 766.43 1666.57 766.43 1666.57 801.5 1631.5 c 0,4,5
 885 1548 885 1548 885 1430 c 128,-1,7
 885 1312 885 1312 801.5 1228.5 c 128,-1,9
 718 1145 718 1145 600 1145 c 128,-1,11
 482 1145 482 1145 398.5 1228.5 c 128,-1,13
 315 1312 315 1312 315 1430 c 128,-1,15
 315 1548 315 1548 398.5 1631.5 c 0,16,17
 466.126 1699.13 466.126 1699.13 556.382 1711.98 c 1,18,-1
 686 1900 l 1,0,-1
469 1430 m 0,19,20
 469 1375 469 1375 507.5 1337 c 128,-1,22
 546 1299 546 1299 600 1299 c 0,23,24
 655 1299 655 1299 693 1337.5 c 128,-1,26
 731 1376 731 1376 731 1430 c 128,-1,28
 731 1484 731 1484 692.5 1522.5 c 128,-1,30
 654 1561 654 1561 600 1561 c 0,31,32
 545 1561 545 1561 507 1522.5 c 128,-1,34
 469 1484 469 1484 469 1430 c 0,19,20
EndSplineSet
EndChar
StartChar: uni0220
Encoding: 544 544 544
Width: 1786
Flags: W
Fore
70 0 m 1,0,-1
 70 121 l 1,1,-1
 260 121 l 1,2,-1
 260 1372 l 1,3,-1
 109 1372 l 1,4,-1
 109 1493 l 1,5,-1
 647 1493 l 1,6,-1
 647 1339 l 1,7,8
 728 1436 728 1436 831 1479 c 0,9,10
 933 1521 933 1521 1093 1521 c 0,10,11
 1319 1521 1319 1521 1434.5 1380 c 128,-1,12
 1550 1239 1550 1239 1550 965 c 2,13,-1
 1550 -305 l 1,14,-1
 1741 -305 l 1,15,-1
 1741 -426 l 1,16,-1
 975 -426 l 1,17,-1
 975 -305 l 1,18,-1
 1165 -305 l 1,19,-1
 1165 927 l 2,20,21
 1165 1176 1165 1176 1115.5 1273 c 128,-1,22
 1066 1370 1066 1370 944 1370 c 0,23,24
 793 1370 793 1370 719 1243 c 0,25,26
 647 1121 647 1121 647 841 c 2,26,-1
 647 121 l 1,27,-1
 838 121 l 1,28,-1
 838 0 l 1,29,-1
 70 0 l 1,0,-1
EndSplineSet
EndChar
StartChar: uni0221
Encoding: 545 545 545
Width: 1619
Flags: W
Fore
804.767 42 m 1,0,1
 798.779 33.3525 798.779 33.3525 757.5 11.5 c 0,2,3
 681 -29 681 -29 569 -29 c 0,4,5
 343 -29 343 -29 213.5 121 c 128,-1,6
 84 271 84 271 84 532 c 0,7,8
 84 794 84 794 213.5 943 c 128,-1,9
 343 1092 343 1092 569 1092 c 0,10,11
 681 1092 681 1092 757.5 1051.5 c 128,-1,12
 834 1011 834 1011 879 928 c 1,13,-1
 879 1436 l 1,14,-1
 727 1436 l 1,15,-1
 727 1556 l 1,16,-1
 1233 1556 l 1,17,-1
 1233 393 l 1,18,-1
 1321.75 395 l 0,19,20
 1368 395 1368 395 1431.96 383.623 c 0,21,22
 1583.34 357.512 1583.34 357.512 1583.34 195 c 0,23,24
 1583.34 -27.2578 1583.34 -27.2578 1235.34 -30 c 0,25,26
 1095.61 -31.1006 1095.61 -31.1006 993.845 52.5 c 0,27,28
 971.643 70.7393 971.643 70.7393 973 75 c 1,29,30
 947.78 52.3701 947.78 52.3701 930.005 24.4385 c 0,31,32
 902.005 -19.5615 902.005 -19.5615 890.005 -98.5615 c 1,33,-1
 780.005 -98.5615 l 1,34,35
 780.005 -21.1628 780.005 -21.1628 804.767 42 c 1,0,1
1233 303.314 m 1,36,-1
 1233 299 l 2,37,38
 1233 175 1233 175 1261.34 129 c 0,39,40
 1279.35 102.018 1279.35 102.018 1319.34 99 c 0,41,42
 1451.34 91.7588 1451.34 91.7588 1451.34 180 c 0,43,44
 1451.34 306.546 1451.34 306.546 1267.75 305 c 0,45,46
 1250.82 304.857 1250.82 304.857 1233 303.314 c 1,36,-1
879 479 m 2,47,-1
 879 584 l 2,48,49
 879 770 879 770 831 853 c 128,-1,50
 783 936 783 936 678 936 c 0,51,52
 568 936 568 936 523.5 848.5 c 128,-1,53
 479 761 479 761 479 532 c 128,-1,54
 479 303 479 303 524 215 c 128,-1,55
 569 127 569 127 678 127 c 0,56,57
 783 127 783 127 831 210 c 128,-1,58
 879 293 879 293 879 479 c 2,47,-1
EndSplineSet
EndChar
StartChar: uni0224
Encoding: 548 548 548
Width: 1495
Flags: W
Fore
76 0 m 1,0,-1
 76 141 l 1,1,-1
 967 1356 l 1,2,-1
 252 1356 l 1,3,-1
 252 1133 l 1,4,-1
 115 1133 l 1,5,-1
 115 1493 l 1,6,-1
 1411 1493 l 1,7,-1
 1411 1352 l 1,8,-1
 530 137 l 1,9,-1
 1136 137 l 1,10,-1
 1421 137 l 1,11,-1
 1421 111 l 2,12,13
 1421 -110 1421 -110 1328.5 -269.5 c 0,14,15
 1236 -429 1236 -429 1044 -538 c 1,16,-1
 934 -397 l 1,17,18
 1045.45 -306.982 1045.45 -306.982 1087 -209 c 0,19,20
 1129.57 -108.612 1129.57 -108.612 1135.16 -5.00986e-06 c 1,21,-1
 76 0 l 1,0,-1
EndSplineSet
EndChar
StartChar: uni0225
Encoding: 549 549 549
Width: 1163
Flags: W
Fore
72 0 m 1,0,-1
 72 121 l 1,1,-1
 682 946 l 1,2,-1
 223 946 l 1,3,-1
 223 764 l 1,4,-1
 104 764 l 1,5,-1
 104 1063 l 1,6,-1
 1094 1063 l 1,7,-1
 1094 944 l 1,8,-1
 483 119 l 1,9,-1
 809 119 l 1,10,-1
 1094 119 l 1,11,-1
 1094 111 l 2,12,13
 1094 -110 1094 -110 1001.5 -269.5 c 0,14,15
 909 -429 909 -429 717 -538 c 1,16,-1
 607 -397 l 1,17,18
 711 -313 711 -313 760 -209 c 0,19,20
 803.052 -117.624 803.052 -117.624 808.278 4.32943e-07 c 1,21,-1
 72 0 l 1,0,-1
EndSplineSet
EndChar
StartChar: uni0234
Encoding: 564 564 564
Width: 1174
Flags: W
Fore
639 222 m 1,0,1
 732 69 732 69 888 70 c 0,2,3
 1026 69.1465 1026 69.1465 1026 176 c 0,4,5
 1026 300.811 1026 300.811 936 300 c 0,6,7
 680.683 298 680.683 298 639 222 c 1,0,1
575 524 m 2,8,9
 575 430.23 575 430.23 602 316 c 1,10,11
 749.723 389.811 749.723 389.811 930 390 c 0,12,13
 1138 390.206 1138 390.206 1138 172 c 0,14,15
 1138 -37.6289 1138 -37.6289 801.6 -41 c 0,16,17
 621.269 -42.8076 621.269 -42.8076 489.6 30 c 1,18,19
 478.8 -2 478.8 -2 480 -87 c 1,20,-1
 480 -231 l 1,21,-1
 343.2 -231 l 1,22,-1
 344.4 -87 l 1,23,24
 348 14 348 14 376.8 93 c 1,25,26
 354.001 111.999 354.001 111.999 354 112 c 0,27,28
 221 266 221 266 221 524 c 2,29,-1
 221 1436 l 1,30,-1
 70 1436 l 1,31,-1
 70 1556 l 1,32,-1
 575 1556 l 1,33,-1
 575 524 l 2,8,9
EndSplineSet
EndChar
StartChar: uni0235
Encoding: 565 565 565
Width: 1889
Flags: W
AnchorPoint: "above" 664 1092 basechar 0
Fore
1354 222 m 1,0,1
 1447 69 1447 69 1603 70 c 0,2,3
 1741 69.1465 1741 69.1465 1741 176 c 0,4,5
 1741 300.811 1741 300.811 1651 300 c 0,6,7
 1395.68 298 1395.68 298 1354 222 c 1,0,1
1290 524 m 2,8,9
 1290 430.23 1290 430.23 1317 316 c 1,10,11
 1464.72 389.811 1464.72 389.811 1645 390 c 0,12,13
 1853 390.206 1853 390.206 1853 172 c 0,14,15
 1853 -37.6289 1853 -37.6289 1516.6 -41 c 0,16,17
 1336.27 -42.8076 1336.27 -42.8076 1204.6 30 c 1,18,19
 1193.8 -2 1193.8 -2 1195 -87 c 1,20,-1
 1195 -231 l 1,21,-1
 1058.2 -231 l 1,22,-1
 1059.4 -87 l 1,23,24
 1063 14 1063 14 1091.8 93 c 1,25,26
 1069 111.999 1069 111.999 1069 112 c 0,27,28
 936 266 936 266 936 524 c 2,29,-1
 936 686 l 2,30,31
 936 821 936 821 901.5 873.5 c 128,-1,32
 867 926 867 926 782 926 c 0,33,34
 675 926 675 926 625 847.5 c 128,-1,35
 575 769 575 769 575 598 c 2,36,-1
 575 121 l 1,37,-1
 705 121 l 1,38,-1
 705 0 l 1,39,-1
 70 0 l 1,40,-1
 70 121 l 1,41,-1
 221 121 l 1,42,-1
 221 942 l 1,43,-1
 70 942 l 1,44,-1
 70 1063 l 1,45,-1
 575 1063 l 1,46,-1
 575 913 l 1,47,48
 639 1008 639 1008 721 1050 c 128,-1,49
 803 1092 803 1092 928 1092 c 0,50,51
 1107 1092 1107 1092 1198.5 986.5 c 128,-1,52
 1290 881 1290 881 1290 676 c 2,53,-1
 1290 524 l 2,8,9
EndSplineSet
EndChar
StartChar: uni0236
Encoding: 566 566 566
Width: 1156
Flags: W
Fore
621 222 m 1,0,1
 714 69 714 69 870 70 c 0,2,3
 1008 69.1465 1008 69.1465 1008 176 c 0,4,5
 1008 300.811 1008 300.811 918 300 c 0,6,7
 662.683 298 662.683 298 621 222 c 1,0,1
203 520 m 2,8,-1
 203 942 l 1,9,-1
 49 942 l 1,10,-1
 49 1063 l 1,11,-1
 203 1063 l 1,12,-1
 203 1393 l 1,13,-1
 557 1393 l 1,14,-1
 557 1063 l 1,15,-1
 852 1063 l 1,16,-1
 852 942 l 1,17,-1
 557 942 l 1,18,-1
 557 520 l 2,19,20
 557 430.231 557 430.231 584 316 c 1,21,22
 731.723 389.811 731.723 389.811 912 390 c 0,23,24
 1120 390.206 1120 390.206 1120 172 c 0,25,26
 1120 -37.6288 1120 -37.6288 783.6 -41 c 0,27,28
 603.268 -42.8072 603.268 -42.8072 471.6 30 c 1,29,30
 460.8 -2 460.8 -2 462 -87 c 1,31,-1
 462 -231 l 1,32,-1
 325.2 -231 l 1,33,-1
 326.4 -87 l 1,34,35
 330 14 330 14 358.8 93 c 1,36,37
 336.001 111.999 336.001 111.999 336 112 c 0,38,39
 203 266 203 266 203 520 c 2,8,-1
EndSplineSet
EndChar
StartChar: dotlessj
Encoding: 567 567 567
Width: 741
Flags: W
AnchorPoint: "above" 319 1092 basechar 0
Fore
219 942 m 1,0,-1
 68 942 l 1,1,-1
 68 1063 l 1,2,-1
 573 1063 l 1,3,-1
 573 -125 l 2,4,5
 573 -288 573 -288 457.5 -371.5 c 128,-1,6
 342 -455 342 -455 117 -455 c 0,7,8
 57 -455 57 -455 -11 -445 c 128,-1,9
 -79 -435 -79 -435 -152 -416 c 1,10,-1
 -152 -190 l 1,11,-1
 -39 -191 l 1,12,13
 -37 -271 -37 -271 -7.5 -306.5 c 128,-1,14
 22 -342 22 -342 88 -342 c 0,15,16
 161 -342 161 -342 190 -295 c 128,-1,17
 219 -248 219 -248 219 -125 c 2,18,-1
 219 942 l 1,0,-1
EndSplineSet
EndChar
StartChar: uni0238
Encoding: 568 568 568
Width: 2112
Flags: W
Fore
1233 479 m 2,0,1
 1233 293 1233 293 1280.5 210 c 0,2,3
 1328 127 1328 127 1434 127 c 0,4,5
 1543 127 1543 127 1587.5 215 c 0,6,7
 1632 303 1632 303 1632 532 c 0,8,9
 1632 761 1632 761 1587.5 848.5 c 0,10,11
 1543 936 1543 936 1434 936 c 0,12,13
 1328 936 1328 936 1280.5 853 c 0,14,15
 1233.01 770.022 1233.01 770.022 1233 584.096 c 0,16,-1
 1233 479 l 2,0,1
879 121 m 1,17,-1
 879 135 l 1,18,19
 834 52 834 52 757.5 11.5 c 0,20,21
 681 -29 681 -29 569 -29 c 0,22,23
 343 -29 343 -29 213.5 121 c 0,24,25
 84 271 84 271 84 532 c 0,26,27
 84 794 84 794 213.5 943 c 0,28,29
 343 1092 343 1092 569 1092 c 0,30,31
 681 1092 681 1092 757.5 1051.5 c 0,32,33
 834 1011 834 1011 879 928 c 1,34,-1
 879 1436 l 1,35,-1
 727 1436 l 1,36,-1
 727 1556 l 1,37,-1
 1233 1556 l 1,38,-1
 1233 928 l 1,39,40
 1278 1011 1278 1011 1354 1051.5 c 0,41,42
 1430 1092 1430 1092 1542 1092 c 0,43,44
 1769 1092 1769 1092 1899.5 942.5 c 0,45,46
 2030 793 2030 793 2030 532 c 0,47,48
 2030 271 2030 271 1899.5 121 c 0,49,50
 1769 -29 1769 -29 1542 -29 c 0,51,52
 1430 -29 1430 -29 1354 11.5 c 0,53,54
 1278 52 1278 52 1233 135 c 1,55,-1
 1233 121 l 1,56,-1
 1233 0 l 1,57,-1
 879 0 l 1,58,-1
 879 121 l 1,17,-1
879 479 m 2,59,-1
 879 584 l 2,60,61
 879 770 879 770 831 853 c 0,62,63
 783 936 783 936 678 936 c 0,64,65
 568 936 568 936 523.5 848.5 c 0,66,67
 479 761 479 761 479 532 c 0,68,69
 479 303 479 303 524 215 c 0,70,71
 569 127 569 127 678 127 c 0,72,73
 783 127 783 127 831 210 c 0,74,75
 879 293 879 293 879 479 c 2,59,-1
EndSplineSet
EndChar
StartChar: uni0239
Encoding: 569 569 569
Width: 2112
Flags: W
Fore
1233 942 m 1,0,-1
 1233 928 l 1,1,2
 1278 1011 1278 1011 1354.5 1051.5 c 128,-1,3
 1431 1092 1431 1092 1543 1092 c 0,4,5
 1769 1092 1769 1092 1898.5 942 c 128,-1,6
 2028 792 2028 792 2028 531 c 0,7,8
 2028 269 2028 269 1898.5 120 c 128,-1,9
 1769 -29 1769 -29 1543 -29 c 0,10,11
 1431 -29 1431 -29 1354.5 11.5 c 128,-1,12
 1278 52 1278 52 1233 135 c 1,13,-1
 1233 -305 l 1,14,-1
 1385 -305 l 1,15,-1
 1385 -425 l 1,16,-1
 727 -426 l 1,17,-1
 727 -305 l 1,18,-1
 879 -305 l 1,19,-1
 879 135 l 1,20,21
 834 52 834 52 758 11.5 c 128,-1,22
 682 -29 682 -29 570 -29 c 0,23,24
 343 -29 343 -29 212.5 120.5 c 128,-1,25
 82 270 82 270 82 531 c 128,-1,26
 82 792 82 792 212.5 942 c 128,-1,27
 343 1092 343 1092 570 1092 c 0,28,29
 682 1092 682 1092 758 1051.5 c 128,-1,30
 834 1011 834 1011 879 928 c 1,31,-1
 879 942 l 1,32,-1
 879 1063 l 1,33,-1
 1233 1063 l 1,34,-1
 1233 942 l 1,0,-1
879 584 m 2,35,36
 879 770 879 770 831 853 c 128,-1,37
 783 936 783 936 678 936 c 0,38,39
 568 936 568 936 523.5 848.5 c 128,-1,40
 479 761 479 761 479 532 c 128,-1,41
 479 303 479 303 524 215 c 128,-1,42
 569 127 569 127 678 127 c 0,43,44
 783 127 783 127 831 210 c 128,-1,45
 879 293 879 293 879 479 c 2,46,-1
 879 584 l 2,35,36
1233 584 m 2,47,-1
 1233 479 l 2,48,49
 1233 293 1233 293 1280.5 210 c 128,-1,50
 1328 127 1328 127 1434 127 c 0,51,52
 1543 127 1543 127 1587.5 215 c 128,-1,53
 1632 303 1632 303 1632 532 c 128,-1,54
 1632 761 1632 761 1587.5 848.5 c 128,-1,55
 1543 936 1543 936 1434 936 c 0,56,57
 1328 936 1328 936 1280.5 853 c 128,-1,58
 1233 770 1233 770 1233 584 c 2,47,-1
EndSplineSet
EndChar
StartChar: uni023A
Encoding: 570 570 570
Width: 1589
Flags: W
Fore
61.5 -78 m 1,0,-1
 -28.5 12 l 1,1,-1
 -16 24.508 l 1,2,-1
 -16 121 l 1,3,-1
 80.43 121 l 1,4,-1
 123.76 164.358 l 1,5,-1
 668 1493 l 1,6,-1
 907 1493 l 1,7,-1
 1065.51 1106.72 l 1,8,-1
 1527.5 1569 l 1,9,-1
 1617.5 1479 l 1,10,-1
 1117.89 979.07 l 1,11,-1
 1470 121 l 1,12,-1
 1612 121 l 1,13,-1
 1612 0 l 1,14,-1
 913 0 l 1,15,-1
 913 121 l 1,16,-1
 1059 121 l 1,17,-1
 936 426 l 1,18,-1
 565.176 426 l 1,19,-1
 260.372 121 l 1,20,-1
 428 121 l 1,21,-1
 428 0 l 1,22,-1
 139.45 9.32587e-15 l 1,23,-1
 61.5 -78 l 1,0,-1
777.594 818.612 m 1,24,-1
 657 1118 l 1,25,-1
 424 547 l 1,26,-1
 506.156 547 l 1,27,-1
 777.594 818.612 l 1,24,-1
686.099 547 m 1,28,-1
 887 547 l 1,29,-1
 829.286 690.28 l 1,30,-1
 686.099 547 l 1,28,-1
367.885 408.64 m 1,31,-1
 385.234 426 l 1,32,-1
 375 426 l 1,33,-1
 367.885 408.64 l 1,31,-1
EndSplineSet
EndChar
StartChar: uni023B
Encoding: 571 571 571
Width: 1630
Flags: W
Fore
82 -78 m 1,0,-1
 -8 12 l 1,1,-1
 236.038 256.195 l 1,2,3
 86 449.844 86 449.844 86 745 c 0,4,5
 86 1103 86 1103 305.5 1311.5 c 0,6,7
 525 1520 525 1520 903 1520 c 0,8,9
 1036 1520 1036 1520 1180 1488 c 0,10,11
 1286.3 1464.38 1286.3 1464.38 1401.87 1422.77 c 1,12,-1
 1548 1569 l 1,13,-1
 1638 1479 l 1,14,-1
 1485 1325.9 l 1,15,-1
 1485 1024 l 1,16,-1
 1358 1024 l 1,17,18
 1342.57 1098.36 1342.57 1098.36 1317.14 1157.93 c 1,19,-1
 555.547 395.851 l 1,20,21
 580.362 311.83 580.362 311.83 620 252 c 0,22,23
 726 92 726 92 946 92 c 0,24,25
 1095 92 1095 92 1189.5 175 c 0,26,27
 1284 258 1284 258 1327 426 c 1,28,-1
 1526 426 l 1,29,30
 1467 195 1467 195 1314 83 c 0,31,32
 1161 -29 1161 -29 903 -29 c 0,33,34
 539.98 -29 539.98 -29 323.147 163.302 c 1,35,-1
 82 -78 l 1,0,-1
525.339 545.682 m 1,36,-1
 1249.63 1270.44 l 1,37,38
 1233.77 1289.37 1233.77 1289.37 1216 1305.5 c 0,39,40
 1113 1399 1113 1399 944 1399 c 0,41,42
 726 1399 726 1399 620 1238.5 c 0,43,44
 514 1078 514 1078 514 745 c 0,45,46
 514 636.088 514 636.088 525.339 545.682 c 1,36,-1
EndSplineSet
EndChar
StartChar: uni023C
Encoding: 572 572 572
Width: 1247
Flags: W
Fore
1155 332 m 1,0,1
 1117 150 1117 150 999.5 60.5 c 0,2,3
 882 -29 882 -29 680 -29 c 0,4,5
 422.318 -29 422.318 -29 270.012 92.0176 c 1,6,-1
 75.5 -102 l 1,7,-1
 -8.5 -16 l 1,8,-1
 186.141 178.476 l 1,9,10
 84 315.953 84 315.953 84 532 c 0,11,12
 84 796 84 796 238 944 c 0,13,14
 392 1092 392 1092 666 1092 c 0,15,16
 777 1092 777 1092 890 1071 c 0,17,18
 965.189 1057.03 965.189 1057.03 1042.15 1033.76 c 1,19,-1
 1169.5 1161 l 1,20,-1
 1255.5 1075 l 1,21,-1
 1120 939.844 l 1,22,-1
 1120 713 l 1,23,-1
 1008 713 l 1,24,25
 1001.71 766.04 1001.71 766.04 988.172 808.352 c 1,26,-1
 495.75 317.182 l 1,27,28
 510.965 236.765 510.965 236.765 540 187.5 c 0,29,30
 601 84 601 84 739 84 c 0,31,32
 846 84 846 84 910.5 148 c 0,33,34
 975 212 975 212 989 332 c 1,35,-1
 1155 332 l 1,0,1
925.421 917.128 m 1,36,37
 862.798 979 862.798 979 752 979 c 0,38,39
 604 979 604 979 541.5 879 c 0,40,41
 479 779 479 779 479 532 c 0,42,43
 479 500.906 479 500.906 480.015 472.101 c 1,44,-1
 925.421 917.128 l 1,36,37
EndSplineSet
EndChar
StartChar: uni023D
Encoding: 573 573 573
Width: 1440
Flags: W
Fore
96 0 m 1,0,-1
 96 121 l 1,1,-1
 287 121 l 1,2,-1
 287 659 l 1,3,-1
 38.5 659 l 1,4,-1
 38.5 851 l 1,5,-1
 287 851 l 1,6,-1
 287 1372 l 1,7,-1
 96 1372 l 1,8,-1
 96 1493 l 1,9,-1
 864 1493 l 1,10,-1
 864 1372 l 1,11,-1
 672 1372 l 1,12,-1
 672 851 l 1,13,-1
 919.5 851 l 1,14,-1
 919.5 659 l 1,15,-1
 672 659 l 1,16,-1
 672 137 l 1,17,-1
 1260 137 l 1,18,-1
 1260 373 l 1,19,-1
 1395 373 l 1,20,-1
 1395 0 l 1,21,-1
 96 0 l 1,0,-1
EndSplineSet
EndChar
StartChar: uni023E
Encoding: 574 574 574
Width: 1524
Flags: W
Fore
1155 0 m 1,0,-1
 371 0 l 1,22,-1
 371 121 l 1,21,-1
 570 121 l 1,20,-1
 570 461.346 l 1,19,-1
 31 -78 l 1,18,-1
 -59 12 l 1,17,-1
 570 641.404 l 1,16,-1
 570 1356 l 1,15,-1
 158 1356 l 1,14,-1
 158 1120 l 1,13,-1
 23 1120 l 1,12,-1
 23 1493 l 1,11,-1
 1421.05 1493 l 1,10,-1
 1497 1569 l 1,9,-1
 1587 1479 l 1,8,-1
 1503 1394.95 l 1,7,-1
 1503 1120 l 1,6,-1
 1366 1120 l 1,5,-1
 1366 1257.86 l 1,4,-1
 957 848.595 l 1,3,-1
 957 121 l 1,2,-1
 1155 121 l 1,1,-1
 1155 0 l 1,0,-1
1284.14 1356 m 1,23,-1
 957 1356 l 1,25,-1
 957 1028.65 l 1,24,-1
 1284.14 1356 l 1,23,-1
EndSplineSet
EndChar
StartChar: uni023F
Encoding: 575 575 575
Width: 1153
Flags: W
Fore
1014 -402 m 1,0,1
 886.579 -439.688 886.579 -439.688 777.471 -443.709 c 0,2,3
 742.448 -445 742.448 -445 672 -445 c 0,4,5
 539.245 -445 539.245 -445 444 -386 c 0,6,7
 343.256 -323.594 343.256 -323.594 306 -230 c 2,8,-1
 224 -24 l 2,9,10
 215.535 -2.73361 215.535 -2.73361 195.439 8.93264 c 1,11,12
 162.968 15.4593 162.968 15.4593 129.524 23.109 c 0,13,14
 113.09 26.2606 113.09 26.2606 96 31 c 1,15,-1
 96 328 l 1,16,-1
 209 328 l 1,17,18
 231.073 140.376 231.073 140.376 399.441 95.9681 c 0,19,20
 445.823 85.7685 445.823 85.7685 502 84 c 0,21,22
 695.403 84 695.403 84 721.479 197.079 c 0,23,24
 725 212.347 725 212.347 725 229 c 0,25,26
 725 309.532 725 309.532 661.814 347.192 c 0,27,28
 624.712 369.306 624.712 369.306 547 389 c 2,29,-1
 401 426 l 2,30,31
 234.956 468.08 234.956 468.08 162 543.5 c 0,32,33
 88 620 88 620 88 750 c 0,34,35
 88 995.658 88 995.658 333.444 1063.97 c 0,36,37
 434.156 1092 434.156 1092 578 1092 c 0,38,39
 763.818 1092 763.818 1092 1014 1028 c 1,40,-1
 1014 760 l 1,41,-1
 901 760 l 1,42,43
 882.917 979 882.917 979 627 979 c 0,44,45
 418.874 979 418.874 979 408.501 856.118 c 0,46,47
 408 850.183 408 850.183 408 844 c 0,48,49
 408 771.142 408 771.142 471.333 737.018 c 0,50,51
 501.897 720.551 501.897 720.551 555 707 c 2,52,-1
 700 670 l 2,53,54
 906.258 617.369 906.258 617.369 986.652 540.277 c 0,55,56
 1069 461.312 1069 461.312 1069 322 c 0,57,58
 1069 112.062 1069 112.062 892.581 30.0672 c 0,59,60
 777.102 -23.6044 777.102 -23.6044 581.471 -28.5036 c 1,61,62
 587.099 -39.7478 587.099 -39.7478 592 -52 c 2,63,-1
 636 -162 l 2,64,65
 675.38 -260.45 675.38 -260.45 716 -296.5 c 0,66,67
 756 -332 756 -332 822 -332 c 0,68,69
 831 -332 831 -332 864.5 -295 c 0,70,71
 898 -258 898 -258 901 -181 c 1,72,-1
 1014 -180 l 1,73,-1
 1014 -402 l 1,0,1
EndSplineSet
EndChar
StartChar: uni0240
Encoding: 576 576 576
Width: 1163
Flags: W
Fore
274 0 m 2,0,-1
 72 0 l 1,1,-1
 72 121 l 1,2,-1
 682 946 l 1,3,-1
 223 946 l 1,4,-1
 223 764 l 1,5,-1
 104 764 l 1,6,-1
 104 1063 l 1,7,-1
 1094 1063 l 1,8,-1
 1094 944 l 1,9,-1
 483 119 l 1,10,11
 670.689 120.129 670.689 120.129 731 -34 c 2,12,-1
 785 -172 l 2,13,14
 823.069 -269.288 823.069 -269.288 865 -306.5 c 0,15,16
 905 -342 905 -342 971 -342 c 0,17,18
 980 -342 980 -342 1013.5 -305 c 0,19,20
 1047 -268 1047 -268 1050 -191 c 1,21,-1
 1163 -190 l 1,22,-1
 1163 -412 l 1,23,24
 1092 -433 1092 -433 1032 -444 c 0,25,26
 972 -455 972 -455 821 -455 c 0,27,28
 688.245 -455 688.245 -455 593 -396 c 0,29,30
 492.88 -333.98 492.88 -333.98 455 -240 c 2,31,-1
 376 -44 l 2,32,33
 357.333 0 357.333 0 274 0 c 2,0,-1
EndSplineSet
EndChar
StartChar: uni0241
Encoding: 577 577 577
Width: 1352
Flags: W
Fore
365 1372 m 2,0,-1
 262.42 1372 262.42 1372 240.5 1344.5 c 0,29,30
 213 1311 213 1311 209 1229 c 1,27,28
 96 1229 l 1,26,-1
 96 1427 l 1,25,-1
 158.008 1461 158.008 1461 227 1477 c 128,-1,24
 295.992 1493 295.992 1493 365 1493 c 2,22,23
 758 1493 l 2,21,-1
 1007 1493 1007 1493 1154 1374.5 c 128,-1,20
 1301 1256 1301 1256 1301 1057 c 128,-1,19
 1301 858 1301 858 1153.5 738.5 c 128,-1,18
 1006 619 1006 619 758 619 c 2,16,17
 719 619 l 1,15,-1
 719 121 l 1,14,-1
 960 121 l 1,13,-1
 960 0 l 1,12,-1
 143 0 l 1,11,-1
 143 121 l 1,10,-1
 334 121 l 1,9,-1
 335 740 l 1,8,-1
 596 740 l 2,7,-1
 726 740 726 740 803.5 826 c 128,-1,6
 881 912 881 912 881 1057 c 0,4,5
 881 1201 881 1201 804 1286.5 c 128,-1,3
 727 1372 727 1372 596 1372 c 2,1,2
 365 1372 l 2,0,-1
EndSplineSet
EndChar
StartChar: uni0242
Encoding: 578 578 578
Width: 1121
Flags: W
Fore
365 339 m 1,0,1
 495 339 495 339 572.5 425 c 0,2,3
 650 511 650 511 650 656 c 0,4,5
 650 799.997 650 799.997 573 885.5 c 0,6,7
 496.002 971 496.002 971 365 971 c 0,8,9
 262.42 971 262.42 971 240.5 943.5 c 0,10,11
 213 910 213 910 209 828 c 1,12,-1
 96 828 l 1,13,-1
 96 1026 l 1,14,15
 158.008 1060 158.008 1060 227 1076 c 0,16,17
 295.991 1092 295.991 1092 365 1092 c 2,18,-1
 527 1092 l 2,19,20
 775.998 1092 775.998 1092 923 973.5 c 0,21,22
 1070 855 1070 855 1070 656 c 0,23,24
 1070 457 1070 457 922.5 337.5 c 0,25,26
 837.455 268.599 837.455 268.599 719 239.425 c 1,27,-1
 719 121 l 1,28,-1
 960 121 l 1,29,-1
 960 0 l 1,30,-1
 173 0 l 1,31,-1
 173 121 l 1,32,-1
 364 121 l 1,33,-1
 365 339 l 1,0,1
EndSplineSet
EndChar
StartChar: uni0250
Encoding: 592 592 592
Width: 1327
Flags: W
AnchorPoint: "above" 764 1092 basechar 0
AnchorPoint: "below" 764 0 basechar 0
Fore
236 410 m 2,0,-1
 236 942 l 1,1,-1
 84 942 l 1,2,-1
 84 1063 l 1,3,-1
 590 1063 l 1,4,-1
 590 928 l 1,5,6
 660 1012 660 1012 746 1052 c 128,-1,7
 832 1092 832 1092 942 1092 c 0,8,9
 1105 1092 1105 1092 1192.5 1004.5 c 128,-1,10
 1280 917 1280 917 1280 754 c 0,11,12
 1280 575 1280 575 1154.5 486 c 128,-1,13
 1029 397 1029 397 776 397 c 2,14,-1
 590 397 l 1,15,-1
 590 334 l 2,16,17
 590 205 590 205 651 143.5 c 128,-1,18
 712 82 712 82 840 82 c 0,19,20
 946 82 946 82 1003.5 125.5 c 128,-1,21
 1061 169 1061 169 1085 268 c 1,22,-1
 1198 268 l 1,23,-1
 1198 39 l 1,24,25
 1103 5 1103 5 1001 -12 c 128,-1,26
 899 -29 899 -29 786 -29 c 0,27,28
 501 -29 501 -29 368.5 77 c 128,-1,29
 236 183 236 183 236 410 c 2,0,-1
590 729 m 2,30,-1
 590 516 l 1,31,-1
 723 516 l 2,32,33
 822 516 822 516 875 570 c 128,-1,34
 928 624 928 624 928 725 c 0,35,36
 928 826 928 826 889.5 876 c 128,-1,37
 851 926 851 926 772 926 c 0,38,39
 690 926 690 926 640 872 c 128,-1,40
 590 818 590 818 590 729 c 2,30,-1
EndSplineSet
EndChar
StartChar: uni0251
Encoding: 593 593 593
Width: 1432
Flags: W
AnchorPoint: "below" 600 0 basechar 0
AnchorPoint: "above" 600 1092 basechar 0
Fore
879 479 m 2,0,-1
 879 584 l 2,1,2
 879 770 879 770 831 853 c 128,-1,3
 783 936 783 936 678 936 c 0,4,5
 568 936 568 936 523.5 848.5 c 128,-1,6
 479 761 479 761 479 532 c 128,-1,7
 479 303 479 303 524 215 c 128,-1,8
 569 127 569 127 678 127 c 0,9,10
 783 127 783 127 831 210 c 128,-1,11
 879 293 879 293 879 479 c 2,0,-1
879 1064 m 1,12,-1
 1384 1064 l 1,13,-1
 1384 943 l 1,14,-1
 1233 943 l 1,15,-1
 1233 121 l 1,16,-1
 1384 121 l 1,17,-1
 1384 0 l 1,18,-1
 879 0 l 1,19,-1
 879 135 l 1,20,21
 834 52 834 52 757.5 11.5 c 128,-1,22
 681 -29 681 -29 569 -29 c 0,23,24
 343 -29 343 -29 213.5 121 c 128,-1,25
 84 271 84 271 84 532 c 0,26,27
 84 794 84 794 213.5 943 c 128,-1,28
 343 1092 343 1092 569 1092 c 0,29,30
 681 1092 681 1092 757.5 1051.5 c 128,-1,31
 834 1011 834 1011 879 928 c 1,32,-1
 879 944 l 1,33,-1
 879 1064 l 1,12,-1
EndSplineSet
EndChar
StartChar: uni0252
Encoding: 594 594 594
Width: 1432
Flags: W
AnchorPoint: "below" 880 0 basechar 0
AnchorPoint: "above" 880 1092 basechar 0
Fore
589 584 m 2,0,-1
 589 479 l 2,1,2
 589 293 589 293 637 210 c 128,-1,3
 685 127 685 127 790 127 c 0,4,5
 900 127 900 127 944.5 214.5 c 128,-1,6
 989 302 989 302 989 531 c 128,-1,7
 989 760 989 760 944 848 c 128,-1,8
 899 936 899 936 790 936 c 0,9,10
 685 936 685 936 637 853 c 128,-1,11
 589 770 589 770 589 584 c 2,0,-1
589 -1 m 1,12,-1
 84 -1 l 1,13,-1
 84 120 l 1,14,-1
 235 120 l 1,15,-1
 235 942 l 1,16,-1
 84 942 l 1,17,-1
 84 1063 l 1,18,-1
 589 1063 l 1,19,-1
 589 928 l 1,20,21
 634 1011 634 1011 710.5 1051.5 c 128,-1,22
 787 1092 787 1092 899 1092 c 0,23,24
 1125 1092 1125 1092 1254.5 942 c 128,-1,25
 1384 792 1384 792 1384 531 c 0,26,27
 1384 269 1384 269 1254.5 120 c 128,-1,28
 1125 -29 1125 -29 899 -29 c 0,29,30
 787 -29 787 -29 710.5 11.5 c 128,-1,31
 634 52 634 52 589 135 c 1,32,-1
 589 119 l 1,33,-1
 589 -1 l 1,12,-1
EndSplineSet
EndChar
StartChar: uni0253
Encoding: 595 595 595
Width: 1432
Flags: W
AnchorPoint: "above" 579 1465 basechar 0
AnchorPoint: "below" 673 0 basechar 0
Fore
553 479 m 2,0,1
 553 293 553 293 600.5 210 c 0,2,3
 648 127 648 127 754 127 c 0,4,5
 863 127 863 127 907.5 215 c 0,6,7
 952 303 952 303 952 532 c 0,8,9
 952 761 952 761 907.5 848.5 c 0,10,11
 863 936 863 936 754 936 c 0,12,13
 648 936 648 936 600.5 853 c 0,14,15
 553 770 553 770 553 584 c 2,16,-1
 553 479 l 2,0,1
199 121 m 1,17,-1
 199 1164 l 1,18,-1
 200 1164 l 1,19,-1
 200 1226 l 2,20,21
 200 1389.01 200 1389.01 315.5 1472.5 c 0,22,23
 431.007 1556 431.007 1556 656 1556 c 0,24,25
 716 1556 716 1556 784 1546 c 0,26,27
 852 1536 852 1536 925 1517 c 1,28,-1
 925 1292 l 1,29,-1
 812 1292 l 1,30,31
 810 1372 810 1372 780.5 1407.5 c 0,32,33
 751 1443 751 1443 685 1443 c 0,34,35
 612 1443 612 1443 583 1396 c 0,36,37
 554 1348.91 554 1348.91 554 1226 c 2,38,-1
 554 929.832 l 1,39,40
 598.841 1011.45 598.841 1011.45 674 1051.5 c 0,41,42
 750 1092 750 1092 862 1092 c 0,43,44
 1089 1092 1089 1092 1219.5 942.5 c 0,45,46
 1350 793 1350 793 1350 532 c 0,47,48
 1350 271 1350 271 1219.5 121 c 0,49,50
 1089 -29 1089 -29 862 -29 c 0,51,52
 750 -29 750 -29 674 11.5 c 0,53,54
 598 52 598 52 553 135 c 1,55,-1
 553 0 l 1,56,-1
 47 0 l 1,57,-1
 47 121 l 1,58,-1
 199 121 l 1,17,-1
EndSplineSet
EndChar
StartChar: uni0254
Encoding: 596 596 596
Width: 1247
Flags: W
AnchorPoint: "below" 584 0 basechar 0
AnchorPoint: "above" 584 1092 basechar 0
Fore
84 731 m 1,0,1
 122 913 122 913 239.5 1002.5 c 128,-1,2
 357 1092 357 1092 559 1092 c 0,3,4
 843 1092 843 1092 999 945 c 128,-1,5
 1155 798 1155 798 1155 531 c 0,6,7
 1155 267 1155 267 1001 119 c 128,-1,8
 847 -29 847 -29 573 -29 c 0,9,10
 462 -29 462 -29 349 -8 c 128,-1,11
 236 13 236 13 119 55 c 1,12,-1
 119 350 l 1,13,-1
 231 350 l 1,14,15
 247 215 247 215 310 149.5 c 128,-1,16
 373 84 373 84 487 84 c 0,17,18
 635 84 635 84 697.5 184 c 128,-1,19
 760 284 760 284 760 531 c 0,20,21
 760 772 760 772 699 875.5 c 128,-1,22
 638 979 638 979 500 979 c 0,23,24
 393 979 393 979 328.5 915 c 128,-1,25
 264 851 264 851 250 731 c 1,26,-1
 84 731 l 1,0,1
EndSplineSet
EndChar
StartChar: uni0255
Encoding: 597 597 597
Width: 1247
Flags: W
AnchorPoint: "above" 664 1092 basechar 0
Fore
531 222 m 1,0,1
 622.801 70.9719 622.801 70.9719 780 70 c 0,2,3
 1032 69.1468 1032 69.1468 1032 186 c 0,4,5
 1032 301.838 1032 301.838 828 300 c 0,6,7
 572.683 298 572.683 298 531 222 c 1,0,1
494 316 m 1,8,9
 638 388 638 388 882 390 c 0,10,11
 1150.05 390.211 1150.05 390.211 1145 158 c 0,12,13
 1141 -41 1141 -41 693.6 -41 c 0,14,15
 510 -41 510 -41 381.6 30 c 1,16,17
 370.8 -2 370.8 -2 372 -87 c 1,18,-1
 372 -231 l 1,19,-1
 235.2 -231 l 1,20,-1
 236.4 -87 l 1,21,22
 240 14 240 14 268.8 93 c 1,23,24
 256.8 103 256.8 103 246 112 c 0,25,26
 76.7998 266 76.7998 266 76.7998 520 c 0,27,28
 76.7998 775 76.7998 775 246 928 c 0,29,30
 415.2 1080 415.2 1080 693.6 1080 c 0,31,32
 854.64 1080 854.64 1080 942.64 1056 c 0,33,34
 1030.64 1033 1030.64 1033 1119.52 985 c 1,35,-1
 1119.52 713 l 1,36,-1
 1025.36 713 l 1,37,38
 1006.88 853 1006.88 853 945.28 917 c 0,39,40
 882.8 981 882.8 981 768 981 c 0,41,42
 619 981 619 981 543 866 c 0,43,44
 464.592 746.326 464.592 746.326 467 520 c 0,45,46
 468 426 468 426 494 316 c 1,8,9
EndSplineSet
EndChar
StartChar: uni0256
Encoding: 598 598 598
Width: 1432
Flags: W
AnchorPoint: "above" 979 1465 basechar 0
AnchorPoint: "below" 681 -430 basechar 0
Fore
879 479 m 2,0,-1
 879 584 l 2,1,2
 879 770 879 770 831 853 c 0,3,4
 783 936 783 936 678 936 c 0,5,6
 568 936 568 936 523.5 848.5 c 0,7,8
 479 761 479 761 479 532 c 0,9,10
 479 303 479 303 524 215 c 0,11,12
 569 127 569 127 678 127 c 0,13,14
 783 127 783 127 831 210 c 0,15,16
 879 293 879 293 879 479 c 2,0,-1
878 133.168 m 1,17,18
 833.153 51.5517 833.153 51.5517 757.5 11.5 c 0,19,20
 681 -29 681 -29 569 -29 c 0,21,22
 343 -29 343 -29 213.5 121 c 0,23,24
 84 271 84 271 84 532 c 0,25,26
 84 794 84 794 213.5 943 c 0,27,28
 343 1092 343 1092 569 1092 c 0,29,30
 681 1092 681 1092 757.5 1051.5 c 0,31,32
 834 1011 834 1011 879 928 c 1,33,-1
 879 1436 l 1,34,-1
 727 1436 l 1,35,-1
 727 1556 l 1,36,-1
 1233 1556 l 1,37,-1
 1233 0 l 1,38,-1
 1232 9.99201e-15 l 1,39,-1
 1232 -125 l 2,40,41
 1232 -247.91 1232 -247.91 1261 -295 c 0,42,43
 1290 -342 1290 -342 1363 -342 c 0,44,45
 1429 -342 1429 -342 1458.5 -306.5 c 0,46,47
 1488 -271 1488 -271 1490 -191 c 1,48,-1
 1603 -191 l 1,49,-1
 1603 -416 l 1,50,51
 1530 -435 1530 -435 1462 -445 c 0,52,53
 1394 -455 1394 -455 1334 -455 c 0,54,55
 1109 -455 1109 -455 993.5 -371.5 c 0,56,57
 878 -288.003 878 -288.003 878 -125 c 2,58,-1
 878 133.168 l 1,17,18
EndSplineSet
EndChar
